<?xml version="1.0" standalone="no"?>
<!DOCTYPE svg PUBLIC "-//W3C//DTD SVG 1.1//EN" "http://www.w3.org/Graphics/SVG/1.1/DTD/svg11.dtd" >
<svg xmlns="http://www.w3.org/2000/svg" xmlns:xlink="http://www.w3.org/1999/xlink" version="1.1">
<metadata>
Created by FontForge 20190801 at Mon Feb 17 23:35:43 2020
 By www-data
Copyright (c) 2019 by Alfredo Marco Pradil. All rights reserved.
</metadata>
<defs>
<font id="HKGroteskExtraBold" horiz-adv-x="0" >
  <font-face 
    font-family="HKGroteskExtraBold"
    font-weight="800"
    font-stretch="normal"
    units-per-em="1000"
    panose-1="0 0 9 0 0 0 0 0 0 0"
    ascent="800"
    descent="-200"
    x-height="493"
    cap-height="697"
    bbox="-723 -259 1304 1126"
    underline-thickness="60"
    underline-position="-121"
    unicode-range="U+0020-FB02"
  />
<missing-glyph horiz-adv-x="555" 
d="M76 0v471h404v-471h-404zM126 51h303v369h-303v-369z" />
    <glyph glyph-name="fi" unicode="fi" horiz-adv-x="562" 
d="M499 493v-493h-135v387h-147v-387h-135v387h-80v106h80v34q0 81 63.5 131t153.5 50q115 0 203 -52l-63 -96q-58 39 -133 39q-45 0 -67 -21t-22 -54v-31h282z" />
    <glyph glyph-name="fl" unicode="fl" horiz-adv-x="618" 
d="M511 -11q-52 0 -82.5 26t-30.5 78v492q-40 14 -89 14q-46 0 -68.5 -21t-22.5 -54v-31h97l-1 -106h-96v-387h-136v387h-80v106h80v34q0 81 65 131t155 50q69 0 115 -10t117 -43v-518q0 -23 30 -23q20 0 37 5v-114q-51 -16 -90 -16z" />
    <glyph glyph-name="f_f" unicode="ff" horiz-adv-x="609" 
d="M82 0v387h-80v106h80v32q0 84 62.5 133.5t151.5 49.5q78 0 134 -35q47 35 105 35q50 0 93 -20l-43 -112q-18 11 -37 11q-38 0 -38 -43v-51h108v-106h-108v-387h-136v387h-157v-387h-135zM217 493h158v63q0 11 2 25q-34 18 -75 18q-85 0 -85 -76v-30z" />
    <glyph glyph-name="f_f_i" unicode="ffi" horiz-adv-x="863" 
d="M82 0v387h-80v106h80v32q0 84 62.5 133.5t151.5 49.5q88 0 150 -44q61 44 146 44q114 0 203 -52l-63 -96q-60 39 -133 39q-45 0 -67 -21t-22 -54v-31h292v-493h-135v387h-157v-387h-136v387h-157v-387h-135zM217 493h157v34q0 32 8 52q-35 20 -80 20q-85 0 -85 -76v-30z
" />
    <glyph glyph-name="f_f_l" unicode="ffl" horiz-adv-x="887" 
d="M780 -11q-52 0 -82.5 27.5t-30.5 82.5v492q-38 8 -68 8q-45 0 -67 -21t-22 -54v-31h88v-106h-88v-387h-136v387h-157v-387h-135v387h-80v106h80v32q0 84 62.5 133.5t151.5 49.5q85 0 149 -43q64 43 147 43q115 0 210 -56v-515q0 -23 31 -23q17 0 36 5v-114
q-53 -16 -89 -16zM217 493h157v34q0 19 7 52q-35 20 -79 20q-85 0 -85 -76v-30z" />
    <glyph glyph-name="H_d_c_o.liga" unicode="Hdco" horiz-adv-x="816" 
d="M408 -10q-157 0 -267.5 111t-110.5 267t110.5 267t267.5 111t267.5 -111t110.5 -267t-110.5 -267t-267.5 -111zM408 26q142 0 242 100.5t100 241.5t-100 241.5t-242 100.5t-242 -100.5t-100 -241.5t100 -241.5t242 -100.5zM192 217q-8 0 -13 5.5t-5 12.5v265q0 8 5 13
t13 5t13 -5t5 -13v-265q0 -7 -5 -12.5t-13 -5.5zM408 217q-8 0 -13 5.5t-5 12.5v265q0 8 5 13t13 5t13 -5t5 -13v-265q0 -7 -5 -12.5t-13 -5.5zM626 217q-8 0 -13 5l-145 134q-5 4 -5 12q0 7 5 12l143 131q7 7 14 7q6 0 11.5 -4.5t5.5 -12.5q0 -7 -5 -12l-132 -121l132 -122
q5 -5 5 -12q0 -6 -4.5 -11.5t-11.5 -5.5zM264 350q-8 0 -13 5t-5 13t5 13t13 5h72q8 0 13 -5t5 -13t-5 -13t-13 -5h-72z" />
    <glyph glyph-name="h_d_c_o.liga" unicode="hdco" horiz-adv-x="816" 
d="M408 -10q-157 0 -267.5 111t-110.5 267t110.5 267t267.5 111t267.5 -111t110.5 -267t-110.5 -267t-267.5 -111zM408 26q142 0 242 100.5t100 241.5t-100 241.5t-242 100.5t-242 -100.5t-100 -241.5t100 -241.5t242 -100.5zM192 217q-8 0 -13 5.5t-5 12.5v265q0 8 5 13
t13 5t13 -5t5 -13v-265q0 -7 -5 -12.5t-13 -5.5zM408 217q-8 0 -13 5.5t-5 12.5v265q0 8 5 13t13 5t13 -5t5 -13v-265q0 -7 -5 -12.5t-13 -5.5zM626 217q-8 0 -13 5l-145 134q-5 4 -5 12q0 7 5 12l143 131q7 7 14 7q6 0 11.5 -4.5t5.5 -12.5q0 -7 -5 -12l-132 -121l132 -122
q5 -5 5 -12q0 -6 -4.5 -11.5t-11.5 -5.5zM264 350q-8 0 -13 5t-5 13t5 13t13 5h72q8 0 13 -5t5 -13t-5 -13t-13 -5h-72z" />
    <glyph glyph-name="hyphen_greater.liga" unicode="&#x2d;&#x3e;" horiz-adv-x="1108" 
d="M551 -14l-46 90l297 168l-802 -1v101l802 -2l-297 168l46 90l551 -307z" />
    <glyph glyph-name="less_hyphen.liga" unicode="&#x3c;&#x2d;" horiz-adv-x="1108" 
d="M558 -14l-551 307l551 307l45 -90l-297 -168l802 2v-101l-802 1l297 -168z" />
    <glyph glyph-name=".notdef" horiz-adv-x="555" 
d="M76 0v471h404v-471h-404zM126 51h303v369h-303v-369z" />
    <glyph glyph-name=".null" 
 />
    <glyph glyph-name="nonmarkingreturn" horiz-adv-x="333" 
 />
    <glyph glyph-name="space" unicode=" " horiz-adv-x="243" 
 />
    <glyph glyph-name="exclam" unicode="!" horiz-adv-x="303" 
d="M100 215l-15 482h134l-16 -482h-103zM80 0v136h143v-136h-143z" />
    <glyph glyph-name="quotedbl" unicode="&#x22;" horiz-adv-x="441" 
d="M76 417v280h113v-280h-113zM252 417v280h114v-280h-114z" />
    <glyph glyph-name="numbersign" unicode="#" horiz-adv-x="668" 
d="M99 0l44 202h-113v96h133l23 111h-116v100h137l45 188h107l-45 -192h109l42 192h107l-46 -192h113v-96h-133l-25 -111h118v-96h-138l-44 -202h-105l44 202h-110l-42 -202h-105zM270 298h108l22 111h-108z" />
    <glyph glyph-name="dollar" unicode="$" horiz-adv-x="576" 
d="M546 210q0 -85 -51.5 -143.5t-136.5 -75.5v-108l-110 -1v108q-89 14 -149.5 70t-73.5 141l140 35q6 -60 42.5 -92.5t93.5 -32.5q47 0 75.5 22.5t28.5 63.5q0 30 -29 53.5t-102 52.5q-111 45 -155.5 92.5t-44.5 124.5q0 75 47 126t127 64v98h110v-101q103 -23 154 -124
l-117 -73q-33 79 -103 79q-32 0 -54.5 -19t-22.5 -47q0 -30 28 -52.5t105 -52.5q112 -44 155 -89t43 -119z" />
    <glyph glyph-name="percent" unicode="%" horiz-adv-x="683" 
d="M177 384q-64 0 -106 45t-42 117t41 117t104 45t105 -47t42 -116q0 -68 -41 -114.5t-103 -46.5zM81 0l428 697h95l-428 -697h-95zM177 475q23 0 38 19.5t15 50.5q0 33 -15.5 52.5t-40.5 19.5t-39.5 -18.5t-14.5 -52.5t15.5 -52.5t41.5 -18.5zM510 -11q-64 0 -105.5 45
t-41.5 119q0 71 40.5 116t103.5 45t105.5 -46.5t42.5 -115.5t-41.5 -116t-103.5 -47zM510 81q23 0 38.5 20t15.5 51q0 32 -16 51.5t-41 19.5q-24 0 -38.5 -18t-14.5 -52q0 -35 15.5 -53.5t40.5 -18.5z" />
    <glyph glyph-name="ampersand" unicode="&#x26;" horiz-adv-x="674" 
d="M656 47l-96 -86l-88 101q-89 -74 -210 -74q-103 0 -169.5 46.5t-66.5 131.5q0 71 42.5 120t116.5 94q-80 77 -80 159q0 75 60.5 121t137.5 46t132.5 -48t55.5 -119q0 -97 -116 -180l91 -100q19 44 28 104l126 -17q-20 -108 -66 -186zM236 540q0 -40 51 -99q79 50 79 98
q0 26 -16 43.5t-46 17.5q-28 0 -48 -16.5t-20 -43.5zM255 103q79 0 137 50l-121 138q-56 -36 -84.5 -65t-28.5 -63q0 -60 97 -60z" />
    <glyph glyph-name="quotesingle" unicode="'" horiz-adv-x="265" 
d="M76 431v266h113v-266h-113z" />
    <glyph glyph-name="parenleft" unicode="(" horiz-adv-x="278" 
d="M162 -72q-55 58 -88.5 170.5t-33.5 248.5q0 288 121 419h121q-135 -169 -135 -420q0 -134 32.5 -231t102.5 -187h-120z" />
    <glyph glyph-name="parenright" unicode=")" horiz-adv-x="278" 
d="M117 -72h-121q71 90 103.5 187t32.5 231q0 252 -136 420h122q121 -133 121 -419q0 -136 -33.5 -248.5t-88.5 -170.5z" />
    <glyph glyph-name="asterisk" unicode="*" horiz-adv-x="402" 
d="M150 410l-78 54l70 74l-101 16l30 86l94 -37l-14 94h97l-12 -94l93 37l29 -86l-101 -16l70 -74l-78 -54l-51 99z" />
    <glyph glyph-name="plus" unicode="+" horiz-adv-x="574" 
d="M231 52v201h-200v113h200v199h113v-199h200v-113h-200v-201h-113z" />
    <glyph glyph-name="comma" unicode="," horiz-adv-x="303" 
d="M59 -147l59 293h154l-124 -293h-89z" />
    <glyph glyph-name="hyphen" unicode="-" horiz-adv-x="417" 
d="M61 243v101h295v-101h-295z" />
    <glyph glyph-name="period" unicode="." horiz-adv-x="305" 
d="M87 0v136h131v-136h-131z" />
    <glyph glyph-name="slash" unicode="/" horiz-adv-x="425" 
d="M-26 -212l364 909h113l-365 -909h-112z" />
    <glyph glyph-name="zero" unicode="0" horiz-adv-x="592" 
d="M299 -10q-64 0 -111.5 24.5t-73 60t-40.5 88t-19 95t-4 93.5t3.5 92.5t18.5 93.5t39.5 87.5t71.5 60t111 24.5q247 0 247 -359q0 -360 -243 -360zM297 120q35 0 57 18.5t31.5 55t12.5 70.5t3 85q0 53 -3 87t-12.5 70.5t-32.5 54.5t-58 18q-28 0 -48.5 -13.5t-31 -33
t-16.5 -53t-7.5 -61.5t-1.5 -70q0 -40 1.5 -67.5t7.5 -60.5t17 -53t31.5 -33.5t49.5 -13.5z" />
    <glyph glyph-name="one" unicode="1" horiz-adv-x="592" 
d="M274 697h135v-697h-135v480h-160v109h86q74 0 74 71v37z" />
    <glyph glyph-name="two" unicode="2" horiz-adv-x="592" 
d="M274 128h269v-128h-490v110q327 197 327 366q0 45 -22.5 72t-67.5 27q-56 0 -80.5 -40t-27.5 -97l-133 10q0 65 27 122.5t84 96.5t133 39q98 0 160 -61.5t62 -161.5q0 -99 -70 -197.5t-171 -157.5z" />
    <glyph glyph-name="three" unicode="3" horiz-adv-x="592" 
d="M291 -10q-111 0 -187 60.5t-76 173.5l135 8q0 -53 37 -82.5t95 -29.5q53 0 88 25t35 77q0 26 -10.5 44t-23.5 26.5t-38.5 13t-40 5t-44.5 0.5v106q67 0 93.5 20.5t26.5 57.5q0 40 -25.5 61.5t-65.5 21.5q-43 0 -68 -24t-26 -66l-134 9q0 96 67 153t163 57q93 0 159 -52.5
t66 -140.5q0 -92 -74 -134q111 -41 111 -168q0 -105 -77 -163.5t-186 -58.5z" />
    <glyph glyph-name="four" unicode="4" horiz-adv-x="592" 
d="M466 293h111v-129h-111v-164h-135v164h-319v80l337 453h117v-404zM182 293h149v210z" />
    <glyph glyph-name="five" unicode="5" horiz-adv-x="592" 
d="M310 483q105 0 173 -70t68 -168q0 -103 -74 -179.5t-185 -76.5q-100 0 -172.5 62t-84.5 153l133 22q4 -42 35.5 -74.5t86.5 -32.5q58 0 87.5 37.5t29.5 88.5q0 48 -28 80t-87 32q-74 0 -110 -60l-126 31l68 369h396v-129h-285l-20 -107q42 22 95 22z" />
    <glyph glyph-name="six" unicode="6" horiz-adv-x="592" 
d="M318 475q104 0 171 -68t67 -171q0 -108 -75 -177.5t-183 -69.5t-184 69.5t-76 176.5q0 69 40 132l207 330h156l-149 -223q9 1 26 1zM298 119q52 0 86.5 31.5t34.5 85.5q0 53 -34.5 85t-86.5 32q-53 0 -87 -31.5t-34 -85.5t34 -85.5t87 -31.5z" />
    <glyph glyph-name="seven" unicode="7" horiz-adv-x="592" 
d="M47 697h504v-70l-300 -627h-156l285 568h-333v129z" />
    <glyph glyph-name="eight" unicode="8" horiz-adv-x="592" 
d="M296 -11q-111 0 -188 57.5t-77 162.5q0 114 93 170q-60 49 -60 127q0 91 68.5 146.5t163.5 55.5t163.5 -55.5t68.5 -146.5q0 -78 -60 -127q92 -55 92 -170q0 -105 -76.5 -162.5t-187.5 -57.5zM296 417q43 0 69.5 21.5t26.5 58.5t-26 59t-70 22t-70.5 -22t-26.5 -59
t26.5 -58.5t70.5 -21.5zM296 118q58 0 93.5 27t35.5 77q0 49 -35.5 76t-93.5 27t-93.5 -27t-35.5 -76q0 -50 35.5 -77t93.5 -27z" />
    <glyph glyph-name="nine" unicode="9" horiz-adv-x="592" 
d="M295 708q109 0 184.5 -69.5t75.5 -175.5q0 -71 -39 -132l-208 -331h-156l148 223q-8 -1 -24 -1q-105 0 -172 68.5t-67 171.5q0 108 75 177t183 69zM295 345q53 0 87.5 31.5t34.5 85.5q0 53 -34.5 84.5t-87.5 31.5q-52 0 -86 -31.5t-34 -84.5q0 -54 34 -85.5t86 -31.5z
" />
    <glyph glyph-name="colon" unicode=":" horiz-adv-x="322" 
d="M89 334v137h144v-137h-144zM89 0v136h144v-136h-144z" />
    <glyph glyph-name="semicolon" unicode=";" horiz-adv-x="316" 
d="M104 334v137h145v-137h-145zM45 -147l60 278h154l-124 -278h-90z" />
    <glyph glyph-name="less" unicode="&#x3c;" horiz-adv-x="638" 
d="M557 -25l-551 315l551 313l50 -89l-394 -224l394 -225z" />
    <glyph glyph-name="equal" unicode="=" horiz-adv-x="605" 
d="M95 391v113h415v-113h-415zM95 162v113h415v-113h-415z" />
    <glyph glyph-name="greater" unicode="&#x3e;" horiz-adv-x="638" 
d="M81 -25l-50 90l394 225l-394 224l50 89l551 -313z" />
    <glyph glyph-name="question" unicode="?" horiz-adv-x="477" 
d="M177 213v49q0 48 16.5 81.5t40.5 52t48 33.5t40.5 36t16.5 50q0 80 -101 80q-108 0 -108 -112h-119q0 106 61.5 165.5t164.5 59.5q94 0 157 -50t63 -145q0 -42 -12 -74.5t-30.5 -50.5t-40 -34.5t-40 -28.5t-30.5 -29.5t-12 -39.5v-43h-115zM165 0v136h143v-136h-143z" />
    <glyph glyph-name="at" unicode="@" horiz-adv-x="970" 
d="M482 -172q-123 0 -223 49.5t-161 148t-61 229.5q0 194 126 322.5t327 128.5q202 0 324.5 -127.5t122.5 -308.5q0 -125 -61 -209.5t-169 -84.5q-84 0 -118 53q-16 23 -20 54q-53 -63 -139 -63q-83 0 -127.5 57.5t-44.5 142.5q0 71 28.5 140t85.5 117t128 48
q43 0 74.5 -17.5t44.5 -47.5l9 41h109q-9 -49 -28 -131t-30.5 -142t-11.5 -94q0 -30 11.5 -42t35.5 -12q42 0 70 30t38 69.5t10 86.5q0 143 -92.5 239.5t-247.5 96.5q-158 0 -253.5 -98t-95.5 -248q0 -152 97.5 -237.5t239.5 -85.5q67 0 119 23l37 -100q-72 -28 -154 -28z
M441 128q63 0 103.5 58.5t40.5 131.5q0 99 -80 99q-65 0 -104.5 -59.5t-39.5 -130.5q0 -99 80 -99z" />
    <glyph glyph-name="A" unicode="A" horiz-adv-x="662" 
d="M514 0l-49 131h-268l-49 -131h-154l285 697h105l283 -697h-153zM246 261h171l-85 227z" />
    <glyph glyph-name="B" unicode="B" horiz-adv-x="624" 
d="M80 0v697h251q106 0 165.5 -46.5t59.5 -129.5q0 -98 -72 -143q110 -45 110 -171q0 -97 -61 -152t-168 -55h-285zM221 428h110q84 0 84 71q0 69 -84 69h-110v-140zM221 130h133q49 0 74 22.5t25 62.5q0 82 -99 82h-133v-167z" />
    <glyph glyph-name="C" unicode="C" horiz-adv-x="704" 
d="M375 -17q-156 0 -250 100t-94 266q0 167 93.5 266.5t249.5 99.5q113 0 195 -54t120 -154l-130 -51q-44 125 -185 125q-96 0 -149 -60t-53 -171q0 -110 53.5 -171t149.5 -61q143 0 184 128l132 -50q-37 -102 -119.5 -157.5t-196.5 -55.5z" />
    <glyph glyph-name="D" unicode="D" horiz-adv-x="680" 
d="M80 0v697h206q174 0 269.5 -92.5t95.5 -261.5q0 -167 -94 -255t-272 -88h-205zM221 130h50q124 0 181 49t57 170q0 117 -55.5 168t-170.5 51h-62v-438z" />
    <glyph glyph-name="E" unicode="E" horiz-adv-x="601" 
d="M80 0v697h466v-129h-325v-143h305v-130h-305v-165h325v-130h-466z" />
    <glyph glyph-name="F" unicode="F" horiz-adv-x="598" 
d="M80 0v697h500v-129h-359v-143h317v-130h-317v-295h-141z" />
    <glyph glyph-name="G" unicode="G" horiz-adv-x="747" 
d="M398 382h294v-382h-99l-16 70q-63 -87 -203 -87q-153 0 -249 101t-96 262t95.5 265t249.5 104q108 0 191.5 -54t122.5 -154l-130 -51q-22 61 -71 93t-115 32q-94 0 -148 -60.5t-54 -171.5q0 -113 57.5 -172t156.5 -59q79 0 123 35t44 92v10h-153v127z" />
    <glyph glyph-name="H" unicode="H" horiz-adv-x="729" 
d="M80 0v697h141v-273h288v273h141v-697h-141v295h-288v-295h-141z" />
    <glyph glyph-name="I" unicode="I" horiz-adv-x="300" 
d="M80 0v697h141v-697h-141z" />
    <glyph glyph-name="J" unicode="J" horiz-adv-x="552" 
d="M247 -17q-104 0 -168.5 63.5t-71.5 174.5l139 16q4 -65 28 -94t73 -29q52 0 75 33.5t23 100.5v320h-257v129h398v-457q0 -119 -64.5 -188t-174.5 -69z" />
    <glyph glyph-name="K" unicode="K" horiz-adv-x="702" 
d="M703 0h-163l-200 334l-119 -121v-213h-141v697h141v-307l293 307h185l-263 -267z" />
    <glyph glyph-name="L" unicode="L" horiz-adv-x="515" 
d="M80 0v697h141v-567h292v-130h-433z" />
    <glyph glyph-name="M" unicode="M" horiz-adv-x="892" 
d="M611 697h202v-697h-141v498l-158 -436h-136l-157 433v-495h-141v697h201l164 -469z" />
    <glyph glyph-name="N" unicode="N" horiz-adv-x="723" 
d="M502 697h141v-697h-145l-277 455v-455h-141v697h144l278 -452v452z" />
    <glyph glyph-name="O" unicode="O" horiz-adv-x="735" 
d="M367 -17q-150 0 -243.5 101t-93.5 264q0 165 93.5 265.5t243.5 100.5q152 0 245 -100.5t93 -265.5q0 -164 -93.5 -264.5t-244.5 -100.5zM367 118q90 0 143 62t53 168q0 107 -53 169t-143 62t-143 -62t-53 -169t53 -168.5t143 -61.5z" />
    <glyph glyph-name="P" unicode="P" horiz-adv-x="569" 
d="M80 0v697h236q240 0 240 -203q0 -103 -61 -156t-179 -53h-96v-285h-140zM220 414h82q59 0 86 17.5t27 60.5t-26 59.5t-87 16.5h-82v-154z" />
    <glyph glyph-name="Q" unicode="Q" horiz-adv-x="760" 
d="M744 22l-85 -83l-102 99q-81 -55 -191 -55q-150 0 -243.5 100.5t-93.5 264.5q0 165 93.5 265.5t243.5 100.5q152 0 245 -100.5t93 -265.5q0 -132 -63 -226zM366 118q47 0 88 19l-84 81l83 87l84 -82q25 55 25 125q0 107 -53 169t-143 62t-143 -62t-53 -169t53 -168.5
t143 -61.5z" />
    <glyph glyph-name="R" unicode="R" horiz-adv-x="618" 
d="M618 0h-163l-164 283h-41h-30v-283h-140v697h236q240 0 240 -203q0 -148 -125 -193zM220 413h82q55 0 84 16.5t29 62.5t-28.5 61t-84.5 15h-82v-155z" />
    <glyph glyph-name="S" unicode="S" horiz-adv-x="552" 
d="M286 -14q-107 0 -182.5 59t-91.5 156l140 35q6 -60 42.5 -92.5t93.5 -32.5q47 0 75.5 22.5t28.5 63.5q0 30 -29 53.5t-102 52.5q-111 45 -155.5 92.5t-44.5 124.5q0 86 61.5 140t160.5 54q150 0 216 -131l-117 -73q-33 79 -103 79q-32 0 -54.5 -19t-22.5 -47
q0 -30 28 -52.5t105 -52.5q112 -44 155 -89t43 -119q0 -100 -69.5 -162t-177.5 -62z" />
    <glyph glyph-name="T" unicode="T" horiz-adv-x="567" 
d="M213 0v568h-211v129h564v-129h-211v-568h-142z" />
    <glyph glyph-name="U" unicode="U" horiz-adv-x="673" 
d="M336 -17q-271 0 -271 269v445h141v-429q0 -83 28 -117.5t102 -34.5t102.5 35t28.5 116v430h141v-440q0 -274 -272 -274z" />
    <glyph glyph-name="V" unicode="V" horiz-adv-x="654" 
d="M503 697h156l-279 -697h-105l-280 697h156l177 -465z" />
    <glyph glyph-name="W" unicode="W" horiz-adv-x="986" 
d="M213 0l-211 697h147l141 -480l143 439h120l144 -439l140 480h148l-212 -697h-137l-143 433l-144 -433h-136z" />
    <glyph glyph-name="X" unicode="X" horiz-adv-x="660" 
d="M3 0l230 347l-230 350h169l159 -252l159 252h168l-230 -350l231 -347h-169l-160 246l-158 -246h-169z" />
    <glyph glyph-name="Y" unicode="Y" horiz-adv-x="644" 
d="M253 0v274l-265 423h166l166 -288l169 288h167l-262 -423v-274h-141z" />
    <glyph glyph-name="Z" unicode="Z" horiz-adv-x="616" 
d="M587 697v-101l-372 -466h372v-130h-566v97l377 471h-354v129h543z" />
    <glyph glyph-name="bracketleft" unicode="[" horiz-adv-x="306" 
d="M77 -87v869h221v-90h-112v-687h112v-92h-221z" />
    <glyph glyph-name="backslash" unicode="\" horiz-adv-x="425" 
d="M453 -212h-112l-365 909h113z" />
    <glyph glyph-name="bracketright" unicode="]" horiz-adv-x="305" 
d="M8 -87v92h112v687h-112v90h221v-869h-221z" />
    <glyph glyph-name="asciicircum" unicode="^" horiz-adv-x="609" 
d="M11 202l293 541l295 -541h-143l-152 288l-149 -288h-144z" />
    <glyph glyph-name="underscore" unicode="_" horiz-adv-x="546" 
d="M61 -103v103h425v-103h-425z" />
    <glyph glyph-name="grave" unicode="`" horiz-adv-x="260" 
d="M148 555l-147 142h144l104 -142h-101z" />
    <glyph glyph-name="a" unicode="a" horiz-adv-x="526" 
d="M259 504q101 0 159.5 -51.5t58.5 -140.5v-312h-124l-10 57q-48 -68 -140 -68q-80 0 -132 46.5t-52 119.5q0 87 71 123q46 23 122 23h130v11q0 34 -23.5 54t-65.5 20q-69 0 -126 -64l-98 82q88 100 230 100zM225 101q48 0 82 29t35 71h-111q-42 0 -59 -13q-18 -12 -18 -35
t18.5 -37.5t52.5 -14.5z" />
    <glyph glyph-name="b" unicode="b" horiz-adv-x="565" 
d="M337 504q88 0 145.5 -69t57.5 -188q0 -114 -54.5 -186t-150.5 -72q-86 0 -135 53v-42h-136v697h136v-248q52 55 137 55zM301 116q104 0 104 130q0 134 -106 134q-58 0 -85 -37.5t-27 -96.5t28 -94.5t86 -35.5z" />
    <glyph glyph-name="c" unicode="c" horiz-adv-x="488" 
d="M264 -11q-118 0 -181 75.5t-63 180.5q0 106 63 182.5t180 76.5q161 0 216 -148l-128 -51q-8 37 -31.5 59t-56.5 22q-54 0 -79 -40.5t-25 -100.5q0 -59 24.5 -98t78.5 -39q33 0 57.5 21t32.5 57l122 -48q-25 -70 -80.5 -109.5t-129.5 -39.5z" />
    <glyph glyph-name="d" unicode="d" horiz-adv-x="565" 
d="M366 697h135v-697h-135v44q-47 -55 -136 -55q-96 0 -150.5 72t-54.5 186q0 119 57.5 188t147.5 69q40 0 76.5 -15t59.5 -41v249zM265 116q58 0 85.5 35.5t27.5 94.5t-27 96.5t-85 37.5q-51 0 -78 -35t-27 -99q0 -130 104 -130z" />
    <glyph glyph-name="e" unicode="e" horiz-adv-x="513" 
d="M491 248q0 -20 -3 -47h-331q5 -41 33 -65t79 -24q68 0 111 51l94 -83q-82 -91 -206 -91q-123 0 -184.5 74t-61.5 181q0 106 60 183t178 77q111 0 171 -71.5t60 -184.5zM156 304h206q-1 40 -30.5 63.5t-72.5 23.5q-47 0 -72.5 -26t-30.5 -61z" />
    <glyph glyph-name="f" unicode="f" horiz-adv-x="329" 
d="M93 0v387h-91v106h92v50q0 165 156 165q49 0 98 -21l-43 -104q-21 12 -40 12q-37 0 -37 -52v-50h107v-106h-107v-387h-135z" />
    <glyph glyph-name="g" unicode="g" horiz-adv-x="511" 
d="M257 80q34 -4 51.5 -6.5t47 -8.5t45 -12t36 -16.5t30 -24t17 -32.5t7.5 -43q0 -78 -63 -117.5t-168 -39.5q-109 0 -172.5 41.5t-63.5 115.5q0 15 3 27l72 36q-61 34 -61 106q0 59 43 100q-39 47 -39 112q0 81 60.5 133.5t146.5 52.5q63 0 113 -29l77 66l71 -85l-72 -59
q19 -40 19 -84q0 -81 -58 -131t-146 -50q-53 0 -95 18q-8 -10 -8 -22q0 -23 26 -32.5t81 -15.5zM251 391q-34 0 -53.5 -20.5t-19.5 -53.5q0 -34 18.5 -55.5t54.5 -21.5q35 0 53 21.5t18 55.5t-19 54t-52 20zM266 -120q90 0 90 39q0 6 -2 11t-7 8.5t-9.5 6.5t-13 5.5t-15 4.5
t-18.5 3.5t-18.5 2.5t-20.5 2.5t-21 2.5q-10 1 -35 5l-36 -35q-1 -2 -1 -7q0 -24 29.5 -36.5t77.5 -12.5z" />
    <glyph glyph-name="h" unicode="h" horiz-adv-x="574" 
d="M344 504q84 0 131 -48t47 -133v-323h-135v289q0 97 -86 97q-57 0 -79 -46.5t-22 -151.5v-188h-136v697h136v-255q47 62 144 62z" />
    <glyph glyph-name="i" unicode="i" horiz-adv-x="262" 
d="M61 574v123h140v-123h-140zM63 0v493h136v-493h-136z" />
    <glyph glyph-name="j" unicode="j" horiz-adv-x="264" 
d="M62 574v123h140v-123h-140zM75 -215q-40 0 -86 16l-1 108q22 -6 40 -6t27 7.5t9 27.5v555h136v-575q0 -66 -34 -99.5t-91 -33.5z" />
    <glyph glyph-name="k" unicode="k" horiz-adv-x="549" 
d="M64 0v697h136v-385l161 181h181l-182 -188l201 -305h-161l-136 217l-64 -73v-144h-136z" />
    <glyph glyph-name="l" unicode="l" horiz-adv-x="278" 
d="M180 -11q-55 0 -88.5 33.5t-33.5 99.5v575h135v-561q0 -29 32 -29q13 0 35 5v-107q-42 -16 -80 -16z" />
    <glyph glyph-name="m" unicode="m" horiz-adv-x="851" 
d="M627 504q84 0 128.5 -55.5t44.5 -132.5v-316h-135v275q0 111 -77 111q-16 0 -29.5 -3.5t-22.5 -12.5t-15.5 -17.5t-10.5 -24t-6.5 -26.5t-3 -31t-1 -31t0 -33.5t0.5 -32.5v-174h-135v276q0 110 -75 110q-17 0 -30 -3.5t-22.5 -12.5t-16.5 -17t-11 -24t-6.5 -26.5
t-3 -31.5t-1 -31t0 -34t0.5 -32v-174h-136l-1 493h131v-62q43 73 131 73q104 0 143 -98q52 98 159 98z" />
    <glyph glyph-name="n" unicode="n" horiz-adv-x="573" 
d="M343 504q84 0 131 -48t47 -133v-323h-135v280q0 16 -0.5 25.5t-5 27t-12.5 27.5t-25.5 18t-41.5 8q-29 0 -49.5 -12t-30.5 -27t-15.5 -42.5t-6 -44t-0.5 -46.5v-214h-136v493h136v-51q49 62 144 62z" />
    <glyph glyph-name="o" unicode="o" horiz-adv-x="538" 
d="M269 -11q-113 0 -181.5 75.5t-68.5 182.5q0 108 68 182.5t182 74.5q113 0 181.5 -74.5t68.5 -182.5q0 -107 -69 -182.5t-181 -75.5zM269 108q60 0 87.5 39.5t27.5 99.5q0 61 -27 100t-88 39q-60 0 -87.5 -39.5t-27.5 -99.5t27.5 -99.5t87.5 -39.5z" />
    <glyph glyph-name="p" unicode="p" horiz-adv-x="565" 
d="M335 504q97 0 151 -72.5t54 -185.5q0 -120 -58 -188.5t-147 -68.5q-39 0 -75.5 15t-59.5 40v-248h-136v697h136v-42q49 53 135 53zM299 108q106 0 106 139q0 138 -104 138q-114 0 -114 -138q0 -63 27.5 -101t84.5 -38z" />
    <glyph glyph-name="q" unicode="q" horiz-adv-x="565" 
d="M366 493h135v-697h-135v249q-23 -26 -60 -41t-76 -15q-89 0 -146.5 68.5t-57.5 188.5q0 114 53.5 186t150.5 72q89 0 136 -54v43zM266 108q58 0 85 38t27 101q0 138 -113 138q-104 0 -104 -138q0 -139 105 -139z" />
    <glyph glyph-name="r" unicode="r" horiz-adv-x="406" 
d="M328 504q49 0 96 -30l-65 -121q-26 17 -62 17q-98 0 -98 -131v-239h-136v493h137v-78q16 41 51.5 65t76.5 24z" />
    <glyph glyph-name="s" unicode="s" horiz-adv-x="441" 
d="M220 -11q-76 0 -133 41.5t-75 99.5l107 48q9 -22 16 -35.5t29 -28t53 -14.5q34 0 50.5 13.5t16.5 31.5q0 20 -25 33t-61 23t-72.5 24t-61.5 47t-25 83q0 73 53.5 111t129.5 38q129 0 191 -108l-104 -58q-35 63 -90 63q-24 0 -38 -10t-14 -25q0 -19 25.5 -30.5t62.5 -20.5
t74 -23.5t62.5 -48t25.5 -84.5q0 -83 -59.5 -126.5t-137.5 -43.5z" />
    <glyph glyph-name="t" unicode="t" horiz-adv-x="372" 
d="M343 387h-124v-228q0 -58 62 -58q27 0 62 11v-107q-45 -16 -95 -16q-72 0 -118 38.5t-46 120.5v239h-80v106h80v84l135 100v-184h124v-106z" />
    <glyph glyph-name="u" unicode="u" horiz-adv-x="572" 
d="M373 493h136v-493h-136v53q-50 -64 -142 -64q-91 0 -135.5 54.5t-44.5 143.5v306h135v-276q0 -20 2 -35t9.5 -34t26.5 -29.5t48 -10.5q24 0 42 7.5t29 25t17.5 33.5t9 45t3 47t0.5 52v175z" />
    <glyph glyph-name="v" unicode="v" horiz-adv-x="489" 
d="M189 0l-201 493h148l108 -316l111 316h146l-201 -493h-111z" />
    <glyph glyph-name="w" unicode="w" horiz-adv-x="716" 
d="M150 0l-154 493h144l78 -285l82 285h115l82 -283l78 283h145l-155 -493h-120l-87 301l-86 -301h-122z" />
    <glyph glyph-name="x" unicode="x" horiz-adv-x="506" 
d="M-3 0l166 249l-166 244h166l90 -152l90 152h166l-167 -244l167 -249h-166l-90 156l-90 -156h-166z" />
    <glyph glyph-name="y" unicode="y" horiz-adv-x="504" 
d="M87 -204l90 219l-189 478h150l111 -323l119 323h149l-283 -697h-147z" />
    <glyph glyph-name="z" unicode="z" horiz-adv-x="459" 
d="M204 114h225v-114h-405v89l235 291h-224v113h393v-95z" />
    <glyph glyph-name="braceleft" unicode="{" horiz-adv-x="297" 
d="M194 -80q-56 0 -84 38.5t-28 106.5v139q0 12 -2 22.5t-4 18t-8 14t-8.5 10t-11 8t-11 5.5t-12 5t-10.5 4v88q1 1 10.5 4.5t12 4.5t10.5 5t11 7.5t9 10t8 13.5t4 17t2 22v135q0 67 29 105.5t82 38.5h85v-86h-39q-42 0 -42 -60v-136q0 -50 -18 -77.5t-54 -45.5v-6
q72 -33 72 -124v-140q0 -59 44 -59h37v-88h-84z" />
    <glyph glyph-name="bar" unicode="|" horiz-adv-x="292" 
d="M96 -254v1000h100v-1000h-100z" />
    <glyph glyph-name="braceright" unicode="}" horiz-adv-x="297" 
d="M20 -80v88h37q44 0 44 59v140q0 91 72 124v6q-72 34 -72 123v136q0 60 -43 60h-38v86h85q53 0 82 -38.5t29 -105.5v-135q0 -10 1 -19t4.5 -16t5.5 -12.5t7.5 -10.5t8 -7.5t10 -6t9.5 -4.5t10.5 -4.5t9.5 -3.5v-88q-38 -15 -50 -30q-16 -20 -16 -57v-139
q0 -68 -28.5 -106.5t-84.5 -38.5h-83z" />
    <glyph glyph-name="asciitilde" unicode="~" horiz-adv-x="587" 
d="M381 159q-34 0 -59 11.5t-38.5 27.5t-24 32t-24 27.5t-30.5 11.5q-38 0 -38 -81h-103q0 77 38.5 124.5t102.5 47.5q35 0 60.5 -11.5t39.5 -28t24.5 -33t23 -28t28.5 -11.5q17 0 28.5 26.5t11.5 65.5h102q0 -81 -39 -131t-103 -50z" />
    <glyph glyph-name="uni00A0" unicode="&#xa0;" horiz-adv-x="278" 
 />
    <glyph glyph-name="exclamdown" unicode="&#xa1;" horiz-adv-x="303" 
d="M223 493v-136h-143v136h143zM203 278l15 -482h-134l16 482h103z" />
    <glyph glyph-name="cent" unicode="&#xa2;" horiz-adv-x="532" 
d="M282 108q33 0 57.5 21t32.5 57l122 -48q-20 -57 -61.5 -94.5t-97.5 -49.5v-106l-110 -1v108q-90 19 -137.5 89.5t-47.5 160.5q0 91 48 162.5t137 90.5v103h110v-102q120 -22 164 -143l-128 -51q-8 37 -31.5 59t-56.5 22q-54 0 -79 -40.5t-25 -100.5q0 -59 24.5 -98
t78.5 -39z" />
    <glyph glyph-name="sterling" unicode="&#xa3;" horiz-adv-x="587" 
d="M228 114h315v-114h-486v113q48 23 82.5 58.5t34.5 72.5q0 19 -5 44h-111v114h86q-19 53 -19 109q0 88 56 146t153 58q82 0 137.5 -42t69.5 -112l-104 -40q-6 42 -34 61.5t-67 19.5q-46 0 -72 -24t-26 -70q0 -58 23 -106h191v-114h-170q3 -12 3 -45q0 -88 -57 -129z" />
    <glyph glyph-name="currency" unicode="&#xa4;" horiz-adv-x="644" 
d="M141 58l-71 74l53 53q-37 57 -36.5 126t36.5 126l-52 51l72 76l53 -56q58 38 127 38.5t125 -36.5l53 53l73 -72l-53 -53q37 -58 37 -127t-37 -127l53 -52l-72 -74l-54 54q-57 -37 -126 -37t-128 37zM225 216q41 -40 97 -39.5t94 39.5q40 41 40.5 94.5t-40.5 94.5
q-40 40 -95 39.5t-95 -40.5q-37 -38 -37.5 -95t36.5 -93z" />
    <glyph glyph-name="yen" unicode="&#xa5;" horiz-adv-x="691" 
d="M273 0v102h-150v110h150v56h-150v110h85l-196 319h171l162 -288l162 288h172l-195 -319h83v-110h-147v-56h147v-110h-147v-102h-147z" />
    <glyph glyph-name="brokenbar" unicode="&#xa6;" horiz-adv-x="304" 
d="M96 330v416h112v-416h-112zM96 -254v409h112v-409h-112z" />
    <glyph glyph-name="section" unicode="&#xa7;" horiz-adv-x="584" 
d="M284 -221q-67 0 -124 31t-92 94l118 72q15 -33 43.5 -52t59.5 -19q33 0 55 17.5t22 45.5q0 24 -20.5 44t-39.5 28.5t-63 25.5q-7 3 -10 4q-35 14 -56 23t-51.5 28t-47.5 39t-30 52t-13 70q0 89 61 147q-19 35 -19 83q0 91 64.5 143.5t158.5 52.5q69 0 125.5 -31.5
t90.5 -93.5l-118 -72q-16 33 -44 52.5t-59 19.5q-34 0 -55.5 -17.5t-21.5 -46.5q0 -15 8 -28t17.5 -21.5t31 -19.5t34 -16t41.5 -16q36 -14 56.5 -23t51.5 -28t48 -39t30 -51.5t13 -69.5q0 -90 -60 -148q18 -36 18 -84q0 -92 -64 -144t-159 -52zM394 150q14 18 14 44
q0 20 -9.5 36.5t-31.5 30t-39 21.5t-50 21q-1 0 -33 12t-55 23q-14 -17 -14 -44t20.5 -48.5t43 -32.5t67.5 -29q85 -33 87 -34z" />
    <glyph glyph-name="dieresis" unicode="&#xa8;" horiz-adv-x="429" 
d="M61 574v123h108v-123h-108zM261 574v123h107v-123h-107z" />
    <glyph glyph-name="copyright" unicode="&#xa9;" horiz-adv-x="836" 
d="M419 -15q-160 0 -270 103t-110 260t110.5 260.5t269.5 103.5t269 -103.5t110 -260.5t-110 -260t-269 -103zM419 70q124 0 209.5 78.5t85.5 199.5q0 122 -85.5 200.5t-209.5 78.5q-125 0 -210.5 -78.5t-85.5 -200.5q0 -121 85.5 -199.5t210.5 -78.5zM429 143
q-94 0 -144.5 60.5t-50.5 143.5q0 85 50.5 146t143.5 61q129 0 175 -120l-106 -40q-6 25 -24.5 42t-44.5 17q-41 0 -61.5 -31t-20.5 -75q0 -43 20 -73t62 -30q26 0 44.5 16t25.5 42l100 -39q-20 -56 -64 -88t-105 -32z" />
    <glyph glyph-name="ordfeminine" unicode="&#xaa;" horiz-adv-x="416" 
d="M168 350q-53 0 -89 30.5t-36 80.5q0 54 37.5 80.5t97.5 26.5h95q0 16 -3 26q-14 41 -67 41q-50 0 -88 -51l-62 42q57 82 149 82q69 0 108.5 -38.5t39.5 -102.5v-209h-71l-2 36q-44 -44 -109 -44zM184 423q51 0 76 39q10 14 13 35h-89q-26 0 -40.5 -10t-14.5 -27
q0 -15 15.5 -26t39.5 -11z" />
    <glyph glyph-name="guillemotleft" unicode="&#xab;" horiz-adv-x="570" 
d="M246 46l-253 206l253 207v-138l-96 -69l96 -69v-137zM505 46l-252 206l252 207v-138l-96 -69l96 -69v-137z" />
    <glyph glyph-name="logicalnot" unicode="&#xac;" horiz-adv-x="627" 
d="M403 143v130h-344v120h473v-250h-129z" />
    <glyph glyph-name="uni00AD" unicode="&#xad;" horiz-adv-x="486" 
d="M61 243v101h364v-101h-364z" />
    <glyph glyph-name="registered" unicode="&#xae;" horiz-adv-x="836" 
d="M419 -15q-160 0 -270 103t-110 260t110.5 260.5t269.5 103.5t269 -103.5t110 -260.5t-110 -260t-269 -103zM419 70q124 0 209.5 78.5t85.5 199.5q0 122 -85.5 200.5t-209.5 78.5q-125 0 -210.5 -78.5t-85.5 -200.5q0 -121 85.5 -199.5t210.5 -78.5zM290 145v408h137
q63 0 104 -34.5t41 -89.5q0 -34 -20.5 -63t-54.5 -43l112 -178h-102l-97 170h-20h-11v-170h-89zM379 387h56q48 5 48 41q0 45 -55 45h-49v-86z" />
    <glyph glyph-name="macron" unicode="&#xaf;" horiz-adv-x="397" 
d="M60 556v79h277v-79h-277z" />
    <glyph glyph-name="degree" unicode="&#xb0;" horiz-adv-x="409" 
d="M204 418q-59 0 -102 42.5t-43 102.5t43 102.5t102 42.5q60 0 103 -42.5t43 -102.5t-43 -102.5t-103 -42.5zM204 509q24 0 40 15.5t16 38.5t-16 38.5t-40 15.5q-22 0 -38 -15.5t-16 -38.5t15.5 -38.5t38.5 -15.5z" />
    <glyph glyph-name="plusminus" unicode="&#xb1;" horiz-adv-x="634" 
d="M266 93v205h-223v102h223v204h102v-204h222v-102h-222v-205h-102zM43 -103v103h549v-103h-549z" />
    <glyph glyph-name="acute" unicode="&#xb4;" horiz-adv-x="268" 
d="M9 555l112 142h145l-159 -142h-98z" />
    <glyph glyph-name="uni00B5" unicode="&#xb5;" horiz-adv-x="630" 
d="M96 -160v653h134v-276q0 -46 22.5 -74t67.5 -28q53 0 76 33.5t23 80.5v264h136v-493h-136v51q-56 -62 -132 -62q-51 0 -82 20v-169h-109z" />
    <glyph glyph-name="paragraph" unicode="&#xb6;" horiz-adv-x="616" 
d="M244 -121v428q-92 0 -158 53t-66 142t66 142t158 53h83v-818h-83zM436 -121v818h85v-818h-85z" />
    <glyph glyph-name="periodcentered" unicode="&#xb7;" horiz-adv-x="283" 
d="M141 290q-32 0 -53.5 22t-21.5 54q0 31 22 52.5t53 21.5t53 -21.5t22 -52.5q0 -32 -21.5 -54t-53.5 -22z" />
    <glyph glyph-name="cedilla" unicode="&#xb8;" horiz-adv-x="264" 
d="M118 -259q-31 0 -58 18t-40 46l75 31q7 -18 26 -18q15 0 24.5 9.5t9.5 23.5q0 24 -22.5 38.5t-58.5 13.5h-31l61 96h80l-38 -44q19 -3 28 -7q60 -23 60 -91q0 -49 -33.5 -82.5t-82.5 -33.5z" />
    <glyph glyph-name="ordmasculine" unicode="&#xba;" horiz-adv-x="433" 
d="M217 351q-79 0 -128.5 51.5t-49.5 126.5q0 74 50 126.5t128 52.5q77 0 127 -52.5t50 -126.5q0 -75 -50 -126.5t-127 -51.5zM217 427q87 0 87 102t-87 102q-88 0 -88 -102t88 -102z" />
    <glyph glyph-name="guillemotright" unicode="&#xbb;" horiz-adv-x="572" 
d="M67 46v137l96 69l-96 69v138l252 -207zM327 46v137l96 69l-96 69v138l252 -207z" />
    <glyph glyph-name="questiondown" unicode="&#xbf;" horiz-adv-x="476" 
d="M312 493v-136h-143v136h143zM300 280v-49q0 -40 -12 -70.5t-30 -47.5t-39 -32.5t-39 -27.5t-30 -31t-12 -44q0 -80 101 -80q108 0 108 112h119q0 -106 -61.5 -165.5t-164.5 -59.5q-94 0 -157 50t-63 145q0 50 17 86t41 55.5t48.5 35.5t41.5 35.5t17 44.5v43h115z" />
    <glyph glyph-name="Agrave" unicode="&#xc0;" horiz-adv-x="662" 
d="M382 759h-101l-147 142h144zM514 0l-49 131h-268l-49 -131h-154l285 697h105l283 -697h-153zM246 261h171l-85 227z" />
    <glyph glyph-name="Aacute" unicode="&#xc1;" horiz-adv-x="662" 
d="M540 901l-159 -142h-98l112 142h145zM514 0l-49 131h-268l-49 -131h-154l285 697h105l283 -697h-153zM246 261h171l-85 227z" />
    <glyph glyph-name="Acircumflex" unicode="&#xc2;" horiz-adv-x="662" 
d="M332 807l-55 -64h-103l158 179l158 -179h-104zM514 0l-49 131h-268l-49 -131h-154l285 697h105l283 -697h-153zM246 261h171l-85 227z" />
    <glyph glyph-name="Atilde" unicode="&#xc3;" horiz-adv-x="662" 
d="M266 821q-26 0 -26 -64h-78q0 70 29.5 108.5t80.5 38.5q29 0 53 -16t41 -32.5t28 -16.5q25 0 25 62h81q0 -70 -28.5 -107.5t-78.5 -37.5q-26 0 -47.5 10t-33 22.5t-24 22.5t-22.5 10zM514 0l-49 131h-268l-49 -131h-154l285 697h105l283 -697h-153zM246 261h171l-85 227z
" />
    <glyph glyph-name="Adieresis" unicode="&#xc4;" horiz-adv-x="662" 
d="M286 901v-123h-108v123h108zM485 901v-123h-107v123h107zM514 0l-49 131h-268l-49 -131h-154l285 697h105l283 -697h-153zM246 261h171l-85 227z" />
    <glyph glyph-name="Aring" unicode="&#xc5;" horiz-adv-x="662" 
d="M514 0l-49 131h-268l-49 -131h-154l282 690q-29 16 -46 44t-17 61q0 49 35 84t84 35t84 -34.5t35 -84.5q0 -34 -17.5 -62.5t-46.5 -43.5l280 -689h-153zM332 841q-21 0 -33.5 -12.5t-12.5 -32.5q0 -21 13 -34.5t33 -13.5q21 0 34 13.5t13 34.5t-12.5 33t-34.5 12z
M246 261h171l-85 227z" />
    <glyph glyph-name="AE" unicode="&#xc6;" horiz-adv-x="927" 
d="M-6 0l284 697h603v-124h-340v-165h299v-119h-299v-161h340v-128h-482v148h-196l-55 -148h-154zM251 280h148v296h-36z" />
    <glyph glyph-name="Ccedilla" unicode="&#xc7;" horiz-adv-x="704" 
d="M691 196q-34 -95 -108 -149.5t-177 -62.5l-25 -29q26 -5 48 -19q40 -27 40 -78q0 -50 -33.5 -83.5t-85.5 -33.5q-46 0 -82 27l42 66q20 -16 44 -16q16 0 26 9.5t10 25.5q0 36 -45 45q-20 5 -67 5l52 82q-137 15 -218 113t-81 251q0 167 93.5 266.5t249.5 99.5
q113 0 195 -54t120 -154l-130 -51q-44 125 -185 125q-96 0 -149 -60t-53 -171q0 -110 53.5 -171t149.5 -61q143 0 184 128z" />
    <glyph glyph-name="Egrave" unicode="&#xc8;" horiz-adv-x="601" 
d="M262 759l-147 142h144l104 -142h-101zM80 0v697h466v-129h-325v-143h305v-130h-305v-165h325v-130h-466z" />
    <glyph glyph-name="Eacute" unicode="&#xc9;" horiz-adv-x="601" 
d="M264 759l112 142h145l-159 -142h-98zM80 0v697h466v-129h-325v-143h305v-130h-305v-165h325v-130h-466z" />
    <glyph glyph-name="Ecircumflex" unicode="&#xca;" horiz-adv-x="601" 
d="M155 743l158 179l158 -179h-104l-54 64l-55 -64h-103zM80 0v697h466v-129h-325v-143h305v-130h-305v-165h325v-130h-466z" />
    <glyph glyph-name="Edieresis" unicode="&#xcb;" horiz-adv-x="601" 
d="M159 778v123h108v-123h-108zM359 778v123h107v-123h-107zM80 0v697h466v-129h-325v-143h305v-130h-305v-165h325v-130h-466z" />
    <glyph glyph-name="Igrave" unicode="&#xcc;" horiz-adv-x="300" 
d="M100 759l-148 142h145l104 -142h-101zM80 0v697h141v-697h-141z" />
    <glyph glyph-name="Iacute" unicode="&#xcd;" horiz-adv-x="300" 
d="M102 759l112 142h145l-159 -142h-98zM80 0v697h141v-697h-141z" />
    <glyph glyph-name="Icircumflex" unicode="&#xce;" horiz-adv-x="300" 
d="M-8 743l159 179l158 -179h-104l-54 64l-55 -64h-104zM80 0v697h141v-697h-141z" />
    <glyph glyph-name="Idieresis" unicode="&#xcf;" horiz-adv-x="300" 
d="M-3 778v123h108v-123h-108zM197 778v123h107v-123h-107zM80 0v697h141v-697h-141z" />
    <glyph glyph-name="Eth" unicode="&#xd0;" horiz-adv-x="680" 
d="M286 697q174 0 269.5 -92.5t95.5 -261.5q0 -167 -94 -255t-272 -88h-205v305h-81v90h81v302h206zM271 130q124 0 181 49t57 170q0 117 -55.5 168t-170.5 51h-62v-173h117v-90h-117v-175h50z" />
    <glyph glyph-name="Ntilde" unicode="&#xd1;" horiz-adv-x="723" 
d="M297 821q-26 0 -26 -64h-78q0 70 29.5 108.5t80.5 38.5q29 0 53 -16t41 -32.5t28 -16.5q25 0 25 62h81q0 -70 -28.5 -107.5t-78.5 -37.5q-26 0 -47.5 10t-33 22.5t-24 22.5t-22.5 10zM502 697h141v-697h-145l-277 455v-455h-141v697h144l278 -452v452z" />
    <glyph glyph-name="Ograve" unicode="&#xd2;" horiz-adv-x="735" 
d="M317 759l-147 142h144l104 -142h-101zM367 -17q-150 0 -243.5 101t-93.5 264q0 165 93.5 265.5t243.5 100.5q152 0 245 -100.5t93 -265.5q0 -164 -93.5 -264.5t-244.5 -100.5zM367 118q90 0 143 62t53 168q0 107 -53 169t-143 62t-143 -62t-53 -169t53 -168.5t143 -61.5z
" />
    <glyph glyph-name="Oacute" unicode="&#xd3;" horiz-adv-x="735" 
d="M318 759l112 142h145l-159 -142h-98zM367 -17q-150 0 -243.5 101t-93.5 264q0 165 93.5 265.5t243.5 100.5q152 0 245 -100.5t93 -265.5q0 -164 -93.5 -264.5t-244.5 -100.5zM367 118q90 0 143 62t53 168q0 107 -53 169t-143 62t-143 -62t-53 -169t53 -168.5t143 -61.5z
" />
    <glyph glyph-name="Ocircumflex" unicode="&#xd4;" horiz-adv-x="735" 
d="M210 743l158 179l158 -179h-104l-54 64l-55 -64h-103zM367 -17q-150 0 -243.5 101t-93.5 264q0 165 93.5 265.5t243.5 100.5q152 0 245 -100.5t93 -265.5q0 -164 -93.5 -264.5t-244.5 -100.5zM367 118q90 0 143 62t53 168q0 107 -53 169t-143 62t-143 -62t-53 -169
t53 -168.5t143 -61.5z" />
    <glyph glyph-name="Otilde" unicode="&#xd5;" horiz-adv-x="735" 
d="M429 756q-26 0 -47.5 10t-33 22.5t-24 22.5t-22.5 10q-26 0 -26 -64h-78q0 70 29.5 108.5t80.5 38.5q29 0 53 -16t41 -32.5t28 -16.5q25 0 25 62h81q0 -70 -28.5 -107.5t-78.5 -37.5zM367 -17q-150 0 -243.5 101t-93.5 264q0 165 93.5 265.5t243.5 100.5
q152 0 245 -100.5t93 -265.5q0 -164 -93.5 -264.5t-244.5 -100.5zM367 118q90 0 143 62t53 168q0 107 -53 169t-143 62t-143 -62t-53 -169t53 -168.5t143 -61.5z" />
    <glyph glyph-name="Odieresis" unicode="&#xd6;" horiz-adv-x="735" 
d="M214 778v123h108v-123h-108zM414 778v123h107v-123h-107zM367 -17q-150 0 -243.5 101t-93.5 264q0 165 93.5 265.5t243.5 100.5q152 0 245 -100.5t93 -265.5q0 -164 -93.5 -264.5t-244.5 -100.5zM367 118q90 0 143 62t53 168q0 107 -53 169t-143 62t-143 -62t-53 -169
t53 -168.5t143 -61.5z" />
    <glyph glyph-name="multiply" unicode="&#xd7;" horiz-adv-x="516" 
d="M116 71l-79 77l142 144l-142 142l79 79l141 -143l143 143l79 -79l-142 -142l142 -144l-79 -77l-143 141z" />
    <glyph glyph-name="Oslash" unicode="&#xd8;" horiz-adv-x="735" 
d="M614 611q91 -99 91 -263t-93.5 -264.5t-244.5 -100.5q-104 0 -186 52l-27 -35h-96l64 85q-92 102 -92 263q0 165 93.5 265.5t243.5 100.5q107 0 188 -53l27 36h96zM171 348q0 -90 38 -148l263 350q-44 29 -105 29q-90 0 -143 -62t-53 -169zM367 118q90 0 143 62t53 168
q0 88 -37 147l-262 -349q45 -28 103 -28z" />
    <glyph glyph-name="Ugrave" unicode="&#xd9;" horiz-adv-x="673" 
d="M287 759l-147 142h144l104 -142h-101zM336 -17q-271 0 -271 269v445h141v-429q0 -83 28 -117.5t102 -34.5t102.5 35t28.5 116v430h141v-440q0 -274 -272 -274z" />
    <glyph glyph-name="Uacute" unicode="&#xda;" horiz-adv-x="673" 
d="M288 759l112 142h145l-159 -142h-98zM336 -17q-271 0 -271 269v445h141v-429q0 -83 28 -117.5t102 -34.5t102.5 35t28.5 116v430h141v-440q0 -274 -272 -274z" />
    <glyph glyph-name="Ucircumflex" unicode="&#xdb;" horiz-adv-x="673" 
d="M180 743l158 179l158 -179h-104l-54 64l-55 -64h-103zM336 -17q-271 0 -271 269v445h141v-429q0 -83 28 -117.5t102 -34.5t102.5 35t28.5 116v430h141v-440q0 -274 -272 -274z" />
    <glyph glyph-name="Udieresis" unicode="&#xdc;" horiz-adv-x="673" 
d="M184 778v123h108v-123h-108zM384 778v123h107v-123h-107zM336 -17q-271 0 -271 269v445h141v-429q0 -83 28 -117.5t102 -34.5t102.5 35t28.5 116v430h141v-440q0 -274 -272 -274z" />
    <glyph glyph-name="Yacute" unicode="&#xdd;" horiz-adv-x="644" 
d="M274 759l112 142h145l-159 -142h-98zM253 0v274l-265 423h166l166 -288l169 288h167l-262 -423v-274h-141z" />
    <glyph glyph-name="Thorn" unicode="&#xde;" horiz-adv-x="556" 
d="M80 0v697h128v-95h122q101 0 157 -52t56 -146q0 -99 -64.5 -154.5t-179.5 -55.5h-91v-194h-128zM208 311h91q116 0 116 89q0 92 -116 92h-91v-181z" />
    <glyph glyph-name="germandbls" unicode="&#xdf;" horiz-adv-x="642" 
d="M436 -11q-76 0 -133.5 41t-75.5 100l108 48q27 -76 97 -76q33 0 50 14t17 32q0 19 -24.5 31.5t-59.5 22t-69.5 23t-59 45t-24.5 79.5q0 42 19.5 72t47 44.5t55.5 24.5t47.5 21.5t19.5 27.5q0 21 -29.5 31.5t-71.5 10.5q-30 0 -54 -6t-39 -13.5t-25.5 -22t-15.5 -25
t-8 -29.5t-3 -27.5v-26.5v-431h-141v431q0 276 278 276q111 0 176.5 -41.5t65.5 -119.5q0 -54 -29.5 -91t-65 -51.5t-65 -28t-29.5 -25.5t24.5 -20t59.5 -16.5t69.5 -23t59 -48t24.5 -83.5q0 -83 -59 -126.5t-137 -43.5z" />
    <glyph glyph-name="agrave" unicode="&#xe0;" horiz-adv-x="526" 
d="M307 555h-101l-147 142h144zM259 504q101 0 159.5 -51.5t58.5 -140.5v-312h-124l-10 57q-48 -68 -140 -68q-80 0 -132 46.5t-52 119.5q0 87 71 123q46 23 122 23h130v11q0 34 -23.5 54t-65.5 20q-69 0 -126 -64l-98 82q88 100 230 100zM225 101q48 0 82 29t35 71h-111
q-42 0 -59 -13q-18 -12 -18 -35t18.5 -37.5t52.5 -14.5z" />
    <glyph glyph-name="aacute" unicode="&#xe1;" horiz-adv-x="526" 
d="M465 697l-159 -142h-98l112 142h145zM259 504q101 0 159.5 -51.5t58.5 -140.5v-312h-124l-10 57q-48 -68 -140 -68q-80 0 -132 46.5t-52 119.5q0 87 71 123q46 23 122 23h130v11q0 34 -23.5 54t-65.5 20q-69 0 -126 -64l-98 82q88 100 230 100zM225 101q48 0 82 29t35 71
h-111q-42 0 -59 -13q-18 -12 -18 -35t18.5 -37.5t52.5 -14.5z" />
    <glyph glyph-name="acircumflex" unicode="&#xe2;" horiz-adv-x="526" 
d="M257 603l-55 -64h-103l158 179l158 -179h-104zM259 504q101 0 159.5 -51.5t58.5 -140.5v-312h-124l-10 57q-48 -68 -140 -68q-80 0 -132 46.5t-52 119.5q0 87 71 123q46 23 122 23h130v11q0 34 -23.5 54t-65.5 20q-69 0 -126 -64l-98 82q88 100 230 100zM225 101
q48 0 82 29t35 71h-111q-42 0 -59 -13q-18 -12 -18 -35t18.5 -37.5t52.5 -14.5z" />
    <glyph glyph-name="atilde" unicode="&#xe3;" horiz-adv-x="526" 
d="M191 617q-26 0 -26 -64h-78q0 70 29.5 108.5t80.5 38.5q29 0 53 -16t41 -32.5t28 -16.5q25 0 25 62h81q0 -70 -28.5 -107.5t-78.5 -37.5q-26 0 -47.5 10t-33 22.5t-24 22.5t-22.5 10zM259 504q101 0 159.5 -51.5t58.5 -140.5v-312h-124l-10 57q-48 -68 -140 -68
q-80 0 -132 46.5t-52 119.5q0 87 71 123q46 23 122 23h130v11q0 34 -23.5 54t-65.5 20q-69 0 -126 -64l-98 82q88 100 230 100zM225 101q48 0 82 29t35 71h-111q-42 0 -59 -13q-18 -12 -18 -35t18.5 -37.5t52.5 -14.5z" />
    <glyph glyph-name="adieresis" unicode="&#xe4;" horiz-adv-x="526" 
d="M211 697v-123h-108v123h108zM410 697v-123h-107v123h107zM259 504q101 0 159.5 -51.5t58.5 -140.5v-312h-124l-10 57q-48 -68 -140 -68q-80 0 -132 46.5t-52 119.5q0 87 71 123q46 23 122 23h130v11q0 34 -23.5 54t-65.5 20q-69 0 -126 -64l-98 82q88 100 230 100z
M225 101q48 0 82 29t35 71h-111q-42 0 -59 -13q-18 -12 -18 -35t18.5 -37.5t52.5 -14.5z" />
    <glyph glyph-name="aring" unicode="&#xe5;" horiz-adv-x="526" 
d="M257 524q-50 0 -84.5 35.5t-34.5 83.5q0 49 35 84t84 35t84 -34.5t35 -84.5q0 -49 -35 -84t-84 -35zM257 689q-21 0 -33.5 -12.5t-12.5 -32.5q0 -21 13 -34.5t33 -13.5q21 0 34 13.5t13 34.5t-12.5 33t-34.5 12zM259 504q101 0 159.5 -51.5t58.5 -140.5v-312h-124l-10 57
q-48 -68 -140 -68q-80 0 -132 46.5t-52 119.5q0 87 71 123q46 23 122 23h130v11q0 34 -23.5 54t-65.5 20q-69 0 -126 -64l-98 82q88 100 230 100zM225 101q48 0 82 29t35 71h-111q-42 0 -59 -13q-18 -12 -18 -35t18.5 -37.5t52.5 -14.5z" />
    <glyph glyph-name="ae" unicode="&#xe6;" horiz-adv-x="813" 
d="M789 258q0 -27 -3 -57h-317q6 -42 27.5 -64t69.5 -22q70 0 112 48l94 -83q-44 -50 -93.5 -69.5t-113.5 -19.5q-117 0 -173 75h-15q-72 -77 -171 -77q-90 0 -139.5 45.5t-49.5 117.5q0 35 11.5 61.5t33.5 41.5t42.5 24.5t51 13t45.5 4t38 0.5h7h97v15q0 34 -23.5 54
t-63.5 20q-73 0 -126 -64l-98 82q93 100 235 100q110 0 162 -52q60 46 141 46q112 0 165.5 -64t53.5 -176zM467 299h197q0 33 -16 53q-23 34 -81 34q-51 0 -75.5 -26.5t-24.5 -60.5zM223 105q53 0 85 28t35 66h-89q-98 0 -98 -50q0 -19 17.5 -31.5t49.5 -12.5z" />
    <glyph glyph-name="ccedilla" unicode="&#xe7;" horiz-adv-x="488" 
d="M262 108q33 0 57.5 21t32.5 57l122 -48q-24 -67 -76 -106.5t-123 -42.5l-29 -34q26 -5 48 -19q40 -27 40 -78q0 -50 -33.5 -83.5t-85.5 -33.5q-46 0 -82 27l42 66q20 -16 44 -16q16 0 26 9.5t10 25.5q0 36 -45 45q-20 5 -67 5l58 93q-88 20 -134.5 90t-46.5 159
q0 106 63 182.5t180 76.5q161 0 216 -148l-128 -51q-8 37 -31.5 59t-56.5 22q-54 0 -79 -40.5t-25 -100.5q0 -59 24.5 -98t78.5 -39z" />
    <glyph glyph-name="egrave" unicode="&#xe8;" horiz-adv-x="513" 
d="M312 555h-101l-147 142h144zM491 248q0 -20 -3 -47h-331q5 -41 33 -65t79 -24q68 0 111 51l94 -83q-82 -91 -206 -91q-123 0 -184.5 74t-61.5 181q0 106 60 183t178 77q111 0 171 -71.5t60 -184.5zM156 304h206q-1 40 -30.5 63.5t-72.5 23.5q-47 0 -72.5 -26t-30.5 -61z
" />
    <glyph glyph-name="eacute" unicode="&#xe9;" horiz-adv-x="513" 
d="M469 697l-159 -142h-98l112 142h145zM491 248q0 -20 -3 -47h-331q5 -41 33 -65t79 -24q68 0 111 51l94 -83q-82 -91 -206 -91q-123 0 -184.5 74t-61.5 181q0 106 60 183t178 77q111 0 171 -71.5t60 -184.5zM156 304h206q-1 40 -30.5 63.5t-72.5 23.5q-47 0 -72.5 -26
t-30.5 -61z" />
    <glyph glyph-name="ecircumflex" unicode="&#xea;" horiz-adv-x="513" 
d="M262 603l-55 -64h-103l158 179l158 -179h-104zM491 248q0 -20 -3 -47h-331q5 -41 33 -65t79 -24q68 0 111 51l94 -83q-82 -91 -206 -91q-123 0 -184.5 74t-61.5 181q0 106 60 183t178 77q111 0 171 -71.5t60 -184.5zM156 304h206q-1 40 -30.5 63.5t-72.5 23.5
q-47 0 -72.5 -26t-30.5 -61z" />
    <glyph glyph-name="edieresis" unicode="&#xeb;" horiz-adv-x="513" 
d="M216 697v-123h-108v123h108zM415 697v-123h-107v123h107zM491 248q0 -20 -3 -47h-331q5 -41 33 -65t79 -24q68 0 111 51l94 -83q-82 -91 -206 -91q-123 0 -184.5 74t-61.5 181q0 106 60 183t178 77q111 0 171 -71.5t60 -184.5zM156 304h206q-1 40 -30.5 63.5t-72.5 23.5
q-47 0 -72.5 -26t-30.5 -61z" />
    <glyph glyph-name="igrave" unicode="&#xec;" horiz-adv-x="262" 
d="M80 555l-148 142h145l104 -142h-101zM63 0v493h136v-493h-136z" />
    <glyph glyph-name="iacute" unicode="&#xed;" horiz-adv-x="262" 
d="M82 555l112 142h145l-159 -142h-98zM63 0v493h136v-493h-136z" />
    <glyph glyph-name="icircumflex" unicode="&#xee;" horiz-adv-x="262" 
d="M-28 539l159 179l158 -179h-104l-54 64l-55 -64h-104zM63 0v493h136v-493h-136z" />
    <glyph glyph-name="idieresis" unicode="&#xef;" horiz-adv-x="262" 
d="M-23 574v123h108v-123h-108zM177 574v123h107v-123h-107zM63 0v493h136v-493h-136z" />
    <glyph glyph-name="eth" unicode="&#xf0;" horiz-adv-x="573" 
d="M492 604q53 -84 53 -225q0 -178 -79 -281.5t-216 -103.5q-109 0 -171 64t-62 165q0 118 79.5 194.5t184.5 76.5q89 0 140 -52q0 81 -43 133l-181 -45l-14 56l139 35q-49 25 -117 28l11 90q155 -13 234 -86l69 17l14 -56zM258 110q71 0 115 53t41 116q-2 46 -32 75.5
t-85 29.5q-75 0 -114.5 -49.5t-39.5 -110.5q0 -55 33 -84.5t82 -29.5z" />
    <glyph glyph-name="ntilde" unicode="&#xf1;" horiz-adv-x="573" 
d="M218 617q-26 0 -26 -64h-78q0 70 29.5 108.5t80.5 38.5q29 0 53 -16t41 -32.5t28 -16.5q25 0 25 62h81q0 -70 -28.5 -107.5t-78.5 -37.5q-26 0 -47.5 10t-33 22.5t-24 22.5t-22.5 10zM343 504q84 0 131 -48t47 -133v-323h-135v280q0 16 -0.5 25.5t-5 27t-12.5 27.5
t-25.5 18t-41.5 8q-29 0 -49.5 -12t-30.5 -27t-15.5 -42.5t-6 -44t-0.5 -46.5v-214h-136v493h136v-51q49 62 144 62z" />
    <glyph glyph-name="ograve" unicode="&#xf2;" horiz-adv-x="538" 
d="M219 555l-147 142h144l104 -142h-101zM269 -11q-113 0 -181.5 75.5t-68.5 182.5q0 108 68 182.5t182 74.5q113 0 181.5 -74.5t68.5 -182.5q0 -107 -69 -182.5t-181 -75.5zM269 108q60 0 87.5 39.5t27.5 99.5q0 61 -27 100t-88 39q-60 0 -87.5 -39.5t-27.5 -99.5
t27.5 -99.5t87.5 -39.5z" />
    <glyph glyph-name="oacute" unicode="&#xf3;" horiz-adv-x="538" 
d="M220 555l112 142h145l-159 -142h-98zM269 -11q-113 0 -181.5 75.5t-68.5 182.5q0 108 68 182.5t182 74.5q113 0 181.5 -74.5t68.5 -182.5q0 -107 -69 -182.5t-181 -75.5zM269 108q60 0 87.5 39.5t27.5 99.5q0 61 -27 100t-88 39q-60 0 -87.5 -39.5t-27.5 -99.5
t27.5 -99.5t87.5 -39.5z" />
    <glyph glyph-name="ocircumflex" unicode="&#xf4;" horiz-adv-x="538" 
d="M112 539l158 179l158 -179h-104l-54 64l-55 -64h-103zM269 -11q-113 0 -181.5 75.5t-68.5 182.5q0 108 68 182.5t182 74.5q113 0 181.5 -74.5t68.5 -182.5q0 -107 -69 -182.5t-181 -75.5zM269 108q60 0 87.5 39.5t27.5 99.5q0 61 -27 100t-88 39q-60 0 -87.5 -39.5
t-27.5 -99.5t27.5 -99.5t87.5 -39.5z" />
    <glyph glyph-name="otilde" unicode="&#xf5;" horiz-adv-x="538" 
d="M331 552q-26 0 -47.5 10t-33 22.5t-24 22.5t-22.5 10q-26 0 -26 -64h-78q0 70 29.5 108.5t80.5 38.5q29 0 53 -16t41 -32.5t28 -16.5q25 0 25 62h81q0 -70 -28.5 -107.5t-78.5 -37.5zM269 -11q-113 0 -181.5 75.5t-68.5 182.5q0 108 68 182.5t182 74.5q113 0 181.5 -74.5
t68.5 -182.5q0 -107 -69 -182.5t-181 -75.5zM269 108q60 0 87.5 39.5t27.5 99.5q0 61 -27 100t-88 39q-60 0 -87.5 -39.5t-27.5 -99.5t27.5 -99.5t87.5 -39.5z" />
    <glyph glyph-name="odieresis" unicode="&#xf6;" horiz-adv-x="538" 
d="M116 574v123h108v-123h-108zM316 574v123h107v-123h-107zM269 -11q-113 0 -181.5 75.5t-68.5 182.5q0 108 68 182.5t182 74.5q113 0 181.5 -74.5t68.5 -182.5q0 -107 -69 -182.5t-181 -75.5zM269 108q60 0 87.5 39.5t27.5 99.5q0 61 -27 100t-88 39q-60 0 -87.5 -39.5
t-27.5 -99.5t27.5 -99.5t87.5 -39.5z" />
    <glyph glyph-name="divide" unicode="&#xf7;" horiz-adv-x="506" 
d="M179 417v136h148v-136h-148zM34 255v113h438v-113h-438zM179 71v137h148v-137h-148z" />
    <glyph glyph-name="oslash" unicode="&#xf8;" horiz-adv-x="538" 
d="M437 442q82 -73 82 -195q0 -107 -69 -182.5t-181 -75.5q-50 0 -95 17l-28 -47h-101l56 92q-82 76 -82 196q0 108 68 182.5t182 74.5q49 0 94 -16l28 47h102zM154 247q0 -47 16 -80l130 216q-15 3 -31 3q-60 0 -87.5 -39.5t-27.5 -99.5zM269 108q60 0 87.5 39.5t27.5 99.5
q0 46 -16 81l-130 -217q14 -3 31 -3z" />
    <glyph glyph-name="ugrave" unicode="&#xf9;" horiz-adv-x="572" 
d="M330 555h-101l-147 142h144zM373 493h136v-493h-136v53q-50 -64 -142 -64q-91 0 -135.5 54.5t-44.5 143.5v306h135v-276q0 -20 2 -35t9.5 -34t26.5 -29.5t48 -10.5q24 0 42 7.5t29 25t17.5 33.5t9 45t3 47t0.5 52v175z" />
    <glyph glyph-name="uacute" unicode="&#xfa;" horiz-adv-x="572" 
d="M487 697l-159 -142h-98l112 142h145zM373 493h136v-493h-136v53q-50 -64 -142 -64q-91 0 -135.5 54.5t-44.5 143.5v306h135v-276q0 -20 2 -35t9.5 -34t26.5 -29.5t48 -10.5q24 0 42 7.5t29 25t17.5 33.5t9 45t3 47t0.5 52v175z" />
    <glyph glyph-name="ucircumflex" unicode="&#xfb;" horiz-adv-x="572" 
d="M280 603l-55 -64h-103l158 179l158 -179h-104zM373 493h136v-493h-136v53q-50 -64 -142 -64q-91 0 -135.5 54.5t-44.5 143.5v306h135v-276q0 -20 2 -35t9.5 -34t26.5 -29.5t48 -10.5q24 0 42 7.5t29 25t17.5 33.5t9 45t3 47t0.5 52v175z" />
    <glyph glyph-name="udieresis" unicode="&#xfc;" horiz-adv-x="572" 
d="M234 697v-123h-108v123h108zM433 697v-123h-107v123h107zM373 493h136v-493h-136v53q-50 -64 -142 -64q-91 0 -135.5 54.5t-44.5 143.5v306h135v-276q0 -20 2 -35t9.5 -34t26.5 -29.5t48 -10.5q24 0 42 7.5t29 25t17.5 33.5t9 45t3 47t0.5 52v175z" />
    <glyph glyph-name="yacute" unicode="&#xfd;" horiz-adv-x="504" 
d="M204 555l112 142h145l-159 -142h-98zM87 -204l90 219l-189 478h150l111 -323l119 323h149l-283 -697h-147z" />
    <glyph glyph-name="thorn" unicode="&#xfe;" horiz-adv-x="565" 
d="M335 504q97 0 151 -72.5t54 -185.5q0 -120 -58 -188.5t-147 -68.5q-39 0 -75.5 15t-59.5 40v-248h-136v901h136v-246q49 53 135 53zM299 108q106 0 106 139q0 138 -104 138q-114 0 -114 -138q0 -63 27.5 -101t84.5 -38z" />
    <glyph glyph-name="ydieresis" unicode="&#xff;" horiz-adv-x="504" 
d="M100 574v123h108v-123h-108zM300 574v123h107v-123h-107zM87 -204l90 219l-189 478h150l111 -323l119 323h149l-283 -697h-147z" />
    <glyph glyph-name="Amacron" unicode="&#x100;" horiz-adv-x="662" 
d="M470 839v-79h-277v79h277zM514 0l-49 131h-268l-49 -131h-154l285 697h105l283 -697h-153zM246 261h171l-85 227z" />
    <glyph glyph-name="amacron" unicode="&#x101;" horiz-adv-x="526" 
d="M395 635v-79h-277v79h277zM259 504q101 0 159.5 -51.5t58.5 -140.5v-312h-124l-10 57q-48 -68 -140 -68q-80 0 -132 46.5t-52 119.5q0 87 71 123q46 23 122 23h130v11q0 34 -23.5 54t-65.5 20q-69 0 -126 -64l-98 82q88 100 230 100zM225 101q48 0 82 29t35 71h-111
q-42 0 -59 -13q-18 -12 -18 -35t18.5 -37.5t52.5 -14.5z" />
    <glyph glyph-name="Abreve" unicode="&#x102;" horiz-adv-x="662" 
d="M332 768q-157 0 -157 133h95q0 -27 18 -41t44 -14q27 0 44.5 14.5t17.5 40.5h96q0 -133 -158 -133zM514 0l-49 131h-268l-49 -131h-154l285 697h105l283 -697h-153zM246 261h171l-85 227z" />
    <glyph glyph-name="abreve" unicode="&#x103;" horiz-adv-x="526" 
d="M257 564q-157 0 -157 133h95q0 -27 18 -41t44 -14q27 0 44.5 14.5t17.5 40.5h96q0 -133 -158 -133zM259 504q101 0 159.5 -51.5t58.5 -140.5v-312h-124l-10 57q-48 -68 -140 -68q-80 0 -132 46.5t-52 119.5q0 87 71 123q46 23 122 23h130v11q0 34 -23.5 54t-65.5 20
q-69 0 -126 -64l-98 82q88 100 230 100zM225 101q48 0 82 29t35 71h-111q-42 0 -59 -13q-18 -12 -18 -35t18.5 -37.5t52.5 -14.5z" />
    <glyph glyph-name="Aogonek" unicode="&#x104;" horiz-adv-x="662" 
d="M645 -114l69 -46q-42 -65 -112 -65q-51 0 -85 29.5t-34 76.5q0 77 79 119h-48l-49 131h-268l-49 -131h-154l285 697h105l283 -697h1q-9 -3 -23 -10t-34 -20t-33.5 -33t-13.5 -42q0 -37 34 -37q29 0 47 28zM246 261h171l-85 227z" />
    <glyph glyph-name="aogonek" unicode="&#x105;" horiz-adv-x="526" 
d="M454 -114l69 -46q-42 -65 -112 -65q-51 0 -85 29.5t-34 76.5q0 77 79 119h-18l-10 57q-48 -68 -140 -68q-80 0 -132 46.5t-52 119.5q0 87 71 123q46 23 122 23h130v11q0 34 -23.5 54t-65.5 20q-69 0 -126 -64l-98 82q88 100 230 100q101 0 159.5 -51.5t58.5 -140.5v-312
q-9 -3 -23 -10t-34 -20t-33.5 -33t-13.5 -42q0 -37 34 -37q29 0 47 28zM225 101q48 0 82 29t35 71h-111q-42 0 -59 -13q-18 -12 -18 -35t18.5 -37.5t52.5 -14.5z" />
    <glyph glyph-name="Cacute" unicode="&#x106;" horiz-adv-x="704" 
d="M330 759l112 142h145l-159 -142h-98zM375 -17q-156 0 -250 100t-94 266q0 167 93.5 266.5t249.5 99.5q113 0 195 -54t120 -154l-130 -51q-44 125 -185 125q-96 0 -149 -60t-53 -171q0 -110 53.5 -171t149.5 -61q143 0 184 128l132 -50q-37 -102 -119.5 -157.5
t-196.5 -55.5z" />
    <glyph glyph-name="cacute" unicode="&#x107;" horiz-adv-x="488" 
d="M196 555l112 142h145l-159 -142h-98zM264 -11q-118 0 -181 75.5t-63 180.5q0 106 63 182.5t180 76.5q161 0 216 -148l-128 -51q-8 37 -31.5 59t-56.5 22q-54 0 -79 -40.5t-25 -100.5q0 -59 24.5 -98t78.5 -39q33 0 57.5 21t32.5 57l122 -48q-25 -70 -80.5 -109.5
t-129.5 -39.5z" />
    <glyph glyph-name="Cdotaccent" unicode="&#x10a;" horiz-adv-x="704" 
d="M309 778v123h140v-123h-140zM375 -17q-156 0 -250 100t-94 266q0 167 93.5 266.5t249.5 99.5q113 0 195 -54t120 -154l-130 -51q-44 125 -185 125q-96 0 -149 -60t-53 -171q0 -110 53.5 -171t149.5 -61q143 0 184 128l132 -50q-37 -102 -119.5 -157.5t-196.5 -55.5z" />
    <glyph glyph-name="cdotaccent" unicode="&#x10b;" horiz-adv-x="488" 
d="M175 574v123h140v-123h-140zM264 -11q-118 0 -181 75.5t-63 180.5q0 106 63 182.5t180 76.5q161 0 216 -148l-128 -51q-8 37 -31.5 59t-56.5 22q-54 0 -79 -40.5t-25 -100.5q0 -59 24.5 -98t78.5 -39q33 0 57.5 21t32.5 57l122 -48q-25 -70 -80.5 -109.5t-129.5 -39.5z
" />
    <glyph glyph-name="Ccaron" unicode="&#x10c;" horiz-adv-x="704" 
d="M379 734l-158 167h104l54 -58l55 58h103zM375 -17q-156 0 -250 100t-94 266q0 167 93.5 266.5t249.5 99.5q113 0 195 -54t120 -154l-130 -51q-44 125 -185 125q-96 0 -149 -60t-53 -171q0 -110 53.5 -171t149.5 -61q143 0 184 128l132 -50q-37 -102 -119.5 -157.5
t-196.5 -55.5z" />
    <glyph glyph-name="ccaron" unicode="&#x10d;" horiz-adv-x="488" 
d="M245 530l-158 167h104l54 -58l55 58h103zM264 -11q-118 0 -181 75.5t-63 180.5q0 106 63 182.5t180 76.5q161 0 216 -148l-128 -51q-8 37 -31.5 59t-56.5 22q-54 0 -79 -40.5t-25 -100.5q0 -59 24.5 -98t78.5 -39q33 0 57.5 21t32.5 57l122 -48q-25 -70 -80.5 -109.5
t-129.5 -39.5z" />
    <glyph glyph-name="Dcaron" unicode="&#x10e;" horiz-adv-x="680" 
d="M340 734l-158 167h104l54 -58l55 58h103zM80 0v697h206q174 0 269.5 -92.5t95.5 -261.5q0 -167 -94 -255t-272 -88h-205zM221 130h50q124 0 181 49t57 170q0 117 -55.5 168t-170.5 51h-62v-438z" />
    <glyph glyph-name="dcaron" unicode="&#x10f;" horiz-adv-x="565" 
d="M366 448v249h135v-697h-135v44q-47 -55 -136 -55q-96 0 -150.5 72t-54.5 186q0 119 57.5 188t147.5 69q40 0 76.5 -15t59.5 -41zM573 697h142l-119 -229h-79zM265 116q58 0 85.5 35.5t27.5 94.5t-27 96.5t-85 37.5q-51 0 -78 -35t-27 -99q0 -130 104 -130z" />
    <glyph glyph-name="Dcroat" unicode="&#x110;" horiz-adv-x="680" 
d="M286 697q174 0 269.5 -92.5t95.5 -261.5q0 -167 -94 -255t-272 -88h-205v305h-81v90h81v302h206zM271 130q124 0 181 49t57 170q0 117 -55.5 168t-170.5 51h-62v-173h117v-90h-117v-175h50z" />
    <glyph glyph-name="dcroat" unicode="&#x111;" horiz-adv-x="565" 
d="M573 644v-90h-72v-554h-135v44q-47 -55 -136 -55q-96 0 -150.5 72t-54.5 186q0 119 57.5 188t147.5 69q40 0 76.5 -15t59.5 -41v106h-132v90h132v53h135v-53h72zM265 116q58 0 85.5 35.5t27.5 94.5t-27 96.5t-85 37.5q-51 0 -78 -35t-27 -99q0 -130 104 -130z" />
    <glyph glyph-name="Emacron" unicode="&#x112;" horiz-adv-x="601" 
d="M174 760v79h277v-79h-277zM80 0v697h466v-129h-325v-143h305v-130h-305v-165h325v-130h-466z" />
    <glyph glyph-name="emacron" unicode="&#x113;" horiz-adv-x="513" 
d="M400 635v-79h-277v79h277zM491 248q0 -20 -3 -47h-331q5 -41 33 -65t79 -24q68 0 111 51l94 -83q-82 -91 -206 -91q-123 0 -184.5 74t-61.5 181q0 106 60 183t178 77q111 0 171 -71.5t60 -184.5zM156 304h206q-1 40 -30.5 63.5t-72.5 23.5q-47 0 -72.5 -26t-30.5 -61z
" />
    <glyph glyph-name="Edotaccent" unicode="&#x116;" horiz-adv-x="601" 
d="M243 778v123h140v-123h-140zM80 0v697h466v-129h-325v-143h305v-130h-305v-165h325v-130h-466z" />
    <glyph glyph-name="edotaccent" unicode="&#x117;" horiz-adv-x="513" 
d="M331 697v-123h-140v123h140zM491 248q0 -20 -3 -47h-331q5 -41 33 -65t79 -24q68 0 111 51l94 -83q-82 -91 -206 -91q-123 0 -184.5 74t-61.5 181q0 106 60 183t178 77q111 0 171 -71.5t60 -184.5zM156 304h206q-1 40 -30.5 63.5t-72.5 23.5q-47 0 -72.5 -26t-30.5 -61z
" />
    <glyph glyph-name="Eogonek" unicode="&#x118;" horiz-adv-x="601" 
d="M523 -114l69 -46q-42 -65 -112 -65q-51 0 -85 29.5t-34 76.5q0 77 79 119h-360v697h466v-129h-325v-143h305v-130h-305v-165h325v-130q-9 -3 -23 -10t-34 -20t-33.5 -33t-13.5 -42q0 -37 34 -37q29 0 47 28z" />
    <glyph glyph-name="eogonek" unicode="&#x119;" horiz-adv-x="513" 
d="M491 248q0 -20 -3 -47h-331q5 -41 33 -65t79 -24q68 0 111 51l94 -83q-50 -55 -115 -77q-82 -40 -82 -96q0 -37 34 -37q29 0 47 28l69 -46q-42 -65 -112 -65q-51 0 -85 29.5t-34 76.5q0 56 47 97q-111 8 -166 80t-55 174q0 106 60 183t178 77q111 0 171 -71.5t60 -184.5z
M156 304h206q-1 40 -30.5 63.5t-72.5 23.5q-47 0 -72.5 -26t-30.5 -61z" />
    <glyph glyph-name="Ecaron" unicode="&#x11a;" horiz-adv-x="601" 
d="M313 734l-158 167h104l54 -58l55 58h103zM80 0v697h466v-129h-325v-143h305v-130h-305v-165h325v-130h-466z" />
    <glyph glyph-name="ecaron" unicode="&#x11b;" horiz-adv-x="513" 
d="M419 697l-158 -167l-158 167h104l54 -58l55 58h103zM491 248q0 -20 -3 -47h-331q5 -41 33 -65t79 -24q68 0 111 51l94 -83q-82 -91 -206 -91q-123 0 -184.5 74t-61.5 181q0 106 60 183t178 77q111 0 171 -71.5t60 -184.5zM156 304h206q-1 40 -30.5 63.5t-72.5 23.5
q-47 0 -72.5 -26t-30.5 -61z" />
    <glyph glyph-name="Gbreve" unicode="&#x11e;" horiz-adv-x="747" 
d="M374 768q-157 0 -157 133h95q0 -27 18 -41t44 -14q27 0 44.5 14.5t17.5 40.5h96q0 -133 -158 -133zM398 382h294v-382h-99l-16 70q-63 -87 -203 -87q-153 0 -249 101t-96 262t95.5 265t249.5 104q108 0 191.5 -54t122.5 -154l-130 -51q-22 61 -71 93t-115 32
q-94 0 -148 -60.5t-54 -171.5q0 -113 57.5 -172t156.5 -59q79 0 123 35t44 92v10h-153v127z" />
    <glyph glyph-name="gbreve" unicode="&#x11f;" horiz-adv-x="511" 
d="M254 564q-157 0 -157 133h95q0 -27 18 -41t44 -14q27 0 44.5 14.5t17.5 40.5h96q0 -133 -158 -133zM257 80q34 -4 51.5 -6.5t47 -8.5t45 -12t36 -16.5t30 -24t17 -32.5t7.5 -43q0 -78 -63 -117.5t-168 -39.5q-109 0 -172.5 41.5t-63.5 115.5q0 15 3 27l72 36
q-61 34 -61 106q0 59 43 100q-39 47 -39 112q0 81 60.5 133.5t146.5 52.5q63 0 113 -29l77 66l71 -85l-72 -59q19 -40 19 -84q0 -81 -58 -131t-146 -50q-53 0 -95 18q-8 -10 -8 -22q0 -23 26 -32.5t81 -15.5zM251 391q-34 0 -53.5 -20.5t-19.5 -53.5q0 -34 18.5 -55.5
t54.5 -21.5q35 0 53 21.5t18 55.5t-19 54t-52 20zM266 -120q90 0 90 39q0 6 -2 11t-7 8.5t-9.5 6.5t-13 5.5t-15 4.5t-18.5 3.5t-18.5 2.5t-20.5 2.5t-21 2.5q-10 1 -35 5l-36 -35q-1 -2 -1 -7q0 -24 29.5 -36.5t77.5 -12.5z" />
    <glyph glyph-name="Gdotaccent" unicode="&#x120;" horiz-adv-x="747" 
d="M444 901v-123h-140v123h140zM398 382h294v-382h-99l-16 70q-63 -87 -203 -87q-153 0 -249 101t-96 262t95.5 265t249.5 104q108 0 191.5 -54t122.5 -154l-130 -51q-22 61 -71 93t-115 32q-94 0 -148 -60.5t-54 -171.5q0 -113 57.5 -172t156.5 -59q79 0 123 35t44 92v10
h-153v127z" />
    <glyph glyph-name="gdotaccent" unicode="&#x121;" horiz-adv-x="511" 
d="M324 697v-123h-140v123h140zM257 80q34 -4 51.5 -6.5t47 -8.5t45 -12t36 -16.5t30 -24t17 -32.5t7.5 -43q0 -78 -63 -117.5t-168 -39.5q-109 0 -172.5 41.5t-63.5 115.5q0 15 3 27l72 36q-61 34 -61 106q0 59 43 100q-39 47 -39 112q0 81 60.5 133.5t146.5 52.5
q63 0 113 -29l77 66l71 -85l-72 -59q19 -40 19 -84q0 -81 -58 -131t-146 -50q-53 0 -95 18q-8 -10 -8 -22q0 -23 26 -32.5t81 -15.5zM251 391q-34 0 -53.5 -20.5t-19.5 -53.5q0 -34 18.5 -55.5t54.5 -21.5q35 0 53 21.5t18 55.5t-19 54t-52 20zM266 -120q90 0 90 39
q0 6 -2 11t-7 8.5t-9.5 6.5t-13 5.5t-15 4.5t-18.5 3.5t-18.5 2.5t-20.5 2.5t-21 2.5q-10 1 -35 5l-36 -35q-1 -2 -1 -7q0 -24 29.5 -36.5t77.5 -12.5z" />
    <glyph glyph-name="uni0122" unicode="&#x122;" horiz-adv-x="747" 
d="M398 382h294v-382h-99l-16 70q-63 -87 -203 -87q-153 0 -249 101t-96 262t95.5 265t249.5 104q108 0 191.5 -54t122.5 -154l-130 -51q-22 61 -71 93t-115 32q-94 0 -148 -60.5t-54 -171.5q0 -113 57.5 -172t156.5 -59q79 0 123 35t44 92v10h-153v127zM241 -228l61 176
h141l-124 -176h-78z" />
    <glyph glyph-name="uni0123" unicode="&#x123;" horiz-adv-x="511" 
d="M355 709l-61 -158h-140l123 158h78zM257 80q34 -4 51.5 -6.5t47 -8.5t45 -12t36 -16.5t30 -24t17 -32.5t7.5 -43q0 -78 -63 -117.5t-168 -39.5q-109 0 -172.5 41.5t-63.5 115.5q0 15 3 27l72 36q-61 34 -61 106q0 59 43 100q-39 47 -39 112q0 81 60.5 133.5t146.5 52.5
q63 0 113 -29l77 66l71 -85l-72 -59q19 -40 19 -84q0 -81 -58 -131t-146 -50q-53 0 -95 18q-8 -10 -8 -22q0 -23 26 -32.5t81 -15.5zM251 391q-34 0 -53.5 -20.5t-19.5 -53.5q0 -34 18.5 -55.5t54.5 -21.5q35 0 53 21.5t18 55.5t-19 54t-52 20zM266 -120q90 0 90 39
q0 6 -2 11t-7 8.5t-9.5 6.5t-13 5.5t-15 4.5t-18.5 3.5t-18.5 2.5t-20.5 2.5t-21 2.5q-10 1 -35 5l-36 -35q-1 -2 -1 -7q0 -24 29.5 -36.5t77.5 -12.5z" />
    <glyph glyph-name="Hbar" unicode="&#x126;" horiz-adv-x="729" 
d="M697 600v-79h-47v-521h-141v295h-288v-295h-141v521h-46v79h46v97h141v-97h288v97h141v-97h47zM509 424v97h-288v-97h288z" />
    <glyph glyph-name="hbar" unicode="&#x127;" horiz-adv-x="574" 
d="M344 504q84 0 131 -48t47 -133v-323h-135v289q0 97 -86 97q-57 0 -79 -46.5t-22 -151.5v-188h-136v554h-49v90h49v53h136v-53h154v-90h-154v-112q47 62 144 62z" />
    <glyph glyph-name="Itilde" unicode="&#x128;" horiz-adv-x="300" 
d="M212 756q-26 0 -47.5 10t-33 22.5t-24 22.5t-22.5 10q-26 0 -26 -64h-78q0 70 29.5 108.5t80.5 38.5q29 0 53 -16t41 -32.5t28 -16.5q25 0 25 62h81q0 -70 -28.5 -107.5t-78.5 -37.5zM80 0v697h141v-697h-141z" />
    <glyph glyph-name="itilde" unicode="&#x129;" horiz-adv-x="262" 
d="M192 552q-26 0 -47.5 10t-33 22.5t-24 22.5t-22.5 10q-26 0 -26 -64h-78q0 70 29.5 108.5t80.5 38.5q29 0 53 -16t41 -32.5t28 -16.5q25 0 25 62h81q0 -70 -28.5 -107.5t-78.5 -37.5zM63 0v493h136v-493h-136z" />
    <glyph glyph-name="Imacron" unicode="&#x12a;" horiz-adv-x="300" 
d="M12 760v79h277v-79h-277zM80 0v697h141v-697h-141z" />
    <glyph glyph-name="imacron" unicode="&#x12b;" horiz-adv-x="262" 
d="M-8 556v79h277v-79h-277zM63 0v493h136v-493h-136z" />
    <glyph glyph-name="Iogonek" unicode="&#x12e;" horiz-adv-x="300" 
d="M198 -114l69 -46q-42 -65 -112 -65q-51 0 -85 29.5t-34 76.5q0 77 79 119h-35v697h141v-697q-9 -3 -23 -10t-34 -20t-33.5 -33t-13.5 -42q0 -37 34 -37q29 0 47 28z" />
    <glyph glyph-name="iogonek" unicode="&#x12f;" horiz-adv-x="262" 
d="M201 697v-123h-140v123h140zM176 -114l69 -46q-42 -65 -112 -65q-51 0 -85 29.5t-34 76.5q0 77 79 119h-30v493h136v-493q-9 -3 -23 -10t-34 -20t-33.5 -33t-13.5 -42q0 -37 34 -37q29 0 47 28z" />
    <glyph glyph-name="Idotaccent" unicode="&#x130;" horiz-adv-x="300" 
d="M81 778v123h140v-123h-140zM80 0v697h141v-697h-141z" />
    <glyph glyph-name="dotlessi" unicode="&#x131;" horiz-adv-x="262" 
d="M63 0v493h136v-493h-136z" />
    <glyph glyph-name="uni0136" unicode="&#x136;" horiz-adv-x="702" 
d="M436 430l267 -430h-163l-200 334l-119 -121v-213h-141v697h141v-307l293 307h185zM219 -228l61 176h141l-124 -176h-78z" />
    <glyph glyph-name="uni0137" unicode="&#x137;" horiz-adv-x="549" 
d="M64 0v697h136v-385l161 181h181l-182 -188l201 -305h-161l-136 217l-64 -73v-144h-136zM168 -228l61 176h141l-124 -176h-78z" />
    <glyph glyph-name="kgreenlandic" unicode="&#x138;" horiz-adv-x="548" 
d="M63 0v493h136v-187l167 187h175l-180 -188l199 -305h-161l-136 217l-64 -73v-144h-136z" />
    <glyph glyph-name="Lacute" unicode="&#x139;" horiz-adv-x="515" 
d="M102 759l112 142h145l-159 -142h-98zM80 0v697h141v-567h292v-130h-433z" />
    <glyph glyph-name="lacute" unicode="&#x13a;" horiz-adv-x="278" 
d="M77 759l112 142h145l-159 -142h-98zM180 -11q-55 0 -88.5 33.5t-33.5 99.5v575h135v-561q0 -29 32 -29q13 0 35 5v-107q-42 -16 -80 -16z" />
    <glyph glyph-name="uni013B" unicode="&#x13b;" horiz-adv-x="515" 
d="M80 0v697h141v-567h292v-130h-433zM165 -228l61 176h141l-124 -176h-78z" />
    <glyph glyph-name="uni013C" unicode="&#x13c;" horiz-adv-x="278" 
d="M180 -11q-55 0 -88.5 33.5t-33.5 99.5v575h135v-561q0 -29 32 -29q13 0 35 5v-107q-42 -16 -80 -16zM17 -228l61 176h141l-124 -176h-78z" />
    <glyph glyph-name="Lcaron" unicode="&#x13d;" horiz-adv-x="515" 
d="M80 0v697h141v-567h292v-130h-433zM338 468l56 229h142l-119 -229h-79z" />
    <glyph glyph-name="lcaron" unicode="&#x13e;" horiz-adv-x="278" 
d="M180 -11q-55 0 -88.5 33.5t-33.5 99.5v575h135v-561q0 -29 32 -29q13 0 35 5v-107q-42 -16 -80 -16zM216 468l56 229h142l-119 -229h-79z" />
    <glyph glyph-name="Lslash" unicode="&#x141;" horiz-adv-x="515" 
d="M221 130h292v-130h-433v190l-56 -45v139l56 44v369h141v-258l97 77v-137l-97 -77v-172z" />
    <glyph glyph-name="lslash" unicode="&#x142;" horiz-adv-x="278" 
d="M225 107q13 0 35 5v-107q-42 -16 -80 -16q-55 0 -88.5 33.5t-33.5 99.5v110l-48 -38v140l48 38v325h135v-219l53 42v-137l-53 -42v-205q0 -29 32 -29z" />
    <glyph glyph-name="Nacute" unicode="&#x143;" horiz-adv-x="723" 
d="M570 901l-159 -142h-98l112 142h145zM502 697h141v-697h-145l-277 455v-455h-141v697h144l278 -452v452z" />
    <glyph glyph-name="nacute" unicode="&#x144;" horiz-adv-x="573" 
d="M492 697l-159 -142h-98l112 142h145zM343 504q84 0 131 -48t47 -133v-323h-135v280q0 16 -0.5 25.5t-5 27t-12.5 27.5t-25.5 18t-41.5 8q-29 0 -49.5 -12t-30.5 -27t-15.5 -42.5t-6 -44t-0.5 -46.5v-214h-136v493h136v-51q49 62 144 62z" />
    <glyph glyph-name="uni0145" unicode="&#x145;" horiz-adv-x="723" 
d="M502 697h141v-697h-145l-277 455v-455h-141v697h144l278 -452v452zM231 -228l61 176h141l-124 -176h-78z" />
    <glyph glyph-name="uni0146" unicode="&#x146;" horiz-adv-x="573" 
d="M343 504q84 0 131 -48t47 -133v-323h-135v280q0 16 -0.5 25.5t-5 27t-12.5 27.5t-25.5 18t-41.5 8q-29 0 -49.5 -12t-30.5 -27t-15.5 -42.5t-6 -44t-0.5 -46.5v-214h-136v493h136v-51q49 62 144 62zM152 -228l61 176h141l-124 -176h-78z" />
    <glyph glyph-name="Ncaron" unicode="&#x147;" horiz-adv-x="723" 
d="M520 901l-158 -167l-158 167h104l54 -58l55 58h103zM502 697h141v-697h-145l-277 455v-455h-141v697h144l278 -452v452z" />
    <glyph glyph-name="ncaron" unicode="&#x148;" horiz-adv-x="573" 
d="M442 697l-158 -167l-158 167h104l54 -58l55 58h103zM343 504q84 0 131 -48t47 -133v-323h-135v280q0 16 -0.5 25.5t-5 27t-12.5 27.5t-25.5 18t-41.5 8q-29 0 -49.5 -12t-30.5 -27t-15.5 -42.5t-6 -44t-0.5 -46.5v-214h-136v493h136v-51q49 62 144 62z" />
    <glyph glyph-name="napostrophe" unicode="&#x149;" horiz-adv-x="668" 
d="M38 697h157l-124 -277h-89zM438 504q84 0 131 -48t47 -133v-323h-136v280q0 20 -1.5 33t-8.5 32.5t-26 30t-48 10.5q-30 0 -50.5 -12t-30.5 -27t-15.5 -42.5t-6 -44t-0.5 -46.5v-214h-135v493h135v-51q49 62 145 62z" />
    <glyph glyph-name="Eng" unicode="&#x14a;" horiz-adv-x="723" 
d="M502 697h141v-693q0 -81 -43 -135.5t-135 -54.5q-36 0 -70 5l-1 89q24 -2 33 -2q39 0 60.5 16t21.5 39q0 21 -11 39l-277 446v-446h-141v697h144l278 -444v444z" />
    <glyph glyph-name="eng" unicode="&#x14b;" horiz-adv-x="573" 
d="M343 504q84 0 131 -47.5t47 -133.5v-405q0 -66 -32.5 -99.5t-87.5 -33.5q-40 0 -82 16v108q23 -6 35 -6q32 0 32 29v357q0 97 -86 97q-21 0 -37.5 -6t-27 -13.5t-18 -23.5t-11.5 -27t-5.5 -32.5t-2 -32t0 -34t0.5 -29.5v-188h-136v493h136v-51q49 62 144 62z" />
    <glyph glyph-name="Omacron" unicode="&#x14c;" horiz-adv-x="735" 
d="M229 760v79h277v-79h-277zM367 -17q-150 0 -243.5 101t-93.5 264q0 165 93.5 265.5t243.5 100.5q152 0 245 -100.5t93 -265.5q0 -164 -93.5 -264.5t-244.5 -100.5zM367 118q90 0 143 62t53 168q0 107 -53 169t-143 62t-143 -62t-53 -169t53 -168.5t143 -61.5z" />
    <glyph glyph-name="omacron" unicode="&#x14d;" horiz-adv-x="538" 
d="M131 556v79h277v-79h-277zM269 -11q-113 0 -181.5 75.5t-68.5 182.5q0 108 68 182.5t182 74.5q113 0 181.5 -74.5t68.5 -182.5q0 -107 -69 -182.5t-181 -75.5zM269 108q60 0 87.5 39.5t27.5 99.5q0 61 -27 100t-88 39q-60 0 -87.5 -39.5t-27.5 -99.5t27.5 -99.5
t87.5 -39.5z" />
    <glyph glyph-name="Ohungarumlaut" unicode="&#x150;" horiz-adv-x="735" 
d="M219 735l112 166h121l-135 -166h-98zM417 735l112 166h144l-157 -166h-99zM367 -17q-150 0 -243.5 101t-93.5 264q0 165 93.5 265.5t243.5 100.5q152 0 245 -100.5t93 -265.5q0 -164 -93.5 -264.5t-244.5 -100.5zM367 118q90 0 143 62t53 168q0 107 -53 169t-143 62
t-143 -62t-53 -169t53 -168.5t143 -61.5z" />
    <glyph glyph-name="ohungarumlaut" unicode="&#x151;" horiz-adv-x="538" 
d="M121 531l112 166h121l-135 -166h-98zM319 531l112 166h144l-157 -166h-99zM269 -11q-113 0 -181.5 75.5t-68.5 182.5q0 108 68 182.5t182 74.5q113 0 181.5 -74.5t68.5 -182.5q0 -107 -69 -182.5t-181 -75.5zM269 108q60 0 87.5 39.5t27.5 99.5q0 61 -27 100t-88 39
q-60 0 -87.5 -39.5t-27.5 -99.5t27.5 -99.5t87.5 -39.5z" />
    <glyph glyph-name="OE" unicode="&#x152;" horiz-adv-x="1088" 
d="M1033 568h-325v-143h305v-130h-305v-165h325v-130h-466v44q-84 -61 -200 -61q-150 0 -243.5 101t-93.5 264q0 165 93.5 265.5t243.5 100.5q116 0 200 -61v44h466v-129zM367 118q90 0 143 62t53 168q0 107 -53 169t-143 62t-143 -62t-53 -169t53 -168.5t143 -61.5z" />
    <glyph glyph-name="oe" unicode="&#x153;" horiz-adv-x="879" 
d="M857 248q0 -20 -3 -47h-331q4 -41 32 -65t80 -24q68 0 111 51l93 -83q-82 -91 -205 -91q-119 0 -185 74q-71 -74 -180 -74q-113 0 -181.5 75.5t-68.5 182.5q0 108 68 182.5t182 74.5q110 0 181 -74q66 74 176 74q111 0 171 -71.5t60 -184.5zM522 304h205q-1 40 -30 63.5
t-73 23.5q-47 0 -72 -26t-30 -61zM269 108q60 0 87.5 39.5t27.5 99.5q0 61 -27 100t-88 39q-60 0 -87.5 -39.5t-27.5 -99.5t27.5 -99.5t87.5 -39.5z" />
    <glyph glyph-name="Racute" unicode="&#x154;" horiz-adv-x="618" 
d="M517 901l-159 -142h-98l112 142h145zM618 0h-163l-164 283h-41h-30v-283h-140v697h236q240 0 240 -203q0 -148 -125 -193zM220 413h82q55 0 84 16.5t29 62.5t-28.5 61t-84.5 15h-82v-155z" />
    <glyph glyph-name="racute" unicode="&#x155;" horiz-adv-x="406" 
d="M411 697l-159 -142h-98l112 142h145zM328 504q49 0 96 -30l-65 -121q-26 17 -62 17q-98 0 -98 -131v-239h-136v493h137v-78q16 41 51.5 65t76.5 24z" />
    <glyph glyph-name="uni0156" unicode="&#x156;" horiz-adv-x="618" 
d="M431 301l187 -301h-163l-164 283h-41h-30v-283h-140v697h236q240 0 240 -203q0 -148 -125 -193zM220 413h82q55 0 84 16.5t29 62.5t-28.5 61t-84.5 15h-82v-155zM177 -228l61 176h141l-124 -176h-78z" />
    <glyph glyph-name="uni0157" unicode="&#x157;" horiz-adv-x="406" 
d="M328 504q49 0 96 -30l-65 -121q-26 17 -62 17q-98 0 -98 -131v-239h-136v493h137v-78q16 41 51.5 65t76.5 24zM71 -228l61 176h141l-124 -176h-78z" />
    <glyph glyph-name="Rcaron" unicode="&#x158;" horiz-adv-x="618" 
d="M467 901l-158 -167l-158 167h104l54 -58l55 58h103zM618 0h-163l-164 283h-41h-30v-283h-140v697h236q240 0 240 -203q0 -148 -125 -193zM220 413h82q55 0 84 16.5t29 62.5t-28.5 61t-84.5 15h-82v-155z" />
    <glyph glyph-name="rcaron" unicode="&#x159;" horiz-adv-x="406" 
d="M361 697l-158 -167l-158 167h104l54 -58l55 58h103zM328 504q49 0 96 -30l-65 -121q-26 17 -62 17q-98 0 -98 -131v-239h-136v493h137v-78q16 41 51.5 65t76.5 24z" />
    <glyph glyph-name="Sacute" unicode="&#x15a;" horiz-adv-x="552" 
d="M227 759l112 142h145l-159 -142h-98zM286 -14q-107 0 -182.5 59t-91.5 156l140 35q6 -60 42.5 -92.5t93.5 -32.5q47 0 75.5 22.5t28.5 63.5q0 30 -29 53.5t-102 52.5q-111 45 -155.5 92.5t-44.5 124.5q0 86 61.5 140t160.5 54q150 0 216 -131l-117 -73q-33 79 -103 79
q-32 0 -54.5 -19t-22.5 -47q0 -30 28 -52.5t105 -52.5q112 -44 155 -89t43 -119q0 -100 -69.5 -162t-177.5 -62z" />
    <glyph glyph-name="sacute" unicode="&#x15b;" horiz-adv-x="441" 
d="M177 555l112 142h145l-159 -142h-98zM220 -11q-76 0 -133 41.5t-75 99.5l107 48q9 -22 16 -35.5t29 -28t53 -14.5q34 0 50.5 13.5t16.5 31.5q0 20 -25 33t-61 23t-72.5 24t-61.5 47t-25 83q0 73 53.5 111t129.5 38q129 0 191 -108l-104 -58q-35 63 -90 63q-24 0 -38 -10
t-14 -25q0 -19 25.5 -30.5t62.5 -20.5t74 -23.5t62.5 -48t25.5 -84.5q0 -83 -59.5 -126.5t-137.5 -43.5z" />
    <glyph glyph-name="Scedilla" unicode="&#x15e;" horiz-adv-x="552" 
d="M533 210q0 -95 -64 -156.5t-164 -66.5l-27 -32q26 -5 48 -19q40 -27 40 -78q0 -50 -33.5 -83.5t-85.5 -33.5q-46 0 -82 27l42 66q20 -16 44 -16q16 0 26 9.5t10 25.5q0 36 -45 45q-20 5 -67 5l55 88q-86 14 -145.5 70.5t-72.5 139.5l140 35q6 -60 42.5 -92.5t93.5 -32.5
q47 0 75.5 22.5t28.5 63.5q0 30 -29 53.5t-102 52.5q-111 45 -155.5 92.5t-44.5 124.5q0 86 61.5 140t160.5 54q150 0 216 -131l-117 -73q-33 79 -103 79q-32 0 -54.5 -19t-22.5 -47q0 -30 28 -52.5t105 -52.5q112 -44 155 -89t43 -119z" />
    <glyph glyph-name="scedilla" unicode="&#x15f;" horiz-adv-x="441" 
d="M417 159q0 -72 -46 -114.5t-113 -52.5l-31 -37q26 -5 48 -19q40 -27 40 -78q0 -50 -33.5 -83.5t-85.5 -33.5q-46 0 -82 27l42 66q20 -16 44 -16q16 0 26 9.5t10 25.5q0 36 -45 45q-20 5 -67 5l56 89q-62 11 -107 49.5t-61 88.5l107 48q9 -22 16 -35.5t29 -28t53 -14.5
q34 0 50.5 13.5t16.5 31.5q0 20 -25 33t-61 23t-72.5 24t-61.5 47t-25 83q0 73 53.5 111t129.5 38q129 0 191 -108l-104 -58q-35 63 -90 63q-24 0 -38 -10t-14 -25q0 -19 25.5 -30.5t62.5 -20.5t74 -23.5t62.5 -48t25.5 -84.5z" />
    <glyph glyph-name="Scaron" unicode="&#x160;" horiz-adv-x="552" 
d="M276 734l-158 167h104l54 -58l55 58h103zM286 -14q-107 0 -182.5 59t-91.5 156l140 35q6 -60 42.5 -92.5t93.5 -32.5q47 0 75.5 22.5t28.5 63.5q0 30 -29 53.5t-102 52.5q-111 45 -155.5 92.5t-44.5 124.5q0 86 61.5 140t160.5 54q150 0 216 -131l-117 -73
q-33 79 -103 79q-32 0 -54.5 -19t-22.5 -47q0 -30 28 -52.5t105 -52.5q112 -44 155 -89t43 -119q0 -100 -69.5 -162t-177.5 -62z" />
    <glyph glyph-name="scaron" unicode="&#x161;" horiz-adv-x="441" 
d="M226 530l-158 167h104l54 -58l55 58h103zM220 -11q-76 0 -133 41.5t-75 99.5l107 48q9 -22 16 -35.5t29 -28t53 -14.5q34 0 50.5 13.5t16.5 31.5q0 20 -25 33t-61 23t-72.5 24t-61.5 47t-25 83q0 73 53.5 111t129.5 38q129 0 191 -108l-104 -58q-35 63 -90 63
q-24 0 -38 -10t-14 -25q0 -19 25.5 -30.5t62.5 -20.5t74 -23.5t62.5 -48t25.5 -84.5q0 -83 -59.5 -126.5t-137.5 -43.5z" />
    <glyph glyph-name="uni0162" unicode="&#x162;" horiz-adv-x="567" 
d="M355 0h-32l-38 -45q26 -5 48 -19q40 -27 40 -78q0 -50 -33.5 -83.5t-85.5 -33.5q-46 0 -82 27l42 66q20 -16 44 -16q16 0 26 9.5t10 25.5q0 36 -45 45q-20 5 -67 5l61 97h-30v568h-211v129h564v-129h-211v-568z" />
    <glyph glyph-name="uni0163" unicode="&#x163;" horiz-adv-x="372" 
d="M343 387h-124v-228q0 -58 62 -58q27 0 62 11v-107q-42 -14 -89 -16l-29 -34q26 -5 48 -19q40 -27 40 -78q0 -50 -33.5 -83.5t-85.5 -33.5q-46 0 -82 27l42 66q20 -16 44 -16q16 0 26 9.5t10 25.5q0 36 -45 45q-20 5 -67 5l60 96q-98 31 -98 149v239h-80v106h80v84
l135 100v-184h124v-106z" />
    <glyph glyph-name="Tcaron" unicode="&#x164;" horiz-adv-x="567" 
d="M284 734l-158 167h104l54 -58l55 58h103zM213 0v568h-211v129h564v-129h-211v-568h-142z" />
    <glyph glyph-name="tcaron" unicode="&#x165;" horiz-adv-x="372" 
d="M455 786l-119 -229h-79l56 229h142zM219 677v-184h124v-106h-124v-228q0 -58 62 -58q27 0 62 11v-107q-45 -16 -95 -16q-72 0 -118 38.5t-46 120.5v239h-80v106h80v84z" />
    <glyph glyph-name="Tbar" unicode="&#x166;" horiz-adv-x="567" 
d="M566 568h-211v-173h98v-90h-98v-305h-142v305h-99v90h99v173h-211v129h564v-129z" />
    <glyph glyph-name="tbar" unicode="&#x167;" horiz-adv-x="372" 
d="M343 387h-124v-94h124v-90h-124v-44q0 -58 62 -58q27 0 62 11v-107q-45 -16 -95 -16q-72 0 -118 38.5t-46 120.5v55h-80v90h80v94h-80v106h80v84l135 100v-184h124v-106z" />
    <glyph glyph-name="Utilde" unicode="&#x168;" horiz-adv-x="673" 
d="M399 756q-26 0 -47.5 10t-33 22.5t-24 22.5t-22.5 10q-26 0 -26 -64h-78q0 70 29.5 108.5t80.5 38.5q29 0 53 -16t41 -32.5t28 -16.5q25 0 25 62h81q0 -70 -28.5 -107.5t-78.5 -37.5zM336 -17q-271 0 -271 269v445h141v-429q0 -83 28 -117.5t102 -34.5t102.5 35t28.5 116
v430h141v-440q0 -274 -272 -274z" />
    <glyph glyph-name="utilde" unicode="&#x169;" horiz-adv-x="572" 
d="M214 617q-26 0 -26 -64h-78q0 70 29.5 108.5t80.5 38.5q29 0 53 -16t41 -32.5t28 -16.5q25 0 25 62h81q0 -70 -28.5 -107.5t-78.5 -37.5q-26 0 -47.5 10t-33 22.5t-24 22.5t-22.5 10zM373 493h136v-493h-136v53q-50 -64 -142 -64q-91 0 -135.5 54.5t-44.5 143.5v306h135
v-276q0 -20 2 -35t9.5 -34t26.5 -29.5t48 -10.5q24 0 42 7.5t29 25t17.5 33.5t9 45t3 47t0.5 52v175z" />
    <glyph glyph-name="Umacron" unicode="&#x16a;" horiz-adv-x="673" 
d="M199 760v79h277v-79h-277zM336 -17q-271 0 -271 269v445h141v-429q0 -83 28 -117.5t102 -34.5t102.5 35t28.5 116v430h141v-440q0 -274 -272 -274z" />
    <glyph glyph-name="umacron" unicode="&#x16b;" horiz-adv-x="572" 
d="M418 635v-79h-277v79h277zM373 493h136v-493h-136v53q-50 -64 -142 -64q-91 0 -135.5 54.5t-44.5 143.5v306h135v-276q0 -20 2 -35t9.5 -34t26.5 -29.5t48 -10.5q24 0 42 7.5t29 25t17.5 33.5t9 45t3 47t0.5 52v175z" />
    <glyph glyph-name="Uring" unicode="&#x16e;" horiz-adv-x="673" 
d="M337 676q-50 0 -84.5 35.5t-34.5 83.5q0 49 35 84t84 35t84 -34.5t35 -84.5q0 -49 -35 -84t-84 -35zM337 748q21 0 34 13.5t13 34.5t-12.5 33t-34.5 12q-21 0 -33.5 -12.5t-12.5 -32.5q0 -21 13 -34.5t33 -13.5zM336 -17q-271 0 -271 269v445h141v-429q0 -83 28 -117.5
t102 -34.5t102.5 35t28.5 116v430h141v-440q0 -274 -272 -274z" />
    <glyph glyph-name="uring" unicode="&#x16f;" horiz-adv-x="572" 
d="M279 524q-50 0 -84.5 35.5t-34.5 83.5q0 49 35 84t84 35t84 -34.5t35 -84.5q0 -49 -35 -84t-84 -35zM279 689q-21 0 -33.5 -12.5t-12.5 -32.5q0 -21 13 -34.5t33 -13.5q21 0 34 13.5t13 34.5t-12.5 33t-34.5 12zM373 493h136v-493h-136v53q-50 -64 -142 -64
q-91 0 -135.5 54.5t-44.5 143.5v306h135v-276q0 -20 2 -35t9.5 -34t26.5 -29.5t48 -10.5q24 0 42 7.5t29 25t17.5 33.5t9 45t3 47t0.5 52v175z" />
    <glyph glyph-name="Uhungarumlaut" unicode="&#x170;" horiz-adv-x="673" 
d="M189 735l112 166h121l-135 -166h-98zM387 735l112 166h144l-157 -166h-99zM336 -17q-271 0 -271 269v445h141v-429q0 -83 28 -117.5t102 -34.5t102.5 35t28.5 116v430h141v-440q0 -274 -272 -274z" />
    <glyph glyph-name="uhungarumlaut" unicode="&#x171;" horiz-adv-x="572" 
d="M364 697l-135 -166h-98l112 166h121zM428 531h-99l112 166h144zM373 318v175h136v-493h-136v53q-50 -64 -142 -64q-91 0 -135.5 54.5t-44.5 143.5v306h135v-276q0 -20 2 -35t9.5 -34t26.5 -29.5t48 -10.5q24 0 42 7.5t29 25t17.5 33.5t9 45t3 47t0.5 52z" />
    <glyph glyph-name="Uogonek" unicode="&#x172;" horiz-adv-x="673" 
d="M467 697h141v-440q0 -240 -208 -270q-76 -38 -76 -92q0 -37 34 -37q29 0 47 28l69 -46q-42 -65 -112 -65q-51 0 -85 29.5t-34 76.5q0 62 55 103q-233 20 -233 268v445h141v-429q0 -83 28 -117.5t102 -34.5t102.5 35t28.5 116v430z" />
    <glyph glyph-name="uogonek" unicode="&#x173;" horiz-adv-x="572" 
d="M486 -114l69 -46q-42 -65 -112 -65q-51 0 -85 29.5t-34 76.5q0 77 79 119h-30v53q-50 -64 -142 -64q-91 0 -135.5 54.5t-44.5 143.5v306h135v-276q0 -20 2 -35t9.5 -34t26.5 -29.5t48 -10.5q24 0 42 7.5t29 25t17.5 33.5t9 45t3 47t0.5 52v175h136v-493q-9 -3 -23 -10
t-34 -20t-33.5 -33t-13.5 -42q0 -37 34 -37q29 0 47 28z" />
    <glyph glyph-name="Wcircumflex" unicode="&#x174;" horiz-adv-x="986" 
d="M336 743l158 179l158 -179h-104l-54 64l-55 -64h-103zM213 0l-211 697h147l141 -480l143 439h120l144 -439l140 480h148l-212 -697h-137l-143 433l-144 -433h-136z" />
    <glyph glyph-name="wcircumflex" unicode="&#x175;" horiz-adv-x="716" 
d="M201 539l158 179l158 -179h-104l-54 64l-55 -64h-103zM150 0l-154 493h144l78 -285l82 285h115l82 -283l78 283h145l-155 -493h-120l-87 301l-86 -301h-122z" />
    <glyph glyph-name="Ycircumflex" unicode="&#x176;" horiz-adv-x="644" 
d="M165 743l158 179l158 -179h-104l-54 64l-55 -64h-103zM253 0v274l-265 423h166l166 -288l169 288h167l-262 -423v-274h-141z" />
    <glyph glyph-name="ycircumflex" unicode="&#x177;" horiz-adv-x="504" 
d="M96 539l158 179l158 -179h-104l-54 64l-55 -64h-103zM87 -204l90 219l-189 478h150l111 -323l119 323h149l-283 -697h-147z" />
    <glyph glyph-name="Ydieresis" unicode="&#x178;" horiz-adv-x="644" 
d="M169 778v123h108v-123h-108zM369 778v123h107v-123h-107zM253 0v274l-265 423h166l166 -288l169 288h167l-262 -423v-274h-141z" />
    <glyph glyph-name="Zacute" unicode="&#x179;" horiz-adv-x="616" 
d="M516 901l-159 -142h-98l112 142h145zM587 697v-101l-372 -466h372v-130h-566v97l377 471h-354v129h543z" />
    <glyph glyph-name="zacute" unicode="&#x17a;" horiz-adv-x="459" 
d="M437 697l-159 -142h-98l112 142h145zM428 398l-224 -284h225v-114h-405v89l235 291h-224v113h393v-95z" />
    <glyph glyph-name="Zdotaccent" unicode="&#x17b;" horiz-adv-x="616" 
d="M378 901v-123h-140v123h140zM587 697v-101l-372 -466h372v-130h-566v97l377 471h-354v129h543z" />
    <glyph glyph-name="zdotaccent" unicode="&#x17c;" horiz-adv-x="459" 
d="M299 697v-123h-140v123h140zM204 114h225v-114h-405v89l235 291h-224v113h393v-95z" />
    <glyph glyph-name="Zcaron" unicode="&#x17d;" horiz-adv-x="616" 
d="M466 901l-158 -167l-158 167h104l54 -58l55 58h103zM587 697v-101l-372 -466h372v-130h-566v97l377 471h-354v129h543z" />
    <glyph glyph-name="zcaron" unicode="&#x17e;" horiz-adv-x="459" 
d="M387 697l-158 -167l-158 167h104l54 -58l55 58h103zM204 114h225v-114h-405v89l235 291h-224v113h393v-95z" />
    <glyph glyph-name="florin" unicode="&#x192;" horiz-adv-x="443" 
d="M27 -213v103q71 0 96.5 28t25.5 109v365h-88v101h88v62q0 70 41.5 115.5t106.5 45.5q76 0 131 -55l-73 -86q-28 27 -53 27q-16 0 -27.5 -11t-11.5 -36v-62h107v-101h-107v-377q0 -228 -236 -228z" />
    <glyph glyph-name="Ohorn" unicode="&#x1a0;" horiz-adv-x="735" 
d="M664 697h98v-36q0 -116 -85 -154q28 -73 28 -159q0 -164 -93.5 -264.5t-244.5 -100.5q-150 0 -243.5 101t-93.5 264q0 165 93.5 265.5t243.5 100.5q171 0 266 -126q31 17 31 72v37zM367 118q90 0 143 62t53 168q0 107 -53 169t-143 62t-143 -62t-53 -169t53 -168.5
t143 -61.5z" />
    <glyph glyph-name="ohorn" unicode="&#x1a1;" horiz-adv-x="538" 
d="M513 537h98v-36q0 -59 -26.5 -103t-80.5 -59q15 -44 15 -92q0 -107 -69 -182.5t-181 -75.5q-113 0 -181.5 75.5t-68.5 182.5q0 108 68 182.5t182 74.5q119 0 189 -83q55 5 55 79v37zM269 108q60 0 87.5 39.5t27.5 99.5q0 61 -27 100t-88 39q-60 0 -87.5 -39.5
t-27.5 -99.5t27.5 -99.5t87.5 -39.5z" />
    <glyph glyph-name="Uhorn" unicode="&#x1af;" horiz-adv-x="673" 
d="M662 697h98v-36q0 -71 -37 -118t-115 -51v-235q0 -274 -272 -274q-271 0 -271 269v445h141v-429q0 -83 28 -117.5t102 -34.5t102.5 35t28.5 116v430h141v-115q54 5 54 78v37z" />
    <glyph glyph-name="uhorn" unicode="&#x1b0;" horiz-adv-x="572" 
d="M483 608h98v-36q0 -106 -72 -148v-424h-136v53q-50 -64 -142 -64q-91 0 -135.5 54.5t-44.5 143.5v306h135v-276q0 -20 2 -35t9.5 -34t26.5 -29.5t48 -10.5q24 0 42 7.5t29 25t17.5 33.5t9 45t3 47t0.5 52v175h60q50 7 50 78v37z" />
    <glyph glyph-name="uni01CD" unicode="&#x1cd;" horiz-adv-x="662" 
d="M490 901l-158 -167l-158 167h104l54 -58l55 58h103zM514 0l-49 131h-268l-49 -131h-154l285 697h105l283 -697h-153zM246 261h171l-85 227z" />
    <glyph glyph-name="uni01CE" unicode="&#x1ce;" horiz-adv-x="526" 
d="M415 697l-158 -167l-158 167h104l54 -58l55 58h103zM259 504q101 0 159.5 -51.5t58.5 -140.5v-312h-124l-10 57q-48 -68 -140 -68q-80 0 -132 46.5t-52 119.5q0 87 71 123q46 23 122 23h130v11q0 34 -23.5 54t-65.5 20q-69 0 -126 -64l-98 82q88 100 230 100zM225 101
q48 0 82 29t35 71h-111q-42 0 -59 -13q-18 -12 -18 -35t18.5 -37.5t52.5 -14.5z" />
    <glyph glyph-name="uni01CF" unicode="&#x1cf;" horiz-adv-x="300" 
d="M150 734l-158 167h104l54 -58l55 58h103zM80 0v697h141v-697h-141z" />
    <glyph glyph-name="uni01D0" unicode="&#x1d0;" horiz-adv-x="262" 
d="M131 530l-158 167h104l54 -58l55 58h103zM63 0v493h136v-493h-136z" />
    <glyph glyph-name="uni01D1" unicode="&#x1d1;" horiz-adv-x="735" 
d="M367 734l-158 167h104l54 -58l55 58h103zM367 -17q-150 0 -243.5 101t-93.5 264q0 165 93.5 265.5t243.5 100.5q152 0 245 -100.5t93 -265.5q0 -164 -93.5 -264.5t-244.5 -100.5zM367 118q90 0 143 62t53 168q0 107 -53 169t-143 62t-143 -62t-53 -169t53 -168.5
t143 -61.5z" />
    <glyph glyph-name="uni01D2" unicode="&#x1d2;" horiz-adv-x="538" 
d="M269 530l-158 167h104l54 -58l55 58h103zM269 -11q-113 0 -181.5 75.5t-68.5 182.5q0 108 68 182.5t182 74.5q113 0 181.5 -74.5t68.5 -182.5q0 -107 -69 -182.5t-181 -75.5zM269 108q60 0 87.5 39.5t27.5 99.5q0 61 -27 100t-88 39q-60 0 -87.5 -39.5t-27.5 -99.5
t27.5 -99.5t87.5 -39.5z" />
    <glyph glyph-name="uni01D3" unicode="&#x1d3;" horiz-adv-x="673" 
d="M337 734l-158 167h104l54 -58l55 58h103zM336 -17q-271 0 -271 269v445h141v-429q0 -83 28 -117.5t102 -34.5t102.5 35t28.5 116v430h141v-440q0 -274 -272 -274z" />
    <glyph glyph-name="uni01D4" unicode="&#x1d4;" horiz-adv-x="572" 
d="M437 697l-158 -167l-158 167h104l54 -58l55 58h103zM373 493h136v-493h-136v53q-50 -64 -142 -64q-91 0 -135.5 54.5t-44.5 143.5v306h135v-276q0 -20 2 -35t9.5 -34t26.5 -29.5t48 -10.5q24 0 42 7.5t29 25t17.5 33.5t9 45t3 47t0.5 52v175z" />
    <glyph glyph-name="uni01D5" unicode="&#x1d5;" horiz-adv-x="673" 
d="M199 964v79h277v-79h-277zM184 778v123h108v-123h-108zM384 778v123h107v-123h-107zM336 -17q-271 0 -271 269v445h141v-429q0 -83 28 -117.5t102 -34.5t102.5 35t28.5 116v430h141v-440q0 -274 -272 -274z" />
    <glyph glyph-name="uni01D6" unicode="&#x1d6;" horiz-adv-x="572" 
d="M418 839v-79h-277v79h277zM234 697v-123h-108v123h108zM326 574v123h107v-123h-107zM373 493h136v-493h-136v53q-50 -64 -142 -64q-91 0 -135.5 54.5t-44.5 143.5v306h135v-276q0 -20 2 -35t9.5 -34t26.5 -29.5t48 -10.5q24 0 42 7.5t29 25t17.5 33.5t9 45t3 47t0.5 52
v175z" />
    <glyph glyph-name="uni01D7" unicode="&#x1d7;" horiz-adv-x="673" 
d="M288 963l112 142h145l-159 -142h-98zM184 778v123h108v-123h-108zM384 778v123h107v-123h-107zM336 -17q-271 0 -271 269v445h141v-429q0 -83 28 -117.5t102 -34.5t102.5 35t28.5 116v430h141v-440q0 -274 -272 -274z" />
    <glyph glyph-name="uni01D8" unicode="&#x1d8;" horiz-adv-x="572" 
d="M487 901l-159 -142h-98l112 142h145zM234 697v-123h-108v123h108zM326 574v123h107v-123h-107zM373 493h136v-493h-136v53q-50 -64 -142 -64q-91 0 -135.5 54.5t-44.5 143.5v306h135v-276q0 -20 2 -35t9.5 -34t26.5 -29.5t48 -10.5q24 0 42 7.5t29 25t17.5 33.5t9 45
t3 47t0.5 52v175z" />
    <glyph glyph-name="uni01D9" unicode="&#x1d9;" horiz-adv-x="673" 
d="M337 938l-158 167h104l54 -58l55 58h103zM184 778v123h108v-123h-108zM384 778v123h107v-123h-107zM336 -17q-271 0 -271 269v445h141v-429q0 -83 28 -117.5t102 -34.5t102.5 35t28.5 116v430h141v-440q0 -274 -272 -274z" />
    <glyph glyph-name="uni01DA" unicode="&#x1da;" horiz-adv-x="572" 
d="M437 901l-158 -167l-158 167h104l54 -58l55 58h103zM234 574h-108v123h108v-123zM433 574h-107v123h107v-123zM373 493h136v-493h-136v53q-50 -64 -142 -64q-91 0 -135.5 54.5t-44.5 143.5v306h135v-276q0 -20 2 -35t9.5 -34t26.5 -29.5t48 -10.5q24 0 42 7.5t29 25
t17.5 33.5t9 45t3 47t0.5 52v175z" />
    <glyph glyph-name="uni01DB" unicode="&#x1db;" horiz-adv-x="673" 
d="M287 963l-147 142h144l104 -142h-101zM184 778v123h108v-123h-108zM384 778v123h107v-123h-107zM336 -17q-271 0 -271 269v445h141v-429q0 -83 28 -117.5t102 -34.5t102.5 35t28.5 116v430h141v-440q0 -274 -272 -274z" />
    <glyph glyph-name="uni01DC" unicode="&#x1dc;" horiz-adv-x="572" 
d="M330 759h-101l-147 142h144zM126 574v123h108v-123h-108zM326 574v123h107v-123h-107zM373 493h136v-493h-136v53q-50 -64 -142 -64q-91 0 -135.5 54.5t-44.5 143.5v306h135v-276q0 -20 2 -35t9.5 -34t26.5 -29.5t48 -10.5q24 0 42 7.5t29 25t17.5 33.5t9 45t3 47t0.5 52
v175z" />
    <glyph glyph-name="uni0218" unicode="&#x218;" horiz-adv-x="552" 
d="M286 -14q-107 0 -182.5 59t-91.5 156l140 35q6 -60 42.5 -92.5t93.5 -32.5q47 0 75.5 22.5t28.5 63.5q0 30 -29 53.5t-102 52.5q-111 45 -155.5 92.5t-44.5 124.5q0 86 61.5 140t160.5 54q150 0 216 -131l-117 -73q-33 79 -103 79q-32 0 -54.5 -19t-22.5 -47
q0 -30 28 -52.5t105 -52.5q112 -44 155 -89t43 -119q0 -100 -69.5 -162t-177.5 -62zM145 -228l61 176h141l-124 -176h-78z" />
    <glyph glyph-name="uni0219" unicode="&#x219;" horiz-adv-x="441" 
d="M220 -11q-76 0 -133 41.5t-75 99.5l107 48q9 -22 16 -35.5t29 -28t53 -14.5q34 0 50.5 13.5t16.5 31.5q0 20 -25 33t-61 23t-72.5 24t-61.5 47t-25 83q0 73 53.5 111t129.5 38q129 0 191 -108l-104 -58q-35 63 -90 63q-24 0 -38 -10t-14 -25q0 -19 25.5 -30.5t62.5 -20.5
t74 -23.5t62.5 -48t25.5 -84.5q0 -83 -59.5 -126.5t-137.5 -43.5zM94 -228l61 176h141l-124 -176h-78z" />
    <glyph glyph-name="uni021A" unicode="&#x21a;" horiz-adv-x="567" 
d="M213 0v568h-211v129h564v-129h-211v-568h-142zM152 -228l61 176h141l-124 -176h-78z" />
    <glyph glyph-name="uni021B" unicode="&#x21b;" horiz-adv-x="372" 
d="M343 387h-124v-228q0 -58 62 -58q27 0 62 11v-107q-45 -16 -95 -16q-72 0 -118 38.5t-46 120.5v239h-80v106h80v84l135 100v-184h124v-106zM92 -228l61 176h141l-124 -176h-78z" />
    <glyph glyph-name="uni0237" unicode="&#x237;" horiz-adv-x="264" 
d="M75 -215q-40 0 -86 16l-1 108q22 -6 40 -6t27 7.5t9 27.5v555h136v-575q0 -66 -34 -99.5t-91 -33.5z" />
    <glyph glyph-name="circumflex" unicode="&#x2c6;" horiz-adv-x="309" 
d="M-4 539l159 179l158 -179h-104l-54 64l-55 -64h-104z" />
    <glyph glyph-name="caron" unicode="&#x2c7;" horiz-adv-x="312" 
d="M156 530l-158 167h104l54 -58l55 58h103z" />
    <glyph glyph-name="breve" unicode="&#x2d8;" horiz-adv-x="387" 
d="M193 564q-157 0 -157 133h95q0 -27 18 -41t44 -14q27 0 44.5 14.5t17.5 40.5h96q0 -133 -158 -133z" />
    <glyph glyph-name="dotaccent" unicode="&#x2d9;" horiz-adv-x="262" 
d="M61 574v123h140v-123h-140z" />
    <glyph glyph-name="ring" unicode="&#x2da;" horiz-adv-x="302" 
d="M151 524q-50 0 -84.5 35.5t-34.5 83.5q0 49 35 84t84 35t84 -34.5t35 -84.5q0 -49 -35 -84t-84 -35zM151 596q21 0 34 13.5t13 34.5t-12.5 33t-34.5 12q-21 0 -33.5 -12.5t-12.5 -32.5q0 -21 13 -34.5t33 -13.5z" />
    <glyph glyph-name="ogonek" unicode="&#x2db;" horiz-adv-x="268" 
d="M189 -114l68 -47q-43 -61 -109 -61q-49 0 -81.5 29t-32.5 74q0 22 7.5 41.5t18 32.5t21 23t17.5 16l8 5l105 1q-35 -12 -66 -40t-31 -60q0 -39 31 -39q24 0 44 25zM105 -1h1h-1z" />
    <glyph glyph-name="tilde" unicode="&#x2dc;" horiz-adv-x="417" 
d="M270 552q-26 0 -47.5 10t-33 22.5t-24 22.5t-22.5 10q-26 0 -26 -64h-78q0 70 29.5 108.5t80.5 38.5q29 0 53 -16t41 -32.5t28 -16.5q25 0 25 62h81q0 -70 -28.5 -107.5t-78.5 -37.5z" />
    <glyph glyph-name="hungarumlaut" unicode="&#x2dd;" horiz-adv-x="461" 
d="M9 531l112 166h121l-135 -166h-98zM207 531l112 166h144l-157 -166h-99z" />
    <glyph glyph-name="uni02F5" unicode="&#x2f5;" horiz-adv-x="539" 
d="M188 326l-158 167h145l112 -167h-99zM400 326l-156 167h144l111 -167h-99z" />
    <glyph glyph-name="uni02F6" unicode="&#x2f6;" horiz-adv-x="539" 
d="M41 326l110 167h144l-156 -167h-98zM253 326l112 167h145l-158 -167h-99z" />
    <glyph glyph-name="gravecomb" unicode="&#x300;" 
d="M-112 555l-147 142h144l104 -142h-101z" />
    <glyph glyph-name="acutecomb" unicode="&#x301;" 
d="M-259 555l112 142h145l-159 -142h-98z" />
    <glyph glyph-name="uni0302" unicode="&#x302;" 
d="M-313 539l159 179l158 -179h-104l-54 64l-55 -64h-104z" />
    <glyph glyph-name="tildecomb" unicode="&#x303;" 
d="M-147 552q-26 0 -47.5 10t-33 22.5t-24 22.5t-22.5 10q-26 0 -26 -64h-78q0 70 29.5 108.5t80.5 38.5q29 0 53 -16t41 -32.5t28 -16.5q25 0 25 62h81q0 -70 -28.5 -107.5t-78.5 -37.5z" />
    <glyph glyph-name="uni0304" unicode="&#x304;" 
d="M-337 556v79h277v-79h-277z" />
    <glyph glyph-name="uni0306" unicode="&#x306;" 
d="M-194 564q-157 0 -157 133h95q0 -27 18 -41t44 -14q27 0 44.5 14.5t17.5 40.5h96q0 -133 -158 -133z" />
    <glyph glyph-name="uni0307" unicode="&#x307;" 
d="M-201 574v123h140v-123h-140z" />
    <glyph glyph-name="uni0308" unicode="&#x308;" 
d="M-368 574v123h108v-123h-108zM-168 574v123h107v-123h-107z" />
    <glyph glyph-name="hookabovecomb" unicode="&#x309;" 
d="M-165 521l-16 55q20 3 29 5t19 9t10 20q0 14 -12 20.5t-24 7.5t-36 1h-16v79h16q74 0 118.5 -26.5t44.5 -75.5q0 -26 -12 -44.5t-35.5 -28.5t-40.5 -14t-45 -8z" />
    <glyph glyph-name="uni030A" unicode="&#x30a;" 
d="M-151 524q-50 0 -84.5 35.5t-34.5 83.5q0 49 35 84t84 35t84 -34.5t35 -84.5q0 -49 -35 -84t-84 -35zM-151 596q21 0 34 13.5t13 34.5t-12.5 33t-34.5 12q-21 0 -33.5 -12.5t-12.5 -32.5q0 -21 13 -34.5t33 -13.5z" />
    <glyph glyph-name="uni030B" unicode="&#x30b;" 
d="M-452 531l112 166h121l-135 -166h-98zM-254 531l112 166h144l-157 -166h-99z" />
    <glyph glyph-name="uni030C" unicode="&#x30c;" 
d="M-156 530l-158 167h104l54 -58l55 58h103z" />
    <glyph glyph-name="uni030F" unicode="&#x30f;" 
d="M-306 531l-158 166h144l112 -166h-98zM-108 531l-134 166h121l112 -166h-99z" />
    <glyph glyph-name="uni0312" unicode="&#x312;" 
d="M-233 551l123 158h78l-61 -158h-140z" />
    <glyph glyph-name="uni031B" unicode="&#x31b;" 
d="M-199 492v89q64 0 64 79v37h98v-36q0 -74 -39.5 -121.5t-122.5 -47.5z" />
    <glyph glyph-name="dotbelowcomb" unicode="&#x323;" 
d="M-201 -173v114h140v-114h-140z" />
    <glyph glyph-name="uni0326" unicode="&#x326;" 
d="M-208 -228l61 176h141l-124 -176h-78z" />
    <glyph glyph-name="uni0327" unicode="&#x327;" 
d="M-150 -259q-46 0 -82 27l42 66q20 -16 44 -16q16 0 26 9.5t10 25.5q0 36 -45 45q-20 5 -67 5l61 97h80l-38 -45q26 -5 48 -19q40 -27 40 -78q0 -50 -33.5 -83.5t-85.5 -33.5z" />
    <glyph glyph-name="uni0328" unicode="&#x328;" 
d="M-124 -225q-51 0 -85 29.5t-34 76.5q0 77 79 119h106q-9 -3 -23 -10t-34 -20t-33.5 -33t-13.5 -42q0 -37 34 -37q29 0 47 28l69 -46q-42 -65 -112 -65z" />
    <glyph glyph-name="uni0335" unicode="&#x335;" 
d="M-400 247v90h339v-90h-339z" />
    <glyph glyph-name="uni0336" unicode="&#x336;" 
d="M-723 241v79h663v-79h-663z" />
    <glyph glyph-name="uni0337" unicode="&#x337;" 
d="M-254 177v140l236 186v-137z" />
    <glyph glyph-name="uni0338" unicode="&#x338;" 
d="M-424 0l346 576h103l-348 -576h-101z" />
    <glyph glyph-name="uni0394" unicode="&#x394;" horiz-adv-x="588" 
d="M-8 0l282 697h33l283 -697h-598zM159 114h266l-134 350z" />
    <glyph glyph-name="uni03A9" unicode="&#x3a9;" horiz-adv-x="790" 
d="M743 351q0 -66 -29.5 -130.5t-80.5 -112.5h104v-108h-291v97q89 38 133.5 95.5t44.5 157.5q0 106 -63 171.5t-169 65.5q-105 0 -168.5 -65t-63.5 -172q0 -102 44.5 -159.5t133.5 -93.5v-97h-291v108h103q-50 47 -79.5 112t-29.5 131q0 149 100 249.5t251 100.5
q150 0 250.5 -101t100.5 -249z" />
    <glyph glyph-name="uni03BC" unicode="&#x3bc;" horiz-adv-x="586" 
d="M64 -160v653h135v-276q0 -46 22.5 -74t66.5 -28q53 0 76.5 33.5t23.5 80.5v264h135v-493h-135v51q-54 -62 -135 -62q-47 0 -79 22v-171h-110z" />
    <glyph glyph-name="pi" unicode="&#x3c0;" horiz-adv-x="561" 
d="M460 -11q-113 0 -113 113v278h-152v-380h-114v380h-58v113h503v-113h-65v-266q0 -26 18 -26q13 0 25 10l36 -85q-36 -24 -80 -24z" />
    <glyph glyph-name="Wgrave" unicode="&#x1e80;" horiz-adv-x="986" 
d="M443 759l-147 142h144l104 -142h-101zM213 0l-211 697h147l141 -480l143 439h120l144 -439l140 480h148l-212 -697h-137l-143 433l-144 -433h-136z" />
    <glyph glyph-name="wgrave" unicode="&#x1e81;" horiz-adv-x="716" 
d="M308 555l-147 142h144l104 -142h-101zM150 0l-154 493h144l78 -285l82 285h115l82 -283l78 283h145l-155 -493h-120l-87 301l-86 -301h-122z" />
    <glyph glyph-name="Wacute" unicode="&#x1e82;" horiz-adv-x="986" 
d="M444 759l112 142h145l-159 -142h-98zM213 0l-211 697h147l141 -480l143 439h120l144 -439l140 480h148l-212 -697h-137l-143 433l-144 -433h-136z" />
    <glyph glyph-name="wacute" unicode="&#x1e83;" horiz-adv-x="716" 
d="M309 555l112 142h145l-159 -142h-98zM150 0l-154 493h144l78 -285l82 285h115l82 -283l78 283h145l-155 -493h-120l-87 301l-86 -301h-122z" />
    <glyph glyph-name="Wdieresis" unicode="&#x1e84;" horiz-adv-x="986" 
d="M340 778v123h108v-123h-108zM540 778v123h107v-123h-107zM213 0l-211 697h147l141 -480l143 439h120l144 -439l140 480h148l-212 -697h-137l-143 433l-144 -433h-136z" />
    <glyph glyph-name="wdieresis" unicode="&#x1e85;" horiz-adv-x="716" 
d="M205 574v123h108v-123h-108zM405 574v123h107v-123h-107zM150 0l-154 493h144l78 -285l82 285h115l82 -283l78 283h145l-155 -493h-120l-87 301l-86 -301h-122z" />
    <glyph glyph-name="uni1E9E" unicode="&#x1e9e;" horiz-adv-x="677" 
d="M458 -17q-82 0 -142 42t-79 105l120 63q35 -79 105 -79q45 0 45 36q0 22 -23 36.5t-55.5 24.5t-65.5 23t-56 41t-23 70q0 18 3 33.5t11.5 30t13.5 22.5t19 25t18 23l64 82h-73q-73 0 -104.5 -32t-31.5 -107v-422h-141v422q0 41 4.5 73.5t21 72t45 66t81.5 45t125 18.5
h255v-121l-152 -184q-15 -19 -15 -30q0 -14 24 -23t58.5 -19t69 -26t58.5 -51t24 -87q0 -76 -57.5 -124.5t-146.5 -48.5z" />
    <glyph glyph-name="uni1EA0" unicode="&#x1ea0;" horiz-adv-x="662" 
d="M667 0h-153l-49 131h-268l-49 -131h-154l285 697h105zM246 261h171l-85 227zM262 -173v114h140v-114h-140z" />
    <glyph glyph-name="uni1EA1" unicode="&#x1ea1;" horiz-adv-x="526" 
d="M259 504q101 0 159.5 -51.5t58.5 -140.5v-312h-124l-10 57q-48 -68 -140 -68q-80 0 -132 46.5t-52 119.5q0 87 71 123q46 23 122 23h130v11q0 34 -23.5 54t-65.5 20q-69 0 -126 -64l-98 82q88 100 230 100zM225 101q48 0 82 29t35 71h-111q-42 0 -59 -13q-18 -12 -18 -35
t18.5 -37.5t52.5 -14.5zM187 -173v114h140v-114h-140z" />
    <glyph glyph-name="uni1EA2" unicode="&#x1ea2;" horiz-adv-x="662" 
d="M356 814q0 14 -12 20.5t-24 7.5t-36 1h-16v79h16q74 0 118.5 -26.5t44.5 -75.5q0 -26 -12 -44.5t-35.5 -28.5t-40.5 -14t-45 -8l-16 55q20 3 29 5t19 9t10 20zM514 0l-49 131h-268l-49 -131h-154l285 697h105l283 -697h-153zM246 261h171l-85 227z" />
    <glyph glyph-name="uni1EA3" unicode="&#x1ea3;" horiz-adv-x="526" 
d="M281 610q0 14 -12 20.5t-24 7.5t-36 1h-16v79h16q74 0 118.5 -26.5t44.5 -75.5q0 -26 -12 -44.5t-35.5 -28.5t-40.5 -14t-45 -8l-16 55q20 3 29 5t19 9t10 20zM259 504q101 0 159.5 -51.5t58.5 -140.5v-312h-124l-10 57q-48 -68 -140 -68q-80 0 -132 46.5t-52 119.5
q0 87 71 123q46 23 122 23h130v11q0 34 -23.5 54t-65.5 20q-69 0 -126 -64l-98 82q88 100 230 100zM225 101q48 0 82 29t35 71h-111q-42 0 -59 -13q-18 -12 -18 -35t18.5 -37.5t52.5 -14.5z" />
    <glyph glyph-name="uni1EA4" unicode="&#x1ea4;" horiz-adv-x="662" 
d="M540 1089l-159 -142h-98l112 142h145zM332 807l-55 -64h-103l158 179l158 -179h-104zM514 0l-49 131h-268l-49 -131h-154l285 697h105l283 -697h-153zM246 261h171l-85 227z" />
    <glyph glyph-name="uni1EA5" unicode="&#x1ea5;" horiz-adv-x="526" 
d="M465 885l-159 -142h-98l112 142h145zM257 603l-55 -64h-103l158 179l158 -179h-104zM259 504q101 0 159.5 -51.5t58.5 -140.5v-312h-124l-10 57q-48 -68 -140 -68q-80 0 -132 46.5t-52 119.5q0 87 71 123q46 23 122 23h130v11q0 34 -23.5 54t-65.5 20q-69 0 -126 -64
l-98 82q88 100 230 100zM225 101q48 0 82 29t35 71h-111q-42 0 -59 -13q-18 -12 -18 -35t18.5 -37.5t52.5 -14.5z" />
    <glyph glyph-name="uni1EA6" unicode="&#x1ea6;" horiz-adv-x="662" 
d="M382 947h-101l-147 142h144zM174 743l158 179l158 -179h-104l-54 64l-55 -64h-103zM514 0l-49 131h-268l-49 -131h-154l285 697h105l283 -697h-153zM246 261h171l-85 227z" />
    <glyph glyph-name="uni1EA7" unicode="&#x1ea7;" horiz-adv-x="526" 
d="M307 743h-101l-147 142h144zM99 539l158 179l158 -179h-104l-54 64l-55 -64h-103zM259 504q101 0 159.5 -51.5t58.5 -140.5v-312h-124l-10 57q-48 -68 -140 -68q-80 0 -132 46.5t-52 119.5q0 87 71 123q46 23 122 23h130v11q0 34 -23.5 54t-65.5 20q-69 0 -126 -64
l-98 82q88 100 230 100zM225 101q48 0 82 29t35 71h-111q-42 0 -59 -13q-18 -12 -18 -35t18.5 -37.5t52.5 -14.5z" />
    <glyph glyph-name="uni1EA8" unicode="&#x1ea8;" horiz-adv-x="662" 
d="M277 743h-103l152 172q-2 -1 -6 -1t-6 -1l-16 55q20 3 29 5t19 9t10 20q0 14 -12 20.5t-24 7.5t-36 1h-16v79h16q74 0 118.5 -26.5t44.5 -75.5q0 -72 -110 -91l153 -174h-104l-54 64zM514 0l-49 131h-268l-49 -131h-154l285 697h105l283 -697h-153zM246 261h171l-85 227z
" />
    <glyph glyph-name="uni1EA9" unicode="&#x1ea9;" horiz-adv-x="526" 
d="M202 539h-103l152 172q-2 -1 -6 -1t-6 -1l-16 55q20 3 29 5t19 9t10 20q0 14 -12 20.5t-24 7.5t-36 1h-16v79h16q74 0 118.5 -26.5t44.5 -75.5q0 -72 -110 -91l153 -174h-104l-54 64zM259 504q101 0 159.5 -51.5t58.5 -140.5v-312h-124l-10 57q-48 -68 -140 -68
q-80 0 -132 46.5t-52 119.5q0 87 71 123q46 23 122 23h130v11q0 34 -23.5 54t-65.5 20q-69 0 -126 -64l-98 82q88 100 230 100zM225 101q48 0 82 29t35 71h-111q-42 0 -59 -13q-18 -12 -18 -35t18.5 -37.5t52.5 -14.5z" />
    <glyph glyph-name="uni1EAA" unicode="&#x1eaa;" horiz-adv-x="662" 
d="M266 1009q-26 0 -26 -64h-78q0 70 29.5 108.5t80.5 38.5q29 0 53 -16.5t41 -32.5t28 -16q25 0 25 62h81q0 -70 -28.5 -107.5t-78.5 -37.5q-26 0 -47.5 10t-33 22.5t-24 22.5t-22.5 10zM174 743l158 179l158 -179h-104l-54 64l-55 -64h-103zM514 0l-49 131h-268l-49 -131
h-154l285 697h105l283 -697h-153zM246 261h171l-85 227z" />
    <glyph glyph-name="uni1EAB" unicode="&#x1eab;" horiz-adv-x="526" 
d="M191 805q-26 0 -26 -64h-78q0 70 29.5 108.5t80.5 38.5q29 0 53 -16t41 -32.5t28 -16.5q25 0 25 62h81q0 -70 -28.5 -107.5t-78.5 -37.5q-26 0 -47.5 10t-33 22.5t-24 22.5t-22.5 10zM99 539l158 179l158 -179h-104l-54 64l-55 -64h-103zM259 504q101 0 159.5 -51.5
t58.5 -140.5v-312h-124l-10 57q-48 -68 -140 -68q-80 0 -132 46.5t-52 119.5q0 87 71 123q46 23 122 23h130v11q0 34 -23.5 54t-65.5 20q-69 0 -126 -64l-98 82q88 100 230 100zM225 101q48 0 82 29t35 71h-111q-42 0 -59 -13q-18 -12 -18 -35t18.5 -37.5t52.5 -14.5z" />
    <glyph glyph-name="uni1EAC" unicode="&#x1eac;" horiz-adv-x="662" 
d="M332 807l-55 -64h-103l158 179l158 -179h-104zM667 0h-153l-49 131h-268l-49 -131h-154l285 697h105zM246 261h171l-85 227zM262 -173v114h140v-114h-140z" />
    <glyph glyph-name="uni1EAD" unicode="&#x1ead;" horiz-adv-x="526" 
d="M257 603l-55 -64h-103l158 179l158 -179h-104zM259 504q101 0 159.5 -51.5t58.5 -140.5v-312h-124l-10 57q-48 -68 -140 -68q-80 0 -132 46.5t-52 119.5q0 87 71 123q46 23 122 23h130v11q0 34 -23.5 54t-65.5 20q-69 0 -126 -64l-98 82q88 100 230 100zM225 101
q48 0 82 29t35 71h-111q-42 0 -59 -13q-18 -12 -18 -35t18.5 -37.5t52.5 -14.5zM187 -173v114h140v-114h-140z" />
    <glyph glyph-name="uni1EAE" unicode="&#x1eae;" horiz-adv-x="662" 
d="M540 1105l-159 -142h-98l112 142h145zM332 768q-157 0 -157 133h95q0 -27 18 -41t44 -14q27 0 44.5 14.5t17.5 40.5h96q0 -133 -158 -133zM514 0l-49 131h-268l-49 -131h-154l285 697h105l283 -697h-153zM246 261h171l-85 227z" />
    <glyph glyph-name="uni1EAF" unicode="&#x1eaf;" horiz-adv-x="526" 
d="M465 901l-159 -142h-98l112 142h145zM257 564q-157 0 -157 133h95q0 -27 18 -41t44 -14q27 0 44.5 14.5t17.5 40.5h96q0 -133 -158 -133zM259 504q101 0 159.5 -51.5t58.5 -140.5v-312h-124l-10 57q-48 -68 -140 -68q-80 0 -132 46.5t-52 119.5q0 87 71 123q46 23 122 23
h130v11q0 34 -23.5 54t-65.5 20q-69 0 -126 -64l-98 82q88 100 230 100zM225 101q48 0 82 29t35 71h-111q-42 0 -59 -13q-18 -12 -18 -35t18.5 -37.5t52.5 -14.5z" />
    <glyph glyph-name="uni1EB0" unicode="&#x1eb0;" horiz-adv-x="662" 
d="M382 963h-101l-147 142h144zM332 846q27 0 44.5 14.5t17.5 40.5h96q0 -133 -158 -133q-157 0 -157 133h95q0 -27 18 -41t44 -14zM514 0l-49 131h-268l-49 -131h-154l285 697h105l283 -697h-153zM246 261h171l-85 227z" />
    <glyph glyph-name="uni1EB1" unicode="&#x1eb1;" horiz-adv-x="526" 
d="M307 759h-101l-147 142h144zM257 642q27 0 44.5 14.5t17.5 40.5h96q0 -133 -158 -133q-157 0 -157 133h95q0 -27 18 -41t44 -14zM259 504q101 0 159.5 -51.5t58.5 -140.5v-312h-124l-10 57q-48 -68 -140 -68q-80 0 -132 46.5t-52 119.5q0 87 71 123q46 23 122 23h130v11
q0 34 -23.5 54t-65.5 20q-69 0 -126 -64l-98 82q88 100 230 100zM225 101q48 0 82 29t35 71h-111q-42 0 -59 -13q-18 -12 -18 -35t18.5 -37.5t52.5 -14.5z" />
    <glyph glyph-name="uni1EB2" unicode="&#x1eb2;" horiz-adv-x="662" 
d="M356 1018q0 14 -12 20.5t-24 7.5t-36 1h-16v79h16q74 0 118.5 -26.5t44.5 -75.5q0 -26 -12 -44.5t-35.5 -28.5t-40.5 -14t-45 -8l-16 55q20 3 29 5t19 9t10 20zM332 768q-157 0 -157 133h95q0 -27 18 -41t44 -14q27 0 44.5 14.5t17.5 40.5h96q0 -133 -158 -133zM514 0
l-49 131h-268l-49 -131h-154l285 697h105l283 -697h-153zM246 261h171l-85 227z" />
    <glyph glyph-name="uni1EB3" unicode="&#x1eb3;" horiz-adv-x="526" 
d="M281 814q0 14 -12 20.5t-24 7.5t-36 1h-16v79h16q74 0 118.5 -26.5t44.5 -75.5q0 -26 -12 -44.5t-35.5 -28.5t-40.5 -14t-45 -8l-16 55q20 3 29 5t19 9t10 20zM257 564q-157 0 -157 133h95q0 -27 18 -41t44 -14q27 0 44.5 14.5t17.5 40.5h96q0 -133 -158 -133zM259 504
q101 0 159.5 -51.5t58.5 -140.5v-312h-124l-10 57q-48 -68 -140 -68q-80 0 -132 46.5t-52 119.5q0 87 71 123q46 23 122 23h130v11q0 34 -23.5 54t-65.5 20q-69 0 -126 -64l-98 82q88 100 230 100zM225 101q48 0 82 29t35 71h-111q-42 0 -59 -13q-18 -12 -18 -35t18.5 -37.5
t52.5 -14.5z" />
    <glyph glyph-name="uni1EB4" unicode="&#x1eb4;" horiz-adv-x="662" 
d="M266 1025q-26 0 -26 -64h-78q0 70 29.5 108.5t80.5 38.5q29 0 53 -16.5t41 -32.5t28 -16q25 0 25 62h81q0 -70 -28.5 -107.5t-78.5 -37.5q-26 0 -47.5 10t-33 22.5t-24 22.5t-22.5 10zM332 846q27 0 44.5 14.5t17.5 40.5h96q0 -133 -158 -133q-157 0 -157 133h95
q0 -27 18 -41t44 -14zM514 0l-49 131h-268l-49 -131h-154l285 697h105l283 -697h-153zM246 261h171l-85 227z" />
    <glyph glyph-name="uni1EB5" unicode="&#x1eb5;" horiz-adv-x="526" 
d="M191 821q-26 0 -26 -64h-78q0 70 29.5 108.5t80.5 38.5q29 0 53 -16t41 -32.5t28 -16.5q25 0 25 62h81q0 -70 -28.5 -107.5t-78.5 -37.5q-26 0 -47.5 10t-33 22.5t-24 22.5t-22.5 10zM257 642q27 0 44.5 14.5t17.5 40.5h96q0 -133 -158 -133q-157 0 -157 133h95
q0 -27 18 -41t44 -14zM259 504q101 0 159.5 -51.5t58.5 -140.5v-312h-124l-10 57q-48 -68 -140 -68q-80 0 -132 46.5t-52 119.5q0 87 71 123q46 23 122 23h130v11q0 34 -23.5 54t-65.5 20q-69 0 -126 -64l-98 82q88 100 230 100zM225 101q48 0 82 29t35 71h-111
q-42 0 -59 -13q-18 -12 -18 -35t18.5 -37.5t52.5 -14.5z" />
    <glyph glyph-name="uni1EB6" unicode="&#x1eb6;" horiz-adv-x="662" 
d="M332 768q-157 0 -157 133h95q0 -27 18 -41t44 -14q27 0 44.5 14.5t17.5 40.5h96q0 -133 -158 -133zM667 0h-153l-49 131h-268l-49 -131h-154l285 697h105zM246 261h171l-85 227zM262 -173v114h140v-114h-140z" />
    <glyph glyph-name="uni1EB7" unicode="&#x1eb7;" horiz-adv-x="526" 
d="M257 564q-157 0 -157 133h95q0 -27 18 -41t44 -14q27 0 44.5 14.5t17.5 40.5h96q0 -133 -158 -133zM259 504q101 0 159.5 -51.5t58.5 -140.5v-312h-124l-10 57q-48 -68 -140 -68q-80 0 -132 46.5t-52 119.5q0 87 71 123q46 23 122 23h130v11q0 34 -23.5 54t-65.5 20
q-69 0 -126 -64l-98 82q88 100 230 100zM225 101q48 0 82 29t35 71h-111q-42 0 -59 -13q-18 -12 -18 -35t18.5 -37.5t52.5 -14.5zM187 -173v114h140v-114h-140z" />
    <glyph glyph-name="uni1EB8" unicode="&#x1eb8;" horiz-adv-x="601" 
d="M80 0v697h466v-129h-325v-143h305v-130h-305v-165h325v-130h-466zM243 -173v114h140v-114h-140z" />
    <glyph glyph-name="uni1EB9" unicode="&#x1eb9;" horiz-adv-x="513" 
d="M491 248q0 -20 -3 -47h-331q5 -41 33 -65t79 -24q68 0 111 51l94 -83q-82 -91 -206 -91q-123 0 -184.5 74t-61.5 181q0 106 60 183t178 77q111 0 171 -71.5t60 -184.5zM156 304h206q-1 40 -30.5 63.5t-72.5 23.5q-47 0 -72.5 -26t-30.5 -61zM198 -173v114h140v-114h-140z
" />
    <glyph glyph-name="uni1EBA" unicode="&#x1eba;" horiz-adv-x="601" 
d="M295 725l-16 55q20 3 29 5t19 9t10 20q0 14 -12 20.5t-24 7.5t-36 1h-16v79h16q74 0 118.5 -26.5t44.5 -75.5q0 -26 -12 -44.5t-35.5 -28.5t-40.5 -14t-45 -8zM80 0v697h466v-129h-325v-143h305v-130h-305v-165h325v-130h-466z" />
    <glyph glyph-name="uni1EBB" unicode="&#x1ebb;" horiz-adv-x="513" 
d="M285 610q0 14 -12 20.5t-24 7.5t-36 1h-16v79h16q74 0 118.5 -26.5t44.5 -75.5q0 -26 -12 -44.5t-35.5 -28.5t-40.5 -14t-45 -8l-16 55q20 3 29 5t19 9t10 20zM491 248q0 -20 -3 -47h-331q5 -41 33 -65t79 -24q68 0 111 51l94 -83q-82 -91 -206 -91q-123 0 -184.5 74
t-61.5 181q0 106 60 183t178 77q111 0 171 -71.5t60 -184.5zM156 304h206q-1 40 -30.5 63.5t-72.5 23.5q-47 0 -72.5 -26t-30.5 -61z" />
    <glyph glyph-name="uni1EBC" unicode="&#x1ebc;" horiz-adv-x="601" 
d="M374 756q-26 0 -47.5 10t-33 22.5t-24 22.5t-22.5 10q-26 0 -26 -64h-78q0 70 29.5 108.5t80.5 38.5q29 0 53 -16t41 -32.5t28 -16.5q25 0 25 62h81q0 -70 -28.5 -107.5t-78.5 -37.5zM80 0v697h466v-129h-325v-143h305v-130h-305v-165h325v-130h-466z" />
    <glyph glyph-name="uni1EBD" unicode="&#x1ebd;" horiz-adv-x="513" 
d="M196 617q-26 0 -26 -64h-78q0 70 29.5 108.5t80.5 38.5q29 0 53 -16t41 -32.5t28 -16.5q25 0 25 62h81q0 -70 -28.5 -107.5t-78.5 -37.5q-26 0 -47.5 10t-33 22.5t-24 22.5t-22.5 10zM491 248q0 -20 -3 -47h-331q5 -41 33 -65t79 -24q68 0 111 51l94 -83
q-82 -91 -206 -91q-123 0 -184.5 74t-61.5 181q0 106 60 183t178 77q111 0 171 -71.5t60 -184.5zM156 304h206q-1 40 -30.5 63.5t-72.5 23.5q-47 0 -72.5 -26t-30.5 -61z" />
    <glyph glyph-name="uni1EBE" unicode="&#x1ebe;" horiz-adv-x="601" 
d="M264 947l112 142h145l-159 -142h-98zM155 743l158 179l158 -179h-104l-54 64l-55 -64h-103zM80 0v697h466v-129h-325v-143h305v-130h-305v-165h325v-130h-466z" />
    <glyph glyph-name="uni1EBF" unicode="&#x1ebf;" horiz-adv-x="513" 
d="M469 885l-159 -142h-98l112 142h145zM262 603l-55 -64h-103l158 179l158 -179h-104zM491 248q0 -20 -3 -47h-331q5 -41 33 -65t79 -24q68 0 111 51l94 -83q-82 -91 -206 -91q-123 0 -184.5 74t-61.5 181q0 106 60 183t178 77q111 0 171 -71.5t60 -184.5zM156 304h206
q-1 40 -30.5 63.5t-72.5 23.5q-47 0 -72.5 -26t-30.5 -61z" />
    <glyph glyph-name="uni1EC0" unicode="&#x1ec0;" horiz-adv-x="601" 
d="M262 947l-147 142h144l104 -142h-101zM155 743l158 179l158 -179h-104l-54 64l-55 -64h-103zM80 0v697h466v-129h-325v-143h305v-130h-305v-165h325v-130h-466z" />
    <glyph glyph-name="uni1EC1" unicode="&#x1ec1;" horiz-adv-x="513" 
d="M312 743h-101l-147 142h144zM104 539l158 179l158 -179h-104l-54 64l-55 -64h-103zM491 248q0 -20 -3 -47h-331q5 -41 33 -65t79 -24q68 0 111 51l94 -83q-82 -91 -206 -91q-123 0 -184.5 74t-61.5 181q0 106 60 183t178 77q111 0 171 -71.5t60 -184.5zM156 304h206
q-1 40 -30.5 63.5t-72.5 23.5q-47 0 -72.5 -26t-30.5 -61z" />
    <glyph glyph-name="uni1EC2" unicode="&#x1ec2;" horiz-adv-x="601" 
d="M258 743h-103l152 172q-2 -1 -6 -1t-6 -1l-16 55q20 3 29 5t19 9t10 20q0 14 -12 20.5t-24 7.5t-36 1h-16v79h16q74 0 118.5 -26.5t44.5 -75.5q0 -72 -110 -91l153 -174h-104l-54 64zM546 568h-325v-143h305v-130h-305v-165h325v-130h-466v697h466v-129z" />
    <glyph glyph-name="uni1EC3" unicode="&#x1ec3;" horiz-adv-x="513" 
d="M207 539h-103l152 172q-2 0 -6.5 -0.5t-6.5 -1.5l-16 55q20 3 29 5t19 9t10 20q0 14 -12 20.5t-24 7.5t-36 1h-16v79h16q74 0 118.5 -26.5t44.5 -75.5q0 -43 -30.5 -62.5t-78.5 -28.5l153 -174h-104l-54 64zM491 248q0 -20 -3 -47h-331q5 -41 33 -65t79 -24q68 0 111 51
l94 -83q-82 -91 -206 -91q-123 0 -184.5 74t-61.5 181q0 106 60 183t178 77q111 0 171 -71.5t60 -184.5zM156 304h206q-1 40 -30.5 63.5t-72.5 23.5q-47 0 -72.5 -26t-30.5 -61z" />
    <glyph glyph-name="uni1EC4" unicode="&#x1ec4;" horiz-adv-x="601" 
d="M374 944q-26 0 -47.5 10t-33 22.5t-24 22.5t-22.5 10q-26 0 -26 -64h-78q0 70 29.5 108.5t80.5 38.5q29 0 53 -16.5t41 -32.5t28 -16q25 0 25 62h81q0 -70 -28.5 -107.5t-78.5 -37.5zM155 743l158 179l158 -179h-104l-54 64l-55 -64h-103zM80 0v697h466v-129h-325v-143
h305v-130h-305v-165h325v-130h-466z" />
    <glyph glyph-name="uni1EC5" unicode="&#x1ec5;" horiz-adv-x="513" 
d="M196 805q-26 0 -26 -64h-78q0 70 29.5 108.5t80.5 38.5q29 0 53 -16t41 -32.5t28 -16.5q25 0 25 62h81q0 -70 -28.5 -107.5t-78.5 -37.5q-26 0 -47.5 10t-33 22.5t-24 22.5t-22.5 10zM104 539l158 179l158 -179h-104l-54 64l-55 -64h-103zM491 248q0 -20 -3 -47h-331
q5 -41 33 -65t79 -24q68 0 111 51l94 -83q-82 -91 -206 -91q-123 0 -184.5 74t-61.5 181q0 106 60 183t178 77q111 0 171 -71.5t60 -184.5zM156 304h206q-1 40 -30.5 63.5t-72.5 23.5q-47 0 -72.5 -26t-30.5 -61z" />
    <glyph glyph-name="uni1EC6" unicode="&#x1ec6;" horiz-adv-x="601" 
d="M155 743l158 179l158 -179h-104l-54 64l-55 -64h-103zM80 0v697h466v-129h-325v-143h305v-130h-305v-165h325v-130h-466zM243 -173v114h140v-114h-140z" />
    <glyph glyph-name="uni1EC7" unicode="&#x1ec7;" horiz-adv-x="513" 
d="M262 603l-55 -64h-103l158 179l158 -179h-104zM491 248q0 -20 -3 -47h-331q5 -41 33 -65t79 -24q68 0 111 51l94 -83q-82 -91 -206 -91q-123 0 -184.5 74t-61.5 181q0 106 60 183t178 77q111 0 171 -71.5t60 -184.5zM156 304h206q-1 40 -30.5 63.5t-72.5 23.5
q-47 0 -72.5 -26t-30.5 -61zM198 -173v114h140v-114h-140z" />
    <glyph glyph-name="uni1EC8" unicode="&#x1ec8;" horiz-adv-x="300" 
d="M133 725l-16 55q20 3 29 5t19 9t10 20q0 14 -12 20.5t-24 7.5t-36 1h-16v79h16q74 0 118.5 -26.5t44.5 -75.5q0 -26 -12 -44.5t-35.5 -28.5t-40.5 -14t-45 -8zM80 0v697h141v-697h-141z" />
    <glyph glyph-name="uni1EC9" unicode="&#x1ec9;" horiz-adv-x="262" 
d="M113 521l-16 55q20 3 29 5t19 9t10 20q0 14 -12 20.5t-24 7.5t-36 1h-16v79h16q74 0 118.5 -26.5t44.5 -75.5q0 -26 -12 -44.5t-35.5 -28.5t-40.5 -14t-45 -8zM63 0v493h136v-493h-136z" />
    <glyph glyph-name="uni1ECA" unicode="&#x1eca;" horiz-adv-x="300" 
d="M80 0v697h141v-697h-141zM81 -173v114h140v-114h-140z" />
    <glyph glyph-name="uni1ECB" unicode="&#x1ecb;" horiz-adv-x="262" 
d="M61 574v123h140v-123h-140zM63 0v493h136v-493h-136zM61 -173v114h140v-114h-140z" />
    <glyph glyph-name="uni1ECC" unicode="&#x1ecc;" horiz-adv-x="735" 
d="M367 -17q-150 0 -243.5 101t-93.5 264q0 165 93.5 265.5t243.5 100.5q152 0 245 -100.5t93 -265.5q0 -164 -93.5 -264.5t-244.5 -100.5zM367 118q90 0 143 62t53 168q0 107 -53 169t-143 62t-143 -62t-53 -169t53 -168.5t143 -61.5zM298 -173v114h140v-114h-140z" />
    <glyph glyph-name="uni1ECD" unicode="&#x1ecd;" horiz-adv-x="538" 
d="M269 -11q-113 0 -181.5 75.5t-68.5 182.5q0 108 68 182.5t182 74.5q113 0 181.5 -74.5t68.5 -182.5q0 -107 -69 -182.5t-181 -75.5zM269 108q60 0 87.5 39.5t27.5 99.5q0 61 -27 100t-88 39q-60 0 -87.5 -39.5t-27.5 -99.5t27.5 -99.5t87.5 -39.5zM199 -173v114h140v-114
h-140z" />
    <glyph glyph-name="uni1ECE" unicode="&#x1ece;" horiz-adv-x="735" 
d="M349 725l-16 55q20 3 29 5t19 9t10 20q0 14 -12 20.5t-24 7.5t-36 1h-16v79h16q74 0 118.5 -26.5t44.5 -75.5q0 -26 -12 -44.5t-35.5 -28.5t-40.5 -14t-45 -8zM367 -17q-150 0 -243.5 101t-93.5 264q0 165 93.5 265.5t243.5 100.5q152 0 245 -100.5t93 -265.5
q0 -164 -93.5 -264.5t-244.5 -100.5zM367 118q90 0 143 62t53 168q0 107 -53 169t-143 62t-143 -62t-53 -169t53 -168.5t143 -61.5z" />
    <glyph glyph-name="uni1ECF" unicode="&#x1ecf;" horiz-adv-x="538" 
d="M251 521l-16 55q20 3 29 5t19 9t10 20q0 14 -12 20.5t-24 7.5t-36 1h-16v79h16q74 0 118.5 -26.5t44.5 -75.5q0 -26 -12 -44.5t-35.5 -28.5t-40.5 -14t-45 -8zM269 -11q-113 0 -181.5 75.5t-68.5 182.5q0 108 68 182.5t182 74.5q113 0 181.5 -74.5t68.5 -182.5
q0 -107 -69 -182.5t-181 -75.5zM269 108q60 0 87.5 39.5t27.5 99.5q0 61 -27 100t-88 39q-60 0 -87.5 -39.5t-27.5 -99.5t27.5 -99.5t87.5 -39.5z" />
    <glyph glyph-name="uni1ED0" unicode="&#x1ed0;" horiz-adv-x="735" 
d="M318 947l112 142h145l-159 -142h-98zM210 743l158 179l158 -179h-104l-54 64l-55 -64h-103zM367 -17q-150 0 -243.5 101t-93.5 264q0 165 93.5 265.5t243.5 100.5q152 0 245 -100.5t93 -265.5q0 -164 -93.5 -264.5t-244.5 -100.5zM367 118q90 0 143 62t53 168
q0 107 -53 169t-143 62t-143 -62t-53 -169t53 -168.5t143 -61.5z" />
    <glyph glyph-name="uni1ED1" unicode="&#x1ed1;" horiz-adv-x="538" 
d="M220 743l112 142h145l-159 -142h-98zM112 539l158 179l158 -179h-104l-54 64l-55 -64h-103zM269 -11q-113 0 -181.5 75.5t-68.5 182.5q0 108 68 182.5t182 74.5q113 0 181.5 -74.5t68.5 -182.5q0 -107 -69 -182.5t-181 -75.5zM269 108q60 0 87.5 39.5t27.5 99.5
q0 61 -27 100t-88 39q-60 0 -87.5 -39.5t-27.5 -99.5t27.5 -99.5t87.5 -39.5z" />
    <glyph glyph-name="uni1ED2" unicode="&#x1ed2;" horiz-adv-x="735" 
d="M317 947l-147 142h144l104 -142h-101zM210 743l158 179l158 -179h-104l-54 64l-55 -64h-103zM367 -17q-150 0 -243.5 101t-93.5 264q0 165 93.5 265.5t243.5 100.5q152 0 245 -100.5t93 -265.5q0 -164 -93.5 -264.5t-244.5 -100.5zM367 118q90 0 143 62t53 168
q0 107 -53 169t-143 62t-143 -62t-53 -169t53 -168.5t143 -61.5z" />
    <glyph glyph-name="uni1ED3" unicode="&#x1ed3;" horiz-adv-x="538" 
d="M219 743l-147 142h144l104 -142h-101zM112 539l158 179l158 -179h-104l-54 64l-55 -64h-103zM269 -11q-113 0 -181.5 75.5t-68.5 182.5q0 108 68 182.5t182 74.5q113 0 181.5 -74.5t68.5 -182.5q0 -107 -69 -182.5t-181 -75.5zM269 108q60 0 87.5 39.5t27.5 99.5
q0 61 -27 100t-88 39q-60 0 -87.5 -39.5t-27.5 -99.5t27.5 -99.5t87.5 -39.5z" />
    <glyph glyph-name="uni1ED4" unicode="&#x1ed4;" horiz-adv-x="735" 
d="M313 743h-103l152 172q-2 0 -6.5 -0.5t-6.5 -1.5l-16 55q20 3 29 5t19 9t10 20q0 14 -12 20.5t-24 7.5t-36 1h-16v79h16q74 0 118.5 -26.5t44.5 -75.5q0 -43 -30.5 -62.5t-78.5 -28.5l153 -174h-104l-54 64zM367 714q152 0 245 -100.5t93 -265.5q0 -164 -93.5 -264.5
t-244.5 -100.5q-150 0 -243.5 101t-93.5 264q0 165 93.5 265.5t243.5 100.5zM367 118q90 0 143 62t53 168q0 107 -53 169t-143 62t-143 -62t-53 -169t53 -168.5t143 -61.5z" />
    <glyph glyph-name="uni1ED5" unicode="&#x1ed5;" horiz-adv-x="538" 
d="M215 539h-103l152 172q-2 0 -6.5 -0.5t-6.5 -1.5l-16 55q20 3 29 5t19 9t10 20q0 14 -12 20.5t-24 7.5t-36 1h-16v79h16q74 0 118.5 -26.5t44.5 -75.5q0 -43 -30.5 -62.5t-78.5 -28.5l153 -174h-104l-54 64zM269 504q113 0 181.5 -74.5t68.5 -182.5q0 -107 -69 -182.5
t-181 -75.5q-113 0 -181.5 75.5t-68.5 182.5q0 108 68 182.5t182 74.5zM269 108q60 0 87.5 39.5t27.5 99.5q0 61 -27 100t-88 39q-60 0 -87.5 -39.5t-27.5 -99.5t27.5 -99.5t87.5 -39.5z" />
    <glyph glyph-name="uni1ED6" unicode="&#x1ed6;" horiz-adv-x="735" 
d="M429 944q-26 0 -47.5 10t-33 22.5t-24 22.5t-22.5 10q-26 0 -26 -64h-78q0 70 29.5 108.5t80.5 38.5q29 0 53 -16.5t41 -32.5t28 -16q25 0 25 62h81q0 -70 -28.5 -107.5t-78.5 -37.5zM210 743l158 179l158 -179h-104l-54 64l-55 -64h-103zM367 -17q-150 0 -243.5 101
t-93.5 264q0 165 93.5 265.5t243.5 100.5q152 0 245 -100.5t93 -265.5q0 -164 -93.5 -264.5t-244.5 -100.5zM367 118q90 0 143 62t53 168q0 107 -53 169t-143 62t-143 -62t-53 -169t53 -168.5t143 -61.5z" />
    <glyph glyph-name="uni1ED7" unicode="&#x1ed7;" horiz-adv-x="538" 
d="M331 740q-26 0 -47.5 10t-33 22.5t-24 22.5t-22.5 10q-26 0 -26 -64h-78q0 70 29.5 108.5t80.5 38.5q29 0 53 -16t41 -32.5t28 -16.5q25 0 25 62h81q0 -70 -28.5 -107.5t-78.5 -37.5zM112 539l158 179l158 -179h-104l-54 64l-55 -64h-103zM269 -11q-113 0 -181.5 75.5
t-68.5 182.5q0 108 68 182.5t182 74.5q113 0 181.5 -74.5t68.5 -182.5q0 -107 -69 -182.5t-181 -75.5zM269 108q60 0 87.5 39.5t27.5 99.5q0 61 -27 100t-88 39q-60 0 -87.5 -39.5t-27.5 -99.5t27.5 -99.5t87.5 -39.5z" />
    <glyph glyph-name="uni1ED8" unicode="&#x1ed8;" horiz-adv-x="735" 
d="M210 743l158 179l158 -179h-104l-54 64l-55 -64h-103zM367 -17q-150 0 -243.5 101t-93.5 264q0 165 93.5 265.5t243.5 100.5q152 0 245 -100.5t93 -265.5q0 -164 -93.5 -264.5t-244.5 -100.5zM367 118q90 0 143 62t53 168q0 107 -53 169t-143 62t-143 -62t-53 -169
t53 -168.5t143 -61.5zM298 -173v114h140v-114h-140z" />
    <glyph glyph-name="uni1ED9" unicode="&#x1ed9;" horiz-adv-x="538" 
d="M112 539l158 179l158 -179h-104l-54 64l-55 -64h-103zM269 -11q-113 0 -181.5 75.5t-68.5 182.5q0 108 68 182.5t182 74.5q113 0 181.5 -74.5t68.5 -182.5q0 -107 -69 -182.5t-181 -75.5zM269 108q60 0 87.5 39.5t27.5 99.5q0 61 -27 100t-88 39q-60 0 -87.5 -39.5
t-27.5 -99.5t27.5 -99.5t87.5 -39.5zM199 -173v114h140v-114h-140z" />
    <glyph glyph-name="uni1EDA" unicode="&#x1eda;" horiz-adv-x="735" 
d="M575 901l-159 -142h-98l112 142h145zM664 697h98v-36q0 -116 -85 -154q28 -73 28 -159q0 -164 -93.5 -264.5t-244.5 -100.5q-150 0 -243.5 101t-93.5 264q0 165 93.5 265.5t243.5 100.5q171 0 266 -126q31 17 31 72v37zM367 118q90 0 143 62t53 168q0 107 -53 169
t-143 62t-143 -62t-53 -169t53 -168.5t143 -61.5z" />
    <glyph glyph-name="uni1EDB" unicode="&#x1edb;" horiz-adv-x="538" 
d="M477 697l-159 -142h-98l112 142h145zM513 537h98v-36q0 -59 -26.5 -103t-80.5 -59q15 -44 15 -92q0 -107 -69 -182.5t-181 -75.5q-113 0 -181.5 75.5t-68.5 182.5q0 108 68 182.5t182 74.5q119 0 189 -83q55 5 55 79v37zM269 108q60 0 87.5 39.5t27.5 99.5q0 61 -27 100
t-88 39q-60 0 -87.5 -39.5t-27.5 -99.5t27.5 -99.5t87.5 -39.5z" />
    <glyph glyph-name="uni1EDC" unicode="&#x1edc;" horiz-adv-x="735" 
d="M418 759h-101l-147 142h144zM664 697h98v-36q0 -116 -85 -154q28 -73 28 -159q0 -164 -93.5 -264.5t-244.5 -100.5q-150 0 -243.5 101t-93.5 264q0 165 93.5 265.5t243.5 100.5q171 0 266 -126q31 17 31 72v37zM367 118q90 0 143 62t53 168q0 107 -53 169t-143 62
t-143 -62t-53 -169t53 -168.5t143 -61.5z" />
    <glyph glyph-name="uni1EDD" unicode="&#x1edd;" horiz-adv-x="538" 
d="M320 555h-101l-147 142h144zM513 537h98v-36q0 -59 -26.5 -103t-80.5 -59q15 -44 15 -92q0 -107 -69 -182.5t-181 -75.5q-113 0 -181.5 75.5t-68.5 182.5q0 108 68 182.5t182 74.5q119 0 189 -83q55 5 55 79v37zM269 108q60 0 87.5 39.5t27.5 99.5q0 61 -27 100t-88 39
q-60 0 -87.5 -39.5t-27.5 -99.5t27.5 -99.5t87.5 -39.5z" />
    <glyph glyph-name="uni1EDE" unicode="&#x1ede;" horiz-adv-x="735" 
d="M391 814q0 14 -12 20.5t-24 7.5t-36 1h-16v79h16q74 0 118.5 -26.5t44.5 -75.5q0 -26 -12 -44.5t-35.5 -28.5t-40.5 -14t-45 -8l-16 55q20 3 29 5t19 9t10 20zM664 697h98v-36q0 -116 -85 -154q28 -73 28 -159q0 -164 -93.5 -264.5t-244.5 -100.5q-150 0 -243.5 101
t-93.5 264q0 165 93.5 265.5t243.5 100.5q171 0 266 -126q31 17 31 72v37zM367 118q90 0 143 62t53 168q0 107 -53 169t-143 62t-143 -62t-53 -169t53 -168.5t143 -61.5z" />
    <glyph glyph-name="uni1EDF" unicode="&#x1edf;" horiz-adv-x="538" 
d="M293 610q0 14 -12 20.5t-24 7.5t-36 1h-16v79h16q74 0 118.5 -26.5t44.5 -75.5q0 -26 -12 -44.5t-35.5 -28.5t-40.5 -14t-45 -8l-16 55q20 3 29 5t19 9t10 20zM513 537h98v-36q0 -59 -26.5 -103t-80.5 -59q15 -44 15 -92q0 -107 -69 -182.5t-181 -75.5
q-113 0 -181.5 75.5t-68.5 182.5q0 108 68 182.5t182 74.5q119 0 189 -83q55 5 55 79v37zM269 108q60 0 87.5 39.5t27.5 99.5q0 61 -27 100t-88 39q-60 0 -87.5 -39.5t-27.5 -99.5t27.5 -99.5t87.5 -39.5z" />
    <glyph glyph-name="uni1EE0" unicode="&#x1ee0;" horiz-adv-x="735" 
d="M302 821q-26 0 -26 -64h-78q0 70 29.5 108.5t80.5 38.5q29 0 53 -16t41 -32.5t28 -16.5q25 0 25 62h81q0 -70 -28.5 -107.5t-78.5 -37.5q-26 0 -47.5 10t-33 22.5t-24 22.5t-22.5 10zM664 697h98v-36q0 -116 -85 -154q28 -73 28 -159q0 -164 -93.5 -264.5t-244.5 -100.5
q-150 0 -243.5 101t-93.5 264q0 165 93.5 265.5t243.5 100.5q171 0 266 -126q31 17 31 72v37zM367 118q90 0 143 62t53 168q0 107 -53 169t-143 62t-143 -62t-53 -169t53 -168.5t143 -61.5z" />
    <glyph glyph-name="uni1EE1" unicode="&#x1ee1;" horiz-adv-x="538" 
d="M204 617q-26 0 -26 -64h-78q0 70 29.5 108.5t80.5 38.5q29 0 53 -16t41 -32.5t28 -16.5q25 0 25 62h81q0 -70 -28.5 -107.5t-78.5 -37.5q-26 0 -47.5 10t-33 22.5t-24 22.5t-22.5 10zM513 537h98v-36q0 -59 -26.5 -103t-80.5 -59q15 -44 15 -92q0 -107 -69 -182.5
t-181 -75.5q-113 0 -181.5 75.5t-68.5 182.5q0 108 68 182.5t182 74.5q119 0 189 -83q55 5 55 79v37zM269 108q60 0 87.5 39.5t27.5 99.5q0 61 -27 100t-88 39q-60 0 -87.5 -39.5t-27.5 -99.5t27.5 -99.5t87.5 -39.5z" />
    <glyph glyph-name="uni1EE2" unicode="&#x1ee2;" horiz-adv-x="735" 
d="M664 697h98v-36q0 -116 -85 -154q28 -73 28 -159q0 -164 -93.5 -264.5t-244.5 -100.5q-150 0 -243.5 101t-93.5 264q0 165 93.5 265.5t243.5 100.5q171 0 266 -126q31 17 31 72v37zM367 118q90 0 143 62t53 168q0 107 -53 169t-143 62t-143 -62t-53 -169t53 -168.5
t143 -61.5zM298 -173v114h140v-114h-140z" />
    <glyph glyph-name="uni1EE3" unicode="&#x1ee3;" horiz-adv-x="538" 
d="M513 537h98v-36q0 -59 -26.5 -103t-80.5 -59q15 -44 15 -92q0 -107 -69 -182.5t-181 -75.5q-113 0 -181.5 75.5t-68.5 182.5q0 108 68 182.5t182 74.5q119 0 189 -83q55 5 55 79v37zM269 108q60 0 87.5 39.5t27.5 99.5q0 61 -27 100t-88 39q-60 0 -87.5 -39.5
t-27.5 -99.5t27.5 -99.5t87.5 -39.5zM199 -173v114h140v-114h-140z" />
    <glyph glyph-name="uni1EE4" unicode="&#x1ee4;" horiz-adv-x="673" 
d="M336 -17q-271 0 -271 269v445h141v-429q0 -83 28 -117.5t102 -34.5t102.5 35t28.5 116v430h141v-440q0 -274 -272 -274zM267 -173v114h140v-114h-140z" />
    <glyph glyph-name="uni1EE5" unicode="&#x1ee5;" horiz-adv-x="572" 
d="M373 493h136v-493h-136v53q-50 -64 -142 -64q-91 0 -135.5 54.5t-44.5 143.5v306h135v-276q0 -20 2 -35t9.5 -34t26.5 -29.5t48 -10.5q24 0 42 7.5t29 25t17.5 33.5t9 45t3 47t0.5 52v175zM215 -173v114h140v-114h-140z" />
    <glyph glyph-name="uni1EE6" unicode="&#x1ee6;" horiz-adv-x="673" 
d="M319 725l-16 55q20 3 29 5t19 9t10 20q0 14 -12 20.5t-24 7.5t-36 1h-16v79h16q74 0 118.5 -26.5t44.5 -75.5q0 -26 -12 -44.5t-35.5 -28.5t-40.5 -14t-45 -8zM336 -17q-271 0 -271 269v445h141v-429q0 -83 28 -117.5t102 -34.5t102.5 35t28.5 116v430h141v-440
q0 -274 -272 -274z" />
    <glyph glyph-name="uni1EE7" unicode="&#x1ee7;" horiz-adv-x="572" 
d="M303 610q0 14 -12 20.5t-24 7.5t-36 1h-16v79h16q74 0 118.5 -26.5t44.5 -75.5q0 -26 -12 -44.5t-35.5 -28.5t-40.5 -14t-45 -8l-16 55q20 3 29 5t19 9t10 20zM373 493h136v-493h-136v53q-50 -64 -142 -64q-91 0 -135.5 54.5t-44.5 143.5v306h135v-276q0 -20 2 -35
t9.5 -34t26.5 -29.5t48 -10.5q24 0 42 7.5t29 25t17.5 33.5t9 45t3 47t0.5 52v175z" />
    <glyph glyph-name="uni1EE8" unicode="&#x1ee8;" horiz-adv-x="673" 
d="M545 901l-159 -142h-98l112 142h145zM662 697h98v-36q0 -71 -37 -118t-115 -51v-235q0 -274 -272 -274q-271 0 -271 269v445h141v-429q0 -83 28 -117.5t102 -34.5t102.5 35t28.5 116v430h141v-115q54 5 54 78v37z" />
    <glyph glyph-name="uni1EE9" unicode="&#x1ee9;" horiz-adv-x="572" 
d="M487 697l-159 -142h-98l112 142h145zM483 608h98v-36q0 -106 -72 -148v-424h-136v53q-50 -64 -142 -64q-91 0 -135.5 54.5t-44.5 143.5v306h135v-276q0 -20 2 -35t9.5 -34t26.5 -29.5t48 -10.5q24 0 42 7.5t29 25t17.5 33.5t9 45t3 47t0.5 52v175h60q50 7 50 78v37z" />
    <glyph glyph-name="uni1EEA" unicode="&#x1eea;" horiz-adv-x="673" 
d="M388 759h-101l-147 142h144zM662 697h98v-36q0 -71 -37 -118t-115 -51v-235q0 -274 -272 -274q-271 0 -271 269v445h141v-429q0 -83 28 -117.5t102 -34.5t102.5 35t28.5 116v430h141v-115q54 5 54 78v37z" />
    <glyph glyph-name="uni1EEB" unicode="&#x1eeb;" horiz-adv-x="572" 
d="M330 555h-101l-147 142h144zM483 608h98v-36q0 -106 -72 -148v-424h-136v53q-50 -64 -142 -64q-91 0 -135.5 54.5t-44.5 143.5v306h135v-276q0 -20 2 -35t9.5 -34t26.5 -29.5t48 -10.5q24 0 42 7.5t29 25t17.5 33.5t9 45t3 47t0.5 52v175h60q50 7 50 78v37z" />
    <glyph glyph-name="uni1EEC" unicode="&#x1eec;" horiz-adv-x="673" 
d="M361 814q0 14 -12 20.5t-24 7.5t-36 1h-16v79h16q74 0 118.5 -26.5t44.5 -75.5q0 -26 -12 -44.5t-35.5 -28.5t-40.5 -14t-45 -8l-16 55q20 3 29 5t19 9t10 20zM662 697h98v-36q0 -71 -37 -118t-115 -51v-235q0 -274 -272 -274q-271 0 -271 269v445h141v-429
q0 -83 28 -117.5t102 -34.5t102.5 35t28.5 116v430h141v-115q54 5 54 78v37z" />
    <glyph glyph-name="uni1EED" unicode="&#x1eed;" horiz-adv-x="572" 
d="M303 610q0 14 -12 20.5t-24 7.5t-36 1h-16v79h16q74 0 118.5 -26.5t44.5 -75.5q0 -26 -12 -44.5t-35.5 -28.5t-40.5 -14t-45 -8l-16 55q20 3 29 5t19 9t10 20zM483 608h98v-36q0 -106 -72 -148v-424h-136v53q-50 -64 -142 -64q-91 0 -135.5 54.5t-44.5 143.5v306h135
v-276q0 -20 2 -35t9.5 -34t26.5 -29.5t48 -10.5q24 0 42 7.5t29 25t17.5 33.5t9 45t3 47t0.5 52v175h60q50 7 50 78v37z" />
    <glyph glyph-name="uni1EEE" unicode="&#x1eee;" horiz-adv-x="673" 
d="M272 821q-26 0 -26 -64h-78q0 70 29.5 108.5t80.5 38.5q29 0 53 -16t41 -32.5t28 -16.5q25 0 25 62h81q0 -70 -28.5 -107.5t-78.5 -37.5q-26 0 -47.5 10t-33 22.5t-24 22.5t-22.5 10zM662 697h98v-36q0 -71 -37 -118t-115 -51v-235q0 -274 -272 -274q-271 0 -271 269v445
h141v-429q0 -83 28 -117.5t102 -34.5t102.5 35t28.5 116v430h141v-115q54 5 54 78v37z" />
    <glyph glyph-name="uni1EEF" unicode="&#x1eef;" horiz-adv-x="572" 
d="M214 617q-26 0 -26 -64h-78q0 70 29.5 108.5t80.5 38.5q29 0 53 -16t41 -32.5t28 -16.5q25 0 25 62h81q0 -70 -28.5 -107.5t-78.5 -37.5q-26 0 -47.5 10t-33 22.5t-24 22.5t-22.5 10zM483 608h98v-36q0 -106 -72 -148v-424h-136v53q-50 -64 -142 -64q-91 0 -135.5 54.5
t-44.5 143.5v306h135v-276q0 -20 2 -35t9.5 -34t26.5 -29.5t48 -10.5q24 0 42 7.5t29 25t17.5 33.5t9 45t3 47t0.5 52v175h60q50 7 50 78v37z" />
    <glyph glyph-name="uni1EF0" unicode="&#x1ef0;" horiz-adv-x="673" 
d="M662 697h98v-36q0 -71 -37 -118t-115 -51v-235q0 -274 -272 -274q-271 0 -271 269v445h141v-429q0 -83 28 -117.5t102 -34.5t102.5 35t28.5 116v430h141v-115q54 5 54 78v37zM267 -173v114h140v-114h-140z" />
    <glyph glyph-name="uni1EF1" unicode="&#x1ef1;" horiz-adv-x="572" 
d="M483 608h98v-36q0 -106 -72 -148v-424h-136v53q-50 -64 -142 -64q-91 0 -135.5 54.5t-44.5 143.5v306h135v-276q0 -20 2 -35t9.5 -34t26.5 -29.5t48 -10.5q24 0 42 7.5t29 25t17.5 33.5t9 45t3 47t0.5 52v175h60q50 7 50 78v37zM215 -173v114h140v-114h-140z" />
    <glyph glyph-name="Ygrave" unicode="&#x1ef2;" horiz-adv-x="644" 
d="M272 759l-147 142h144l104 -142h-101zM253 0v274l-265 423h166l166 -288l169 288h167l-262 -423v-274h-141z" />
    <glyph glyph-name="ygrave" unicode="&#x1ef3;" horiz-adv-x="504" 
d="M203 555l-147 142h144l104 -142h-101zM87 -204l90 219l-189 478h150l111 -323l119 323h149l-283 -697h-147z" />
    <glyph glyph-name="uni1EF4" unicode="&#x1ef4;" horiz-adv-x="644" 
d="M253 0v274l-265 423h166l166 -288l169 288h167l-262 -423v-274h-141zM253 -173v114h140v-114h-140z" />
    <glyph glyph-name="uni1EF5" unicode="&#x1ef5;" horiz-adv-x="504" 
d="M87 -204l90 219l-189 478h150l111 -323l119 323h149l-283 -697h-147zM341 -204v114h140v-114h-140z" />
    <glyph glyph-name="uni1EF6" unicode="&#x1ef6;" horiz-adv-x="644" 
d="M305 725l-16 55q20 3 29 5t19 9t10 20q0 14 -12 20.5t-24 7.5t-36 1h-16v79h16q74 0 118.5 -26.5t44.5 -75.5q0 -26 -12 -44.5t-35.5 -28.5t-40.5 -14t-45 -8zM253 0v274l-265 423h166l166 -288l169 288h167l-262 -423v-274h-141z" />
    <glyph glyph-name="uni1EF7" unicode="&#x1ef7;" horiz-adv-x="504" 
d="M235 521l-16 55q20 3 29 5t19 9t10 20q0 14 -12 20.5t-24 7.5t-36 1h-16v79h16q74 0 118.5 -26.5t44.5 -75.5q0 -26 -12 -44.5t-35.5 -28.5t-40.5 -14t-45 -8zM87 -204l90 219l-189 478h150l111 -323l119 323h149l-283 -697h-147z" />
    <glyph glyph-name="uni1EF8" unicode="&#x1ef8;" horiz-adv-x="644" 
d="M384 756q-26 0 -47.5 10t-33 22.5t-24 22.5t-22.5 10q-26 0 -26 -64h-78q0 70 29.5 108.5t80.5 38.5q29 0 53 -16t41 -32.5t28 -16.5q25 0 25 62h81q0 -70 -28.5 -107.5t-78.5 -37.5zM253 0v274l-265 423h166l166 -288l169 288h167l-262 -423v-274h-141z" />
    <glyph glyph-name="uni1EF9" unicode="&#x1ef9;" horiz-adv-x="504" 
d="M315 552q-26 0 -47.5 10t-33 22.5t-24 22.5t-22.5 10q-26 0 -26 -64h-78q0 70 29.5 108.5t80.5 38.5q29 0 53 -16t41 -32.5t28 -16.5q25 0 25 62h81q0 -70 -28.5 -107.5t-78.5 -37.5zM87 -204l90 219l-189 478h150l111 -323l119 323h149l-283 -697h-147z" />
    <glyph glyph-name="endash" unicode="&#x2013;" horiz-adv-x="506" 
d="M61 243v101h384v-101h-384z" />
    <glyph glyph-name="emdash" unicode="&#x2014;" horiz-adv-x="1010" 
d="M0 243v101h1010v-101h-1010z" />
    <glyph glyph-name="uni2015" unicode="&#x2015;" horiz-adv-x="749" 
d="M61 243v101h627v-101h-627z" />
    <glyph glyph-name="quoteleft" unicode="&#x2018;" horiz-adv-x="279" 
d="M17 419l124 278h89l-56 -278h-157z" />
    <glyph glyph-name="quoteright" unicode="&#x2019;" horiz-adv-x="278" 
d="M48 420l56 277h157l-125 -277h-88z" />
    <glyph glyph-name="quotesinglbase" unicode="&#x201a;" horiz-adv-x="278" 
d="M48 -147l56 278h157l-125 -278h-88z" />
    <glyph glyph-name="quotedblleft" unicode="&#x201c;" horiz-adv-x="477" 
d="M17 419l124 278h89l-56 -278h-157zM216 419l123 278h90l-56 -278h-157z" />
    <glyph glyph-name="quotedblright" unicode="&#x201d;" horiz-adv-x="477" 
d="M48 420l56 277h157l-125 -277h-88zM247 420l56 277h156l-123 -277h-89z" />
    <glyph glyph-name="quotedblbase" unicode="&#x201e;" horiz-adv-x="488" 
d="M48 -147l56 278h157l-125 -278h-88zM258 -147l56 278h157l-124 -278h-89z" />
    <glyph glyph-name="dagger" unicode="&#x2020;" horiz-adv-x="373" 
d="M125 -101v489h-105v123h105v186h123v-186h106v-123h-106v-489h-123z" />
    <glyph glyph-name="daggerdbl" unicode="&#x2021;" horiz-adv-x="428" 
d="M152 -101v186h-105v123h105v180h-105v123h105v186h123v-186h105v-123h-105v-180h105v-123h-105v-186h-123z" />
    <glyph glyph-name="bullet" unicode="&#x2022;" horiz-adv-x="351" 
d="M175 120q-49 0 -83 34.5t-34 82.5q0 49 34 83.5t83 34.5t83 -34.5t34 -83.5q0 -48 -34.5 -82.5t-82.5 -34.5z" />
    <glyph glyph-name="uni2023" unicode="&#x2023;" horiz-adv-x="444" 
d="M89 63v408l347 -204z" />
    <glyph glyph-name="twodotenleader" unicode="&#x2025;" horiz-adv-x="515" 
d="M87 0v136h137v-136h-137zM291 0v136h137v-136h-137z" />
    <glyph glyph-name="ellipsis" unicode="&#x2026;" horiz-adv-x="713" 
d="M87 0v136h131v-136h-131zM291 0v136h131v-136h-131zM495 0v136h131v-136h-131z" />
    <glyph glyph-name="perthousand" unicode="&#x2030;" horiz-adv-x="1002" 
d="M177 384q-64 0 -106 45t-42 117t41 117t104 45t105 -47t42 -116q0 -68 -41 -114.5t-103 -46.5zM81 0l428 697h95l-428 -697h-95zM177 475q23 0 38 19.5t15 50.5q0 33 -15.5 52.5t-40.5 19.5t-39.5 -18.5t-14.5 -52.5t15.5 -52.5t41.5 -18.5zM510 -11q-64 0 -105.5 45
t-41.5 119q0 71 40.5 116t103.5 45t105.5 -46.5t42.5 -115.5t-41.5 -116t-103.5 -47zM835 -11q-64 0 -105.5 45.5t-41.5 118.5q0 71 41 116t103 45q63 0 105 -46.5t42 -115.5t-41.5 -116t-102.5 -47zM510 81q23 0 38.5 20t15.5 51q0 32 -16 51.5t-41 19.5q-24 0 -38.5 -18
t-14.5 -52q0 -35 15.5 -53.5t40.5 -18.5zM835 81q23 0 38.5 20t15.5 51q0 32 -16 51.5t-41 19.5q-24 0 -39 -18.5t-15 -51.5q0 -35 15.5 -53.5t41.5 -18.5z" />
    <glyph glyph-name="uni2031" unicode="&#x2031;" horiz-adv-x="1327" 
d="M177 384q-64 0 -106 45t-42 117t41 117t104 45t105 -47t42 -116q0 -68 -41 -114.5t-103 -46.5zM81 0l428 697h95l-428 -697h-95zM177 475q23 0 38 19.5t15 50.5q0 33 -15.5 52.5t-40.5 19.5t-39.5 -18.5t-14.5 -52.5t15.5 -52.5t41.5 -18.5zM510 -11q-64 0 -105.5 45
t-41.5 119q0 71 40.5 116t103.5 45t105.5 -46.5t42.5 -115.5t-41.5 -116t-103.5 -47zM835 -11q-64 0 -105.5 45.5t-41.5 118.5q0 71 41 116t103 45q63 0 105 -46.5t42 -115.5t-41.5 -116t-102.5 -47zM1161 -11q-65 0 -107 45.5t-42 118.5q0 71 41 116t105 45q62 0 104 -47
t42 -115q0 -69 -41 -116t-102 -47zM510 81q23 0 38.5 20t15.5 51q0 32 -16 51.5t-41 19.5q-24 0 -38.5 -18t-14.5 -52q0 -35 15.5 -53.5t40.5 -18.5zM835 81q23 0 38.5 20t15.5 51q0 32 -16 51.5t-41 19.5q-24 0 -39 -18.5t-15 -51.5q0 -35 15.5 -53.5t41.5 -18.5zM1161 81
q23 0 37.5 20t14.5 51q0 33 -15.5 52t-39.5 19q-25 0 -40 -18t-15 -52q0 -35 16 -53.5t42 -18.5z" />
    <glyph glyph-name="guilsinglleft" unicode="&#x2039;" horiz-adv-x="311" 
d="M246 46l-253 206l253 207v-138l-96 -69l96 -69v-137z" />
    <glyph glyph-name="guilsinglright" unicode="&#x203a;" horiz-adv-x="312" 
d="M65 46v137l96 69l-96 69v138l252 -207z" />
    <glyph glyph-name="fraction" unicode="&#x2044;" horiz-adv-x="168" 
d="M-179 0l429 697h95l-428 -697h-96z" />
    <glyph glyph-name="Euro" unicode="&#x20ac;" horiz-adv-x="675" 
d="M429 124q82 0 138 47l73 -118q-81 -64 -211 -64q-125 0 -211 66t-116 178h-61l1 90h46q-1 8 -1 24q0 24 1 35h-44v90h60q32 109 117 172.5t207 63.5q132 0 214 -65l-74 -117q-56 49 -140 49q-124 0 -176 -103h253l-1 -90h-277q-2 -22 -2 -34q0 -17 1 -25h278l-2 -90h-253
q24 -51 70 -80t110 -29z" />
    <glyph glyph-name="uni20B1" unicode="&#x20b1;" horiz-adv-x="649" 
d="M628 517v-50h-43q-8 -83 -70.5 -132.5t-167.5 -49.5h-97v-285h-140v467h-56v50h56v180h237q223 0 238 -180h43zM250 565v-48h192q-6 25 -28 36.5t-68 11.5h-96zM346 417q85 0 97 50h-193v-50h96z" />
    <glyph glyph-name="uni20B3" unicode="&#x20b3;" horiz-adv-x="807" 
d="M68 0l46 112h-54v121h102l23 56h-125v121h174l119 287h104l117 -287h173v-121h-125l23 -56h102v-121h-54l46 -112h-152l-42 112h-281l-43 -112h-153zM369 410h72l-36 93zM309 233h191l-20 56h-150z" />
    <glyph glyph-name="uni20B4" unicode="&#x20b4;" horiz-adv-x="701" 
d="M548 491h104v-93h-601v93h368q7 14 7 28q0 29 -22 46.5t-55 17.5q-29 0 -56 -17t-43 -47l-117 72q35 58 95.5 87.5t127.5 29.5q87 0 144 -48t57 -116q0 -24 -9 -53zM51 254v92h601v-92h-377q-37 -34 -37 -70q0 -29 26 -48t75 -19q106 0 131 89l136 -43
q-27 -83 -100.5 -127.5t-163.5 -44.5q-106 0 -173 52.5t-67 127.5q0 40 22 83h-73z" />
    <glyph glyph-name="uni20B8" unicode="&#x20b8;" horiz-adv-x="659" 
d="M48 583v114h563v-114h-563zM259 0v404h-211v114h563v-114h-211v-404h-141z" />
    <glyph glyph-name="uni20BD" unicode="&#x20bd;" horiz-adv-x="653" 
d="M146 0v121h-88v111h88v64h-88v121h88v280h228q113 0 179.5 -55.5t66.5 -152.5q0 -96 -66 -144.5t-180 -48.5h-88v-64h165v-111h-165v-121h-140zM286 417h88q107 0 107 73q0 75 -107 75h-88v-148z" />
    <glyph glyph-name="uni2116" unicode="&#x2116;" horiz-adv-x="1202" 
d="M512 240v457h136v-697h-140l-277 463v-463h-135v697h138zM940 167q-93 0 -151 62t-58 149t58 148t151 61t151.5 -61t58.5 -148q0 -88 -58.5 -149.5t-151.5 -61.5zM940 490q-49 0 -71 -31.5t-22 -80.5q0 -51 22 -83.5t71 -32.5t71.5 32.5t22.5 83.5q0 48 -22.5 80
t-71.5 32zM728 0v103h419v-103h-419z" />
    <glyph glyph-name="trademark" unicode="&#x2122;" horiz-adv-x="733" 
d="M124 432v196h-72v69h218v-69h-71v-196h-75zM323 432v265h122l37 -157l36 157h120v-265h-75v188l-57 -188h-48l-60 188v-188h-75z" />
    <glyph glyph-name="uni2126" unicode="&#x2126;" horiz-adv-x="821" 
d="M762 351q0 -66 -29.5 -130.5t-80.5 -112.5h104v-108h-292v97q89 38 133.5 95t44.5 158q0 106 -63 171.5t-168 65.5t-168.5 -65t-63.5 -172q0 -102 44.5 -159.5t133.5 -93.5v-97h-291v108h103q-51 47 -80 112t-29 131q0 148 100 249t250 101q151 0 251.5 -101t100.5 -249z
" />
    <glyph glyph-name="arrowleft" unicode="&#x2190;" horiz-adv-x="1130" 
d="M557 8l-551 307l551 305l45 -90l-293 -163l799 -1v-102l-800 1l294 -167z" />
    <glyph glyph-name="arrowright" unicode="&#x2192;" horiz-adv-x="1108" 
d="M551 -14l-46 90l297 168l-802 -1v101l802 -2l-297 168l46 90l551 -307z" />
    <glyph glyph-name="partialdiff" unicode="&#x2202;" horiz-adv-x="613" 
d="M267 -6q-107 0 -169.5 64t-62.5 165q0 118 79.5 194.5t185.5 76.5q82 0 140 -50q-3 50 -17 82q-33 81 -117 81q-82 0 -112 -73l-99 32q27 67 84.5 103.5t134.5 36.5q121 0 185 -89t64 -240q0 -172 -80 -277.5t-216 -105.5zM277 110q71 0 114 52.5t41 115.5
q-2 47 -32.5 76.5t-84.5 29.5q-74 0 -113.5 -49.5t-39.5 -110.5q0 -55 33 -84.5t82 -29.5z" />
    <glyph glyph-name="uni2206" unicode="&#x2206;" horiz-adv-x="620" 
d="M11 0l282 697h33l283 -697h-598zM178 114h266l-134 350z" />
    <glyph glyph-name="product" unicode="&#x220f;" horiz-adv-x="649" 
d="M103 0v584h-36v113h517v-113h-38v-584h-114v584h-215v-584h-114z" />
    <glyph glyph-name="summation" unicode="&#x2211;" horiz-adv-x="622" 
d="M575 697v-128h-310l225 -221l-225 -219h310v-129h-547v60l278 288l-278 290v59h547z" />
    <glyph glyph-name="minus" unicode="&#x2212;" horiz-adv-x="612" 
d="M93 255v113h426v-113h-426z" />
    <glyph glyph-name="radical" unicode="&#x221a;" horiz-adv-x="575" 
d="M234 -134l-140 399h-79v114h162l64 -221l205 539h122z" />
    <glyph glyph-name="infinity" unicode="&#x221e;" horiz-adv-x="896" 
d="M254 175q-94 0 -146 51.5t-52 137.5t52 137.5t146 51.5q50 0 102.5 -25t92.5 -73q39 49 91 73.5t102 24.5q93 0 146 -52t53 -137t-53 -137t-146 -52q-52 0 -103.5 24.5t-89.5 72.5q-40 -48 -92.5 -72.5t-102.5 -24.5zM271 284q27 0 61 21t56 59q-23 38 -56.5 59t-60.5 21
q-95 0 -95 -80t95 -80zM624 284q96 0 96 80q0 39 -25 59.5t-71 20.5q-26 0 -59 -20.5t-56 -59.5q23 -40 55.5 -60t59.5 -20z" />
    <glyph glyph-name="integral" unicode="&#x222b;" horiz-adv-x="421" 
d="M9 -223v114q82 0 116 28t34 103v540q0 66 44 110t106 44q65 0 112 -43l-72 -86q-21 15 -40 15q-36 0 -36 -45v-538q0 -115 -72 -178.5t-192 -63.5z" />
    <glyph glyph-name="approxequal" unicode="&#x2248;" horiz-adv-x="588" 
d="M381 345q-42 0 -70 17.5t-39.5 38t-28.5 38t-38 17.5q-18 0 -28 -22t-10 -59h-102q0 77 38.5 124t101.5 47q35 0 60.5 -11.5t39.5 -27.5t24.5 -32t23 -27.5t28.5 -11.5q18 0 29.5 26t11.5 65h102q0 -81 -39 -131.5t-104 -50.5zM381 95q-34 0 -59 11.5t-38 27.5t-24 32
t-24 27.5t-31 11.5t-28 -22t-10 -59h-102q0 77 38.5 124.5t101.5 47.5q35 0 60.5 -11.5t39.5 -27.5t24.5 -32t23 -27.5t28.5 -11.5q18 0 29.5 26t11.5 66h102q0 -81 -39 -132t-104 -51z" />
    <glyph glyph-name="notequal" unicode="&#x2260;" horiz-adv-x="628" 
d="M51 0l101 162h-87v113h155l72 116h-227v113h295l120 193h95l-120 -193h105v-113h-173l-72 -116h245v-113h-313l-100 -162h-96z" />
    <glyph glyph-name="lessequal" unicode="&#x2264;" horiz-adv-x="664" 
d="M571 67l-550 314l550 313l51 -89l-394 -224l394 -225zM40 -103v103h577v-103h-577z" />
    <glyph glyph-name="greaterequal" unicode="&#x2265;" horiz-adv-x="664" 
d="M93 67l-51 89l395 225l-395 224l51 89l551 -313zM47 -103v103h577v-103h-577z" />
    <glyph glyph-name="lozenge" unicode="&#x25ca;" horiz-adv-x="592" 
d="M207 0l-189 348l189 349h178l189 -349l-189 -348h-178zM291 71h11l138 277l-138 279h-11l-140 -279z" />
    <glyph glyph-name="uniF8FF" unicode="&#xf8ff;" horiz-adv-x="816" 
d="M408 -10q-157 0 -267.5 111t-110.5 267t110.5 267t267.5 111t267.5 -111t110.5 -267t-110.5 -267t-267.5 -111zM408 26q142 0 242 100.5t100 241.5t-100 241.5t-242 100.5t-242 -100.5t-100 -241.5t100 -241.5t242 -100.5zM192 217q-8 0 -13 5.5t-5 12.5v265q0 8 5 13
t13 5t13 -5t5 -13v-265q0 -7 -5 -12.5t-13 -5.5zM408 217q-8 0 -13 5.5t-5 12.5v265q0 8 5 13t13 5t13 -5t5 -13v-265q0 -7 -5 -12.5t-13 -5.5zM626 217q-8 0 -13 5l-145 134q-5 4 -5 12q0 7 5 12l143 131q7 7 14 7q6 0 11.5 -4.5t5.5 -12.5q0 -7 -5 -12l-132 -121l132 -122
q5 -5 5 -12q0 -6 -4.5 -11.5t-11.5 -5.5zM264 350q-8 0 -13 5t-5 13t5 13t13 5h72q8 0 13 -5t5 -13t-5 -13t-13 -5h-72z" />
    <glyph glyph-name="uni1EB6.ss03" horiz-adv-x="662" 
d="M332 768q-157 0 -157 133h95q0 -27 18 -41t44 -14q27 0 44.5 14.5t17.5 40.5h96q0 -133 -158 -133zM667 0h-153l-49 131h-268l-49 -131h-154l285 697h105zM246 261h171l-85 227zM332 -40q34 0 57 -22.5t23 -56.5t-23 -57.5t-57 -23.5q-33 0 -56 23.5t-23 57.5t22.5 56.5
t56.5 22.5z" />
    <glyph glyph-name="uni1EAC.ss03" horiz-adv-x="662" 
d="M332 807l-55 -64h-103l158 179l158 -179h-104zM667 0h-153l-49 131h-268l-49 -131h-154l285 697h105zM246 261h171l-85 227zM332 -40q34 0 57 -22.5t23 -56.5t-23 -57.5t-57 -23.5q-33 0 -56 23.5t-23 57.5t22.5 56.5t56.5 22.5z" />
    <glyph glyph-name="Adieresis.ss03" horiz-adv-x="662" 
d="M231 752q-33 0 -56 23t-23 57t22.5 57t56.5 23t57 -23t23 -57t-23 -57t-57 -23zM432 752q-33 0 -56 23t-23 57t22.5 57t56.5 23t57 -23t23 -57t-23 -57t-57 -23zM514 0l-49 131h-268l-49 -131h-154l285 697h105l283 -697h-153zM246 261h171l-85 227z" />
    <glyph glyph-name="uni1EA0.ss03" horiz-adv-x="662" 
d="M667 0h-153l-49 131h-268l-49 -131h-154l285 697h105zM246 261h171l-85 227zM332 -40q34 0 57 -22.5t23 -56.5t-23 -57.5t-57 -23.5q-33 0 -56 23.5t-23 57.5t22.5 56.5t56.5 22.5z" />
    <glyph glyph-name="Cdotaccent.ss03" horiz-adv-x="704" 
d="M379 752q-33 0 -56 23t-23 57t22.5 57t56.5 23t57 -23t23 -57t-23 -57t-57 -23zM375 -17q-156 0 -250 100t-94 266q0 167 93.5 266.5t249.5 99.5q113 0 195 -54t120 -154l-130 -51q-44 125 -185 125q-96 0 -149 -60t-53 -171q0 -110 53.5 -171t149.5 -61q143 0 184 128
l132 -50q-37 -102 -119.5 -157.5t-196.5 -55.5z" />
    <glyph glyph-name="uni1EC6.ss03" horiz-adv-x="601" 
d="M155 743l158 179l158 -179h-104l-54 64l-55 -64h-103zM80 0v697h466v-129h-325v-143h305v-130h-305v-165h325v-130h-466zM313 -200q-33 0 -56 23.5t-23 57.5t22.5 56.5t56.5 22.5t57 -22.5t23 -56.5t-23 -57.5t-57 -23.5z" />
    <glyph glyph-name="Edieresis.ss03" horiz-adv-x="601" 
d="M212 752q-33 0 -56 23t-23 57t22.5 57t56.5 23t57 -23t23 -57t-23 -57t-57 -23zM413 752q-33 0 -56 23t-23 57t22.5 57t56.5 23t57 -23t23 -57t-23 -57t-57 -23zM80 0v697h466v-129h-325v-143h305v-130h-305v-165h325v-130h-466z" />
    <glyph glyph-name="Edotaccent.ss03" horiz-adv-x="601" 
d="M313 752q-33 0 -56 23t-23 57t22.5 57t56.5 23t57 -23t23 -57t-23 -57t-57 -23zM80 0v697h466v-129h-325v-143h305v-130h-305v-165h325v-130h-466z" />
    <glyph glyph-name="uni1EB8.ss03" horiz-adv-x="601" 
d="M80 0v697h466v-129h-325v-143h305v-130h-305v-165h325v-130h-466zM313 -200q-33 0 -56 23.5t-23 57.5t22.5 56.5t56.5 22.5t57 -22.5t23 -56.5t-23 -57.5t-57 -23.5z" />
    <glyph glyph-name="Gdotaccent.ss03" horiz-adv-x="747" 
d="M374 752q-33 0 -56 23t-23 57t22.5 57t56.5 23t57 -23t23 -57t-23 -57t-57 -23zM398 382h294v-382h-99l-16 70q-63 -87 -203 -87q-153 0 -249 101t-96 262t95.5 265t249.5 104q108 0 191.5 -54t122.5 -154l-130 -51q-22 61 -71 93t-115 32q-94 0 -148 -60.5t-54 -171.5
q0 -113 57.5 -172t156.5 -59q79 0 123 35t44 92v10h-153v127z" />
    <glyph glyph-name="Idieresis.ss03" horiz-adv-x="300" 
d="M50 752q-33 0 -56.5 23t-23.5 57t23 57t57 23t57 -23t23 -57t-23 -57t-57 -23zM251 752q-33 0 -56 23t-23 57t22.5 57t56.5 23t57 -23t23 -57t-23 -57t-57 -23zM80 0v697h141v-697h-141z" />
    <glyph glyph-name="uni1ECA.ss03" horiz-adv-x="300" 
d="M80 0v697h141v-697h-141zM151 -200q-33 0 -56 23.5t-23 57.5t22.5 56.5t56.5 22.5t57 -22.5t23 -56.5t-23 -57.5t-57 -23.5z" />
    <glyph glyph-name="uni1ED8.ss03" horiz-adv-x="735" 
d="M210 743l158 179l158 -179h-104l-54 64l-55 -64h-103zM367 -17q-150 0 -243.5 101t-93.5 264q0 165 93.5 265.5t243.5 100.5q152 0 245 -100.5t93 -265.5q0 -164 -93.5 -264.5t-244.5 -100.5zM367 118q90 0 143 62t53 168q0 107 -53 169t-143 62t-143 -62t-53 -169
t53 -168.5t143 -61.5zM368 -200q-33 0 -56 23.5t-23 57.5t22.5 56.5t56.5 22.5t57 -22.5t23 -56.5t-23 -57.5t-57 -23.5z" />
    <glyph glyph-name="Odieresis.ss03" horiz-adv-x="735" 
d="M267 752q-33 0 -56 23t-23 57t22.5 57t56.5 23t57 -23t23 -57t-23 -57t-57 -23zM468 752q-33 0 -56 23t-23 57t22.5 57t56.5 23t57 -23t23 -57t-23 -57t-57 -23zM367 -17q-150 0 -243.5 101t-93.5 264q0 165 93.5 265.5t243.5 100.5q152 0 245 -100.5t93 -265.5
q0 -164 -93.5 -264.5t-244.5 -100.5zM367 118q90 0 143 62t53 168q0 107 -53 169t-143 62t-143 -62t-53 -169t53 -168.5t143 -61.5z" />
    <glyph glyph-name="uni1ECC.ss03" horiz-adv-x="735" 
d="M367 -17q-150 0 -243.5 101t-93.5 264q0 165 93.5 265.5t243.5 100.5q152 0 245 -100.5t93 -265.5q0 -164 -93.5 -264.5t-244.5 -100.5zM367 118q90 0 143 62t53 168q0 107 -53 169t-143 62t-143 -62t-53 -169t53 -168.5t143 -61.5zM368 -200q-33 0 -56 23.5t-23 57.5
t22.5 56.5t56.5 22.5t57 -22.5t23 -56.5t-23 -57.5t-57 -23.5z" />
    <glyph glyph-name="uni1EE2.ss03" horiz-adv-x="735" 
d="M664 697h98v-36q0 -116 -85 -154q28 -73 28 -159q0 -164 -93.5 -264.5t-244.5 -100.5q-150 0 -243.5 101t-93.5 264q0 165 93.5 265.5t243.5 100.5q171 0 266 -126q31 17 31 72v37zM367 118q90 0 143 62t53 168q0 107 -53 169t-143 62t-143 -62t-53 -169t53 -168.5
t143 -61.5zM368 -40q34 0 57 -22.5t23 -56.5t-23 -57.5t-57 -23.5q-33 0 -56 23.5t-23 57.5t22.5 56.5t56.5 22.5z" />
    <glyph glyph-name="Udieresis.ss03" horiz-adv-x="673" 
d="M237 752q-33 0 -56 23t-23 57t22.5 57t56.5 23t57 -23t23 -57t-23 -57t-57 -23zM438 752q-33 0 -56 23t-23 57t22.5 57t56.5 23t57 -23t23 -57t-23 -57t-57 -23zM336 -17q-271 0 -271 269v445h141v-429q0 -83 28 -117.5t102 -34.5t102.5 35t28.5 116v430h141v-440
q0 -274 -272 -274z" />
    <glyph glyph-name="uni01D7.ss03" horiz-adv-x="673" 
d="M288 974l112 142h145l-159 -142h-98zM237 752q-33 0 -56 23t-23 57t22.5 57t56.5 23t57 -23t23 -57t-23 -57t-57 -23zM438 752q-33 0 -56 23t-23 57t22.5 57t56.5 23t57 -23t23 -57t-23 -57t-57 -23zM336 -17q-271 0 -271 269v445h141v-429q0 -83 28 -117.5t102 -34.5
t102.5 35t28.5 116v430h141v-440q0 -274 -272 -274z" />
    <glyph glyph-name="uni01D9.ss03" horiz-adv-x="673" 
d="M337 949l-158 167h104l54 -58l55 58h103zM237 752q-33 0 -56 23t-23 57t22.5 57t56.5 23t57 -23t23 -57t-23 -57t-57 -23zM438 752q-33 0 -56 23t-23 57t22.5 57t56.5 23t57 -23t23 -57t-23 -57t-57 -23zM336 -17q-271 0 -271 269v445h141v-429q0 -83 28 -117.5
t102 -34.5t102.5 35t28.5 116v430h141v-440q0 -274 -272 -274z" />
    <glyph glyph-name="uni01DB.ss03" horiz-adv-x="673" 
d="M287 974l-147 142h144l104 -142h-101zM237 752q-33 0 -56 23t-23 57t22.5 57t56.5 23t57 -23t23 -57t-23 -57t-57 -23zM438 752q-33 0 -56 23t-23 57t22.5 57t56.5 23t57 -23t23 -57t-23 -57t-57 -23zM336 -17q-271 0 -271 269v445h141v-429q0 -83 28 -117.5t102 -34.5
t102.5 35t28.5 116v430h141v-440q0 -274 -272 -274z" />
    <glyph glyph-name="uni01D5.ss03" horiz-adv-x="673" 
d="M199 975v79h277v-79h-277zM237 752q-33 0 -56 23t-23 57t22.5 57t56.5 23t57 -23t23 -57t-23 -57t-57 -23zM438 752q-33 0 -56 23t-23 57t22.5 57t56.5 23t57 -23t23 -57t-23 -57t-57 -23zM336 -17q-271 0 -271 269v445h141v-429q0 -83 28 -117.5t102 -34.5t102.5 35
t28.5 116v430h141v-440q0 -274 -272 -274z" />
    <glyph glyph-name="uni1EE4.ss03" horiz-adv-x="673" 
d="M336 -17q-271 0 -271 269v445h141v-429q0 -83 28 -117.5t102 -34.5t102.5 35t28.5 116v430h141v-440q0 -274 -272 -274zM337 -200q-33 0 -56 23.5t-23 57.5t22.5 56.5t56.5 22.5t57 -22.5t23 -56.5t-23 -57.5t-57 -23.5z" />
    <glyph glyph-name="uni1EF0.ss03" horiz-adv-x="673" 
d="M662 697h98v-36q0 -71 -37 -118t-115 -51v-235q0 -274 -272 -274q-271 0 -271 269v445h141v-429q0 -83 28 -117.5t102 -34.5t102.5 35t28.5 116v430h141v-115q54 5 54 78v37zM337 -40q34 0 57 -22.5t23 -56.5t-23 -57.5t-57 -23.5q-33 0 -56 23.5t-23 57.5t22.5 56.5
t56.5 22.5z" />
    <glyph glyph-name="Wdieresis.ss03" horiz-adv-x="986" 
d="M393 752q-33 0 -56 23t-23 57t22.5 57t56.5 23t57 -23t23 -57t-23 -57t-57 -23zM594 752q-33 0 -56 23t-23 57t22.5 57t56.5 23t57 -23t23 -57t-23 -57t-57 -23zM213 0l-211 697h147l141 -480l143 439h120l144 -439l140 480h148l-212 -697h-137l-143 433l-144 -433h-136z
" />
    <glyph glyph-name="Ydieresis.ss03" horiz-adv-x="644" 
d="M222 752q-33 0 -56 23t-23 57t22.5 57t56.5 23t57 -23t23 -57t-23 -57t-57 -23zM423 752q-33 0 -56 23t-23 57t22.5 57t56.5 23t57 -23t23 -57t-23 -57t-57 -23zM253 0v274l-265 423h166l166 -288l169 288h167l-262 -423v-274h-141z" />
    <glyph glyph-name="uni1EF4.ss03" horiz-adv-x="644" 
d="M253 0v274l-265 423h166l166 -288l169 288h167l-262 -423v-274h-141zM323 -200q-33 0 -56 23.5t-23 57.5t22.5 56.5t56.5 22.5t57 -22.5t23 -56.5t-23 -57.5t-57 -23.5z" />
    <glyph glyph-name="Zdotaccent.ss03" horiz-adv-x="616" 
d="M308 752q-33 0 -56 23t-23 57t22.5 57t56.5 23t57 -23t23 -57t-23 -57t-57 -23zM587 697v-101l-372 -466h372v-130h-566v97l377 471h-354v129h543z" />
    <glyph glyph-name="i.loclTRK" horiz-adv-x="262" 
d="M61 574v123h140v-123h-140zM63 0v493h136v-493h-136z" />
    <glyph glyph-name="g.ss01" horiz-adv-x="566" 
d="M365 493h137v-475q0 -116 -65 -175.5t-179 -59.5q-145 0 -226 107l105 84q46 -73 124 -73q104 0 104 107v61q-47 -55 -133 -55q-98 0 -154 67.5t-56 176.5q0 108 55 177t152 69q88 0 136 -54v43zM268 135q56 0 82 34t26 90q0 55 -26 90.5t-82 35.5q-54 0 -81 -35t-27 -92
t27 -90t81 -33z" />
    <glyph glyph-name="gbreve.ss01" horiz-adv-x="566" 
d="M284 564q-157 0 -157 133h95q0 -27 18 -41t44 -14q27 0 44.5 14.5t17.5 40.5h96q0 -133 -158 -133zM365 493h137v-475q0 -116 -65 -175.5t-179 -59.5q-145 0 -226 107l105 84q46 -73 124 -73q104 0 104 107v61q-47 -55 -133 -55q-98 0 -154 67.5t-56 176.5q0 108 55 177
t152 69q88 0 136 -54v43zM268 135q56 0 82 34t26 90q0 55 -26 90.5t-82 35.5q-54 0 -81 -35t-27 -92t27 -90t81 -33z" />
    <glyph glyph-name="uni0123.ss01" horiz-adv-x="566" 
d="M385 709l-61 -158h-140l123 158h78zM365 493h137v-475q0 -116 -65 -175.5t-179 -59.5q-145 0 -226 107l105 84q46 -73 124 -73q104 0 104 107v61q-47 -55 -133 -55q-98 0 -154 67.5t-56 176.5q0 108 55 177t152 69q88 0 136 -54v43zM268 135q56 0 82 34t26 90
q0 55 -26 90.5t-82 35.5q-54 0 -81 -35t-27 -92t27 -90t81 -33z" />
    <glyph glyph-name="gdotaccent.ss01" horiz-adv-x="566" 
d="M354 697v-123h-140v123h140zM365 493h137v-475q0 -116 -65 -175.5t-179 -59.5q-145 0 -226 107l105 84q46 -73 124 -73q104 0 104 107v61q-47 -55 -133 -55q-98 0 -154 67.5t-56 176.5q0 108 55 177t152 69q88 0 136 -54v43zM268 135q56 0 82 34t26 90q0 55 -26 90.5
t-82 35.5q-54 0 -81 -35t-27 -92t27 -90t81 -33z" />
    <glyph glyph-name="g.ss02" horiz-adv-x="524" 
d="M328 89q28 0 54 -5.5t54.5 -19t46 -43t17.5 -72.5q0 -77 -58.5 -120.5t-177.5 -43.5q-49 0 -91.5 7.5t-79.5 23.5t-58 46t-21 71q0 25 9 48l64 20q-65 43 -65 109q0 67 66 112q-29 41 -29 98q0 81 59 132.5t146 51.5q62 0 111 -27l76 64l69 -85l-70 -56q20 -38 20 -84
q0 -81 -59.5 -129.5t-146.5 -48.5q-52 0 -98 19q-17 -12 -17 -32q0 -17 16.5 -25.5t31 -9.5t40.5 -1h91zM267 397q-35 0 -54 -22.5t-19 -56.5t19 -55.5t54 -21.5q33 0 52 21.5t19 55.5t-19 56.5t-52 22.5zM261 -111q109 0 109 47q0 14 -6.5 23t-20.5 12t-22.5 3.5t-24.5 0.5
h-117l-38 -31v-8q0 -47 120 -47z" />
    <glyph glyph-name="gbreve.ss02" horiz-adv-x="524" 
d="M263 564q-157 0 -157 133h95q0 -27 18 -41t44 -14q27 0 44.5 14.5t17.5 40.5h96q0 -133 -158 -133zM328 89q28 0 54 -5.5t54.5 -19t46 -43t17.5 -72.5q0 -77 -58.5 -120.5t-177.5 -43.5q-49 0 -91.5 7.5t-79.5 23.5t-58 46t-21 71q0 25 9 48l64 20q-65 43 -65 109
q0 67 66 112q-29 41 -29 98q0 81 59 132.5t146 51.5q62 0 111 -27l76 64l69 -85l-70 -56q20 -38 20 -84q0 -81 -59.5 -129.5t-146.5 -48.5q-52 0 -98 19q-17 -12 -17 -32q0 -17 16.5 -25.5t31 -9.5t40.5 -1h91zM267 397q-35 0 -54 -22.5t-19 -56.5t19 -55.5t54 -21.5
q33 0 52 21.5t19 55.5t-19 56.5t-52 22.5zM261 -111q109 0 109 47q0 14 -6.5 23t-20.5 12t-22.5 3.5t-24.5 0.5h-117l-38 -31v-8q0 -47 120 -47z" />
    <glyph glyph-name="uni0123.ss02" horiz-adv-x="524" 
d="M364 709l-61 -158h-140l123 158h78zM328 89q28 0 54 -5.5t54.5 -19t46 -43t17.5 -72.5q0 -77 -58.5 -120.5t-177.5 -43.5q-49 0 -91.5 7.5t-79.5 23.5t-58 46t-21 71q0 25 9 48l64 20q-65 43 -65 109q0 67 66 112q-29 41 -29 98q0 81 59 132.5t146 51.5q62 0 111 -27
l76 64l69 -85l-70 -56q20 -38 20 -84q0 -81 -59.5 -129.5t-146.5 -48.5q-52 0 -98 19q-17 -12 -17 -32q0 -17 16.5 -25.5t31 -9.5t40.5 -1h91zM267 397q-35 0 -54 -22.5t-19 -56.5t19 -55.5t54 -21.5q33 0 52 21.5t19 55.5t-19 56.5t-52 22.5zM261 -111q109 0 109 47
q0 14 -6.5 23t-20.5 12t-22.5 3.5t-24.5 0.5h-117l-38 -31v-8q0 -47 120 -47z" />
    <glyph glyph-name="gdotaccent.ss02" horiz-adv-x="524" 
d="M333 697v-123h-140v123h140zM328 89q28 0 54 -5.5t54.5 -19t46 -43t17.5 -72.5q0 -77 -58.5 -120.5t-177.5 -43.5q-49 0 -91.5 7.5t-79.5 23.5t-58 46t-21 71q0 25 9 48l64 20q-65 43 -65 109q0 67 66 112q-29 41 -29 98q0 81 59 132.5t146 51.5q62 0 111 -27l76 64
l69 -85l-70 -56q20 -38 20 -84q0 -81 -59.5 -129.5t-146.5 -48.5q-52 0 -98 19q-17 -12 -17 -32q0 -17 16.5 -25.5t31 -9.5t40.5 -1h91zM267 397q-35 0 -54 -22.5t-19 -56.5t19 -55.5t54 -21.5q33 0 52 21.5t19 55.5t-19 56.5t-52 22.5zM261 -111q109 0 109 47q0 14 -6.5 23
t-20.5 12t-22.5 3.5t-24.5 0.5h-117l-38 -31v-8q0 -47 120 -47z" />
    <glyph glyph-name="uni1EB7.ss03" horiz-adv-x="526" 
d="M257 564q-157 0 -157 133h95q0 -27 18 -41t44 -14q27 0 44.5 14.5t17.5 40.5h96q0 -133 -158 -133zM259 504q101 0 159.5 -51.5t58.5 -140.5v-312h-124l-10 57q-48 -68 -140 -68q-80 0 -132 46.5t-52 119.5q0 87 71 123q46 23 122 23h130v11q0 34 -23.5 54t-65.5 20
q-69 0 -126 -64l-98 82q88 100 230 100zM225 101q48 0 82 29t35 71h-111q-42 0 -59 -13q-18 -12 -18 -35t18.5 -37.5t52.5 -14.5zM257 -40q34 0 57 -22.5t23 -56.5t-23 -57.5t-57 -23.5q-33 0 -56 23.5t-23 57.5t22.5 56.5t56.5 22.5z" />
    <glyph glyph-name="uni1EAD.ss03" horiz-adv-x="526" 
d="M257 603l-55 -64h-103l158 179l158 -179h-104zM259 504q101 0 159.5 -51.5t58.5 -140.5v-312h-124l-10 57q-48 -68 -140 -68q-80 0 -132 46.5t-52 119.5q0 87 71 123q46 23 122 23h130v11q0 34 -23.5 54t-65.5 20q-69 0 -126 -64l-98 82q88 100 230 100zM225 101
q48 0 82 29t35 71h-111q-42 0 -59 -13q-18 -12 -18 -35t18.5 -37.5t52.5 -14.5zM257 -40q34 0 57 -22.5t23 -56.5t-23 -57.5t-57 -23.5q-33 0 -56 23.5t-23 57.5t22.5 56.5t56.5 22.5z" />
    <glyph glyph-name="adieresis.ss03" horiz-adv-x="526" 
d="M156 548q-33 0 -56 23t-23 57t22.5 57t56.5 23t57 -23t23 -57t-23 -57t-57 -23zM357 548q-33 0 -56 23t-23 57t22.5 57t56.5 23t57 -23t23 -57t-23 -57t-57 -23zM259 504q101 0 159.5 -51.5t58.5 -140.5v-312h-124l-10 57q-48 -68 -140 -68q-80 0 -132 46.5t-52 119.5
q0 87 71 123q46 23 122 23h130v11q0 34 -23.5 54t-65.5 20q-69 0 -126 -64l-98 82q88 100 230 100zM225 101q48 0 82 29t35 71h-111q-42 0 -59 -13q-18 -12 -18 -35t18.5 -37.5t52.5 -14.5z" />
    <glyph glyph-name="uni1EA1.ss03" horiz-adv-x="526" 
d="M259 504q101 0 159.5 -51.5t58.5 -140.5v-312h-124l-10 57q-48 -68 -140 -68q-80 0 -132 46.5t-52 119.5q0 87 71 123q46 23 122 23h130v11q0 34 -23.5 54t-65.5 20q-69 0 -126 -64l-98 82q88 100 230 100zM225 101q48 0 82 29t35 71h-111q-42 0 -59 -13q-18 -12 -18 -35
t18.5 -37.5t52.5 -14.5zM257 -40q34 0 57 -22.5t23 -56.5t-23 -57.5t-57 -23.5q-33 0 -56 23.5t-23 57.5t22.5 56.5t56.5 22.5z" />
    <glyph glyph-name="cdotaccent.ss03" horiz-adv-x="488" 
d="M245 548q-33 0 -56 23t-23 57t22.5 57t56.5 23t57 -23t23 -57t-23 -57t-57 -23zM264 -11q-118 0 -181 75.5t-63 180.5q0 106 63 182.5t180 76.5q161 0 216 -148l-128 -51q-8 37 -31.5 59t-56.5 22q-54 0 -79 -40.5t-25 -100.5q0 -59 24.5 -98t78.5 -39q33 0 57.5 21
t32.5 57l122 -48q-25 -70 -80.5 -109.5t-129.5 -39.5z" />
    <glyph glyph-name="uni1EC7.ss03" horiz-adv-x="513" 
d="M262 603l-55 -64h-103l158 179l158 -179h-104zM491 248q0 -20 -3 -47h-331q5 -41 33 -65t79 -24q68 0 111 51l94 -83q-82 -91 -206 -91q-123 0 -184.5 74t-61.5 181q0 106 60 183t178 77q111 0 171 -71.5t60 -184.5zM156 304h206q-1 40 -30.5 63.5t-72.5 23.5
q-47 0 -72.5 -26t-30.5 -61zM268 -40q34 0 57 -22.5t23 -56.5t-23 -57.5t-57 -23.5q-33 0 -56 23.5t-23 57.5t22.5 56.5t56.5 22.5z" />
    <glyph glyph-name="edieresis.ss03" horiz-adv-x="513" 
d="M161 548q-33 0 -56 23t-23 57t22.5 57t56.5 23t57 -23t23 -57t-23 -57t-57 -23zM362 548q-33 0 -56 23t-23 57t22.5 57t56.5 23t57 -23t23 -57t-23 -57t-57 -23zM491 248q0 -20 -3 -47h-331q5 -41 33 -65t79 -24q68 0 111 51l94 -83q-82 -91 -206 -91q-123 0 -184.5 74
t-61.5 181q0 106 60 183t178 77q111 0 171 -71.5t60 -184.5zM156 304h206q-1 40 -30.5 63.5t-72.5 23.5q-47 0 -72.5 -26t-30.5 -61z" />
    <glyph glyph-name="edotaccent.ss03" horiz-adv-x="513" 
d="M261 548q-33 0 -56 23t-23 57t22.5 57t56.5 23t57 -23t23 -57t-23 -57t-57 -23zM491 248q0 -20 -3 -47h-331q5 -41 33 -65t79 -24q68 0 111 51l94 -83q-82 -91 -206 -91q-123 0 -184.5 74t-61.5 181q0 106 60 183t178 77q111 0 171 -71.5t60 -184.5zM156 304h206
q-1 40 -30.5 63.5t-72.5 23.5q-47 0 -72.5 -26t-30.5 -61z" />
    <glyph glyph-name="gdotaccent.ss03" horiz-adv-x="511" 
d="M254 548q-33 0 -56 23t-23 57t22.5 57t56.5 23t57 -23t23 -57t-23 -57t-57 -23zM257 80q34 -4 51.5 -6.5t47 -8.5t45 -12t36 -16.5t30 -24t17 -32.5t7.5 -43q0 -78 -63 -117.5t-168 -39.5q-109 0 -172.5 41.5t-63.5 115.5q0 15 3 27l72 36q-61 34 -61 106q0 59 43 100
q-39 47 -39 112q0 81 60.5 133.5t146.5 52.5q63 0 113 -29l77 66l71 -85l-72 -59q19 -40 19 -84q0 -81 -58 -131t-146 -50q-53 0 -95 18q-8 -10 -8 -22q0 -23 26 -32.5t81 -15.5zM251 391q-34 0 -53.5 -20.5t-19.5 -53.5q0 -34 18.5 -55.5t54.5 -21.5q35 0 53 21.5t18 55.5
t-19 54t-52 20zM266 -120q90 0 90 39q0 6 -2 11t-7 8.5t-9.5 6.5t-13 5.5t-15 4.5t-18.5 3.5t-18.5 2.5t-20.5 2.5t-21 2.5q-10 1 -35 5l-36 -35q-1 -2 -1 -7q0 -24 29.5 -36.5t77.5 -12.5z" />
    <glyph glyph-name="i.ss03" horiz-adv-x="262" 
d="M131 548q-33 0 -56 23t-23 57t22.5 57t56.5 23t57 -23t23 -57t-23 -57t-57 -23zM63 0v493h136v-493h-136z" />
    <glyph glyph-name="idieresis.ss03" horiz-adv-x="262" 
d="M30 548q-33 0 -56.5 23t-23.5 57t23 57t57 23t57 -23t23 -57t-23 -57t-57 -23zM231 548q-33 0 -56 23t-23 57t22.5 57t56.5 23t57 -23t23 -57t-23 -57t-57 -23zM63 0v493h136v-493h-136z" />
    <glyph glyph-name="i.loclTRK.ss03" horiz-adv-x="262" 
d="M131 548q-33 0 -56 23t-23 57t22.5 57t56.5 23t57 -23t23 -57t-23 -57t-57 -23zM63 0v493h136v-493h-136z" />
    <glyph glyph-name="uni1ECB.ss03" horiz-adv-x="262" 
d="M131 548q-33 0 -56 23t-23 57t22.5 57t56.5 23t57 -23t23 -57t-23 -57t-57 -23zM63 0v493h136v-493h-136zM131 -200q-33 0 -56 23.5t-23 57.5t22.5 56.5t56.5 22.5t57 -22.5t23 -56.5t-23 -57.5t-57 -23.5z" />
    <glyph glyph-name="iogonek.ss03" horiz-adv-x="262" 
d="M131 548q-33 0 -56 23t-23 57t22.5 57t56.5 23t57 -23t23 -57t-23 -57t-57 -23zM176 -114l69 -46q-42 -65 -112 -65q-51 0 -85 29.5t-34 76.5q0 77 79 119h-30v493h136v-493q-9 -3 -23 -10t-34 -20t-33.5 -33t-13.5 -42q0 -37 34 -37q29 0 47 28z" />
    <glyph glyph-name="j.ss03" horiz-adv-x="264" 
d="M132 548q-33 0 -56 23t-23 57t22.5 57t56.5 23t57 -23t23 -57t-23 -57t-57 -23zM75 -215q-40 0 -86 16l-1 108q22 -6 40 -6t27 7.5t9 27.5v555h136v-575q0 -66 -34 -99.5t-91 -33.5z" />
    <glyph glyph-name="uni1ED9.ss03" horiz-adv-x="538" 
d="M112 539l158 179l158 -179h-104l-54 64l-55 -64h-103zM269 -11q-113 0 -181.5 75.5t-68.5 182.5q0 108 68 182.5t182 74.5q113 0 181.5 -74.5t68.5 -182.5q0 -107 -69 -182.5t-181 -75.5zM269 108q60 0 87.5 39.5t27.5 99.5q0 61 -27 100t-88 39q-60 0 -87.5 -39.5
t-27.5 -99.5t27.5 -99.5t87.5 -39.5zM269 -200q-33 0 -56 23.5t-23 57.5t22.5 56.5t56.5 22.5t57 -22.5t23 -56.5t-23 -57.5t-57 -23.5z" />
    <glyph glyph-name="odieresis.ss03" horiz-adv-x="538" 
d="M169 548q-33 0 -56 23t-23 57t22.5 57t56.5 23t57 -23t23 -57t-23 -57t-57 -23zM370 548q-33 0 -56 23t-23 57t22.5 57t56.5 23t57 -23t23 -57t-23 -57t-57 -23zM269 -11q-113 0 -181.5 75.5t-68.5 182.5q0 108 68 182.5t182 74.5q113 0 181.5 -74.5t68.5 -182.5
q0 -107 -69 -182.5t-181 -75.5zM269 108q60 0 87.5 39.5t27.5 99.5q0 61 -27 100t-88 39q-60 0 -87.5 -39.5t-27.5 -99.5t27.5 -99.5t87.5 -39.5z" />
    <glyph glyph-name="uni1EE3.ss03" horiz-adv-x="538" 
d="M513 537h98v-36q0 -59 -26.5 -103t-80.5 -59q15 -44 15 -92q0 -107 -69 -182.5t-181 -75.5q-113 0 -181.5 75.5t-68.5 182.5q0 108 68 182.5t182 74.5q119 0 189 -83q55 5 55 79v37zM269 108q60 0 87.5 39.5t27.5 99.5q0 61 -27 100t-88 39q-60 0 -87.5 -39.5
t-27.5 -99.5t27.5 -99.5t87.5 -39.5zM269 -40q34 0 57 -22.5t23 -56.5t-23 -57.5t-57 -23.5q-33 0 -56 23.5t-23 57.5t22.5 56.5t56.5 22.5z" />
    <glyph glyph-name="gdotaccent.ss01.ss03" horiz-adv-x="566" 
d="M284 548q-33 0 -56 23t-23 57t22.5 57t56.5 23t57 -23t23 -57t-23 -57t-57 -23zM365 493h137v-475q0 -116 -65 -175.5t-179 -59.5q-145 0 -226 107l105 84q46 -73 124 -73q104 0 104 107v61q-47 -55 -133 -55q-98 0 -154 67.5t-56 176.5q0 108 55 177t152 69
q88 0 136 -54v43zM268 135q56 0 82 34t26 90q0 55 -26 90.5t-82 35.5q-54 0 -81 -35t-27 -92t27 -90t81 -33z" />
    <glyph glyph-name="gdotaccent.ss02.ss03" horiz-adv-x="524" 
d="M263 548q-33 0 -56 23t-23 57t22.5 57t56.5 23t57 -23t23 -57t-23 -57t-57 -23zM328 89q28 0 54 -5.5t54.5 -19t46 -43t17.5 -72.5q0 -77 -58.5 -120.5t-177.5 -43.5q-49 0 -91.5 7.5t-79.5 23.5t-58 46t-21 71q0 25 9 48l64 20q-65 43 -65 109q0 67 66 112
q-29 41 -29 98q0 81 59 132.5t146 51.5q62 0 111 -27l76 64l69 -85l-70 -56q20 -38 20 -84q0 -81 -59.5 -129.5t-146.5 -48.5q-52 0 -98 19q-17 -12 -17 -32q0 -17 16.5 -25.5t31 -9.5t40.5 -1h91zM267 397q-35 0 -54 -22.5t-19 -56.5t19 -55.5t54 -21.5q33 0 52 21.5
t19 55.5t-19 56.5t-52 22.5zM261 -111q109 0 109 47q0 14 -6.5 23t-20.5 12t-22.5 3.5t-24.5 0.5h-117l-38 -31v-8q0 -47 120 -47z" />
    <glyph glyph-name="udieresis.ss03" horiz-adv-x="572" 
d="M179 548q-33 0 -56 23t-23 57t22.5 57t56.5 23t57 -23t23 -57t-23 -57t-57 -23zM380 548q-33 0 -56 23t-23 57t22.5 57t56.5 23t57 -23t23 -57t-23 -57t-57 -23zM373 493h136v-493h-136v53q-50 -64 -142 -64q-91 0 -135.5 54.5t-44.5 143.5v306h135v-276q0 -20 2 -35
t9.5 -34t26.5 -29.5t48 -10.5q24 0 42 7.5t29 25t17.5 33.5t9 45t3 47t0.5 52v175z" />
    <glyph glyph-name="uni01D8.ss03" horiz-adv-x="572" 
d="M487 912l-159 -142h-98l112 142h145zM179 548q-33 0 -56 23t-23 57t22.5 57t56.5 23t57 -23t23 -57t-23 -57t-57 -23zM301 628q0 34 22.5 57t56.5 23t57 -23t23 -57t-23 -57t-57 -23q-33 0 -56 23t-23 57zM373 493h136v-493h-136v53q-50 -64 -142 -64q-91 0 -135.5 54.5
t-44.5 143.5v306h135v-276q0 -20 2 -35t9.5 -34t26.5 -29.5t48 -10.5q24 0 42 7.5t29 25t17.5 33.5t9 45t3 47t0.5 52v175z" />
    <glyph glyph-name="uni01DA.ss03" horiz-adv-x="572" 
d="M437 912l-158 -167l-158 167h104l54 -58l55 58h103zM179 548q-33 0 -56 23t-23 57t22.5 57t56.5 23t57 -23t23 -57t-23 -57t-57 -23zM380 708q34 0 57 -23t23 -57t-23 -57t-57 -23q-33 0 -56 23t-23 57t22.5 57t56.5 23zM373 493h136v-493h-136v53q-50 -64 -142 -64
q-91 0 -135.5 54.5t-44.5 143.5v306h135v-276q0 -20 2 -35t9.5 -34t26.5 -29.5t48 -10.5q24 0 42 7.5t29 25t17.5 33.5t9 45t3 47t0.5 52v175z" />
    <glyph glyph-name="uni01DC.ss03" horiz-adv-x="572" 
d="M330 770h-101l-147 142h144zM100 628q0 34 22.5 57t56.5 23t57 -23t23 -57t-23 -57t-57 -23q-33 0 -56 23t-23 57zM301 628q0 34 22.5 57t56.5 23t57 -23t23 -57t-23 -57t-57 -23q-33 0 -56 23t-23 57zM373 493h136v-493h-136v53q-50 -64 -142 -64q-91 0 -135.5 54.5
t-44.5 143.5v306h135v-276q0 -20 2 -35t9.5 -34t26.5 -29.5t48 -10.5q24 0 42 7.5t29 25t17.5 33.5t9 45t3 47t0.5 52v175z" />
    <glyph glyph-name="uni01D6.ss03" horiz-adv-x="572" 
d="M418 850v-79h-277v79h277zM179 548q-33 0 -56 23t-23 57t22.5 57t56.5 23t57 -23t23 -57t-23 -57t-57 -23zM301 628q0 34 22.5 57t56.5 23t57 -23t23 -57t-23 -57t-57 -23q-33 0 -56 23t-23 57zM373 493h136v-493h-136v53q-50 -64 -142 -64q-91 0 -135.5 54.5
t-44.5 143.5v306h135v-276q0 -20 2 -35t9.5 -34t26.5 -29.5t48 -10.5q24 0 42 7.5t29 25t17.5 33.5t9 45t3 47t0.5 52v175z" />
    <glyph glyph-name="uni1EE5.ss03" horiz-adv-x="572" 
d="M373 493h136v-493h-136v53q-50 -64 -142 -64q-91 0 -135.5 54.5t-44.5 143.5v306h135v-276q0 -20 2 -35t9.5 -34t26.5 -29.5t48 -10.5q24 0 42 7.5t29 25t17.5 33.5t9 45t3 47t0.5 52v175zM285 -40q34 0 57 -22.5t23 -56.5t-23 -57.5t-57 -23.5q-33 0 -56 23.5t-23 57.5
t22.5 56.5t56.5 22.5z" />
    <glyph glyph-name="uni1EF1.ss03" horiz-adv-x="572" 
d="M483 608h98v-36q0 -106 -72 -148v-424h-136v53q-50 -64 -142 -64q-91 0 -135.5 54.5t-44.5 143.5v306h135v-276q0 -20 2 -35t9.5 -34t26.5 -29.5t48 -10.5q24 0 42 7.5t29 25t17.5 33.5t9 45t3 47t0.5 52v175h60q50 7 50 78v37zM285 -40q34 0 57 -22.5t23 -56.5
t-23 -57.5t-57 -23.5q-33 0 -56 23.5t-23 57.5t22.5 56.5t56.5 22.5z" />
    <glyph glyph-name="wdieresis.ss03" horiz-adv-x="716" 
d="M258 548q-33 0 -56 23t-23 57t22.5 57t56.5 23t57 -23t23 -57t-23 -57t-57 -23zM459 548q-33 0 -56 23t-23 57t22.5 57t56.5 23t57 -23t23 -57t-23 -57t-57 -23zM150 0l-154 493h144l78 -285l82 285h115l82 -283l78 283h145l-155 -493h-120l-87 301l-86 -301h-122z" />
    <glyph glyph-name="ydieresis.ss03" horiz-adv-x="504" 
d="M153 548q-33 0 -56 23t-23 57t22.5 57t56.5 23t57 -23t23 -57t-23 -57t-57 -23zM354 548q-33 0 -56 23t-23 57t22.5 57t56.5 23t57 -23t23 -57t-23 -57t-57 -23zM87 -204l90 219l-189 478h150l111 -323l119 323h149l-283 -697h-147z" />
    <glyph glyph-name="uni1EF5.ss03" horiz-adv-x="504" 
d="M87 -204l90 219l-189 478h150l111 -323l119 323h149l-283 -697h-147zM411 -231q-33 0 -56 23.5t-23 57.5t22.5 56.5t56.5 22.5t57 -22.5t23 -56.5t-23 -57.5t-57 -23.5z" />
    <glyph glyph-name="zdotaccent.ss03" horiz-adv-x="459" 
d="M229 548q-33 0 -56 23t-23 57t22.5 57t56.5 23t57 -23t23 -57t-23 -57t-57 -23zM204 114h225v-114h-405v89l235 291h-224v113h393v-95z" />
    <glyph glyph-name="T_h" horiz-adv-x="1051" 
d="M213 0v568h-211v129h673v-258q54 65 135 65q93 0 141 -63.5t48 -146.5v-294h-138v280q0 100 -83 100q-51 0 -77 -35t-26 -89v-256h-139v568h-181v-568h-142z" />
    <glyph glyph-name="zero.lf" horiz-adv-x="570" 
d="M288 -10q-64 0 -111.5 24.5t-73 60t-40.5 88t-19 95t-4 93.5t3.5 92.5t18.5 93.5t39.5 87.5t71.5 60t111 24.5q247 0 247 -359q0 -360 -243 -360zM286 120q35 0 57 18.5t31.5 55t12.5 70.5t3 85q0 53 -3 87t-12.5 70.5t-32.5 54.5t-58 18q-28 0 -48.5 -13.5t-31 -33
t-16.5 -53t-7.5 -61.5t-1.5 -70q0 -40 1.5 -67.5t7.5 -60.5t17 -53t31.5 -33.5t49.5 -13.5z" />
    <glyph glyph-name="one.lf" horiz-adv-x="372" 
d="M160 697h135v-697h-135v480h-160v109h86q74 0 74 71v37z" />
    <glyph glyph-name="two.lf" horiz-adv-x="545" 
d="M249 128h269v-128h-490v110q327 197 327 366q0 45 -22.5 72t-67.5 27q-99 0 -108 -137l-133 10q0 102 66 180t178 78q98 0 160 -61.5t62 -161.5q0 -99 -70 -197.5t-171 -157.5z" />
    <glyph glyph-name="three.lf" horiz-adv-x="564" 
d="M276 -10q-112 0 -187.5 60.5t-75.5 173.5l134 8q0 -53 37.5 -82.5t95.5 -29.5q52 0 87.5 25t35.5 77q0 26 -10.5 44t-23.5 26.5t-38.5 13t-40 5t-44.5 0.5v106q67 0 93.5 20.5t26.5 57.5q0 40 -25.5 61.5t-65.5 21.5q-43 0 -68.5 -24t-26.5 -66l-133 9q0 96 67 153
t163 57q93 0 158.5 -52.5t65.5 -140.5q0 -93 -74 -134q111 -41 111 -168q0 -105 -76.5 -163.5t-185.5 -58.5z" />
    <glyph glyph-name="four.lf" horiz-adv-x="568" 
d="M454 293h111v-129h-111v-164h-135v164h-320v80l338 453h117v-404zM170 293h149v210z" />
    <glyph glyph-name="five.lf" horiz-adv-x="570" 
d="M299 483q105 0 172.5 -70t67.5 -168q0 -103 -74 -179.5t-185 -76.5q-100 0 -172 62t-84 153l133 22q3 -42 35 -74.5t87 -32.5q58 0 87.5 37.5t29.5 88.5q0 47 -28.5 79.5t-87.5 32.5q-72 0 -110 -60l-126 31l69 369h396v-129h-286l-20 -107q42 22 96 22z" />
    <glyph glyph-name="six.lf" horiz-adv-x="541" 
d="M292 475q104 0 171 -68t67 -171q0 -108 -75 -177.5t-183 -69.5t-184 69.5t-76 176.5q0 69 40 132l207 330h156l-149 -223q9 1 26 1zM272 119q52 0 86.5 31.5t34.5 85.5q0 53 -34.5 85t-86.5 32q-53 0 -87 -31.5t-34 -85.5t34 -85.5t87 -31.5z" />
    <glyph glyph-name="seven.lf" horiz-adv-x="508" 
d="M5 697h504v-70l-299 -627h-156l284 568h-333v129z" />
    <glyph glyph-name="eight.lf" horiz-adv-x="586" 
d="M293 -11q-111 0 -187.5 57.5t-76.5 162.5q0 115 92 170q-60 49 -60 127q0 91 68.5 146.5t163.5 55.5t163.5 -55.5t68.5 -146.5q0 -78 -60 -127q93 -56 93 -170q0 -105 -77 -162.5t-188 -57.5zM293 417q44 0 70.5 21.5t26.5 58.5t-26.5 59t-70.5 22t-70 -22t-26 -59
t26.5 -58.5t69.5 -21.5zM293 118q58 0 93.5 27t35.5 77q0 49 -35.5 76t-93.5 27t-93.5 -27t-35.5 -76q0 -50 35.5 -77t93.5 -27z" />
    <glyph glyph-name="nine.lf" horiz-adv-x="541" 
d="M269 708q108 0 184 -69.5t76 -175.5q0 -69 -40 -132l-207 -331h-156l148 223q-9 -1 -25 -1q-104 0 -171 68.5t-67 171.5q0 108 75 177t183 69zM269 345q53 0 87 31.5t34 85.5q0 53 -34.5 84.5t-86.5 31.5t-86.5 -31.5t-34.5 -84.5q0 -54 34 -85.5t87 -31.5z" />
    <glyph glyph-name="period.ss03" horiz-adv-x="291" 
d="M145 -11q-33 0 -56 23.5t-23 57.5t22.5 57t56.5 23t57 -23t23 -57t-23 -57.5t-57 -23.5z" />
    <glyph glyph-name="colon.ss03" horiz-adv-x="284" 
d="M142 311q-33 0 -56.5 23t-23.5 57t23 57t57 23t56.5 -23t22.5 -57t-22.5 -57t-56.5 -23zM142 -11q-33 0 -56.5 23.5t-23.5 57.5t23 57t57 23t56.5 -23t22.5 -57t-22.5 -57.5t-56.5 -23.5z" />
    <glyph glyph-name="semicolon.ss03" horiz-adv-x="298" 
d="M170 311q-33 0 -56.5 23t-23.5 57t23 57t57 23t56.5 -23t22.5 -57t-22.5 -57t-56.5 -23zM34 -147l60 278h154l-124 -278h-90z" />
    <glyph glyph-name="ellipsis.ss03" horiz-adv-x="675" 
d="M145 -11q-33 0 -56 23.5t-23 57.5t22.5 56.5t56.5 22.5t56.5 -22.5t22.5 -56.5t-22.5 -57.5t-56.5 -23.5zM337 -11q-33 0 -56 23.5t-23 57.5t22.5 56.5t56.5 22.5t56.5 -22.5t22.5 -56.5t-22.5 -57.5t-56.5 -23.5zM529 -11q-33 0 -56 23.5t-23 57.5t22.5 56.5t56.5 22.5
t57 -22.5t23 -56.5t-23 -57.5t-57 -23.5z" />
    <glyph glyph-name="exclam.ss03" horiz-adv-x="293" 
d="M94 215l-16 482h134l-16 -482h-102zM145 -11q-33 0 -56.5 24t-23.5 58t23 56.5t57 22.5t56.5 -22.5t22.5 -56.5q0 -35 -22.5 -58.5t-56.5 -23.5z" />
    <glyph glyph-name="exclamdown.ss03" horiz-adv-x="296" 
d="M148 344q-34 0 -56.5 22.5t-22.5 56.5t22.5 57.5t56.5 23.5q33 0 56.5 -23.5t23.5 -57.5t-23 -56.5t-57 -22.5zM81 -204l16 482h102l16 -482h-134z" />
    <glyph glyph-name="question.ss03" horiz-adv-x="475" 
d="M177 213v49q0 48 16.5 81.5t40.5 52t48 33.5t40.5 36t16.5 50q0 80 -102 80q-109 0 -107 -112h-120q0 106 62 165.5t165 59.5q94 0 157 -50t63 -145q0 -42 -12.5 -74.5t-30.5 -50.5t-40 -34.5t-40 -28.5t-30.5 -29.5t-12.5 -39.5v-43h-114zM236 -11q-33 0 -56 23.5
t-23 57.5t22.5 57t56.5 23t57 -23t23 -57t-23 -57.5t-57 -23.5z" />
    <glyph glyph-name="questiondown.ss03" horiz-adv-x="475" 
d="M239 344q-34 0 -56.5 22.5t-22.5 56.5t22.5 57.5t56.5 23.5q33 0 56.5 -23.5t23.5 -57.5t-23 -56.5t-57 -22.5zM239 -215q-94 0 -157 50t-63 145q0 50 17 86t41.5 55.5t48.5 35.5t41 35.5t17 44.5v43h115v-49q0 -40 -12 -70.5t-30 -47.5t-39 -32.5t-39 -27.5t-30 -31
t-12 -44q0 -80 101 -80q108 0 108 112h119q0 -106 -61.5 -165.5t-164.5 -59.5z" />
    <glyph glyph-name="twodotenleader.ss03" horiz-adv-x="483" 
d="M145 -11q-33 0 -56.5 23.5t-23.5 57.5t23 57t57 23t56.5 -23t22.5 -57t-22.5 -57.5t-56.5 -23.5zM338 -11q-34 0 -57 23.5t-23 57.5t23 57t57 23t56.5 -23t22.5 -57t-22.5 -57.5t-56.5 -23.5z" />
    <glyph glyph-name="divide.ss03" horiz-adv-x="500" 
d="M250 412q-33 0 -56 23t-23 57t22.5 57t56.5 23t57 -23t23 -57t-23 -57t-57 -23zM31 255v113h438v-113h-438zM250 53q-33 0 -56 23t-23 57t22.5 57t56.5 23t57 -23t23 -57t-23 -57t-57 -23z" />
    <glyph glyph-name="uni030C.alt" 
d="M-205 468l56 229h142l-119 -229h-79z" />
    <glyph glyph-name="uni030A.case" 
d="M-151 524q-50 0 -84.5 35.5t-34.5 83.5q0 49 35 84t84 35t84 -34.5t35 -84.5q0 -49 -35 -84t-84 -35zM-151 596q21 0 34 13.5t13 34.5t-12.5 33t-34.5 12q-21 0 -33.5 -12.5t-12.5 -32.5q0 -21 13 -34.5t33 -13.5z" />
    <glyph glyph-name="uni0337.case" 
d="M-305 112v139l294 232v-137z" />
    <glyph glyph-name="uni0338.case" 
d="M-591 0l525 697h96l-524 -697h-97z" />
    <glyph glyph-name="uni0308.ss03" 
d="M-321 548q-33 0 -56 23t-23 57t22.5 57t56.5 23t57 -23t23 -57t-23 -57t-57 -23zM-120 548q-33 0 -56 23t-23 57t22.5 57t56.5 23t57 -23t23 -57t-23 -57t-57 -23z" />
    <glyph glyph-name="uni0307.ss03" 
d="M-120 548q-33 0 -56 23t-23 57t22.5 57t56.5 23t57 -23t23 -57t-23 -57t-57 -23z" />
    <glyph glyph-name="dotbelowcomb.ss03" 
d="M-120 -200q-33 0 -56 23.5t-23 57.5t22.5 56.5t56.5 22.5t57 -22.5t23 -56.5t-23 -57.5t-57 -23.5z" />
    <glyph glyph-name="dieresis.ss03" horiz-adv-x="440" 
d="M119 548q-33 0 -56 23t-23 57t22.5 57t56.5 23t57 -23t23 -57t-23 -57t-57 -23zM320 548q-33 0 -56 23t-23 57t22.5 57t56.5 23t57 -23t23 -57t-23 -57t-57 -23z" />
    <glyph glyph-name="dotaccent.ss03" horiz-adv-x="239" 
d="M119 548q-33 0 -56 23t-23 57t22.5 57t56.5 23t57 -23t23 -57t-23 -57t-57 -23z" />
    <glyph glyph-name="uni03060301" 
d="M-255 759l112 142h147l-160 -142h-99zM-205 564q-158 0 -158 133h96q0 -27 17.5 -41t44.5 -14t44.5 14.5t17.5 40.5h95q0 -133 -157 -133z" />
    <glyph glyph-name="uni03060300" 
d="M-209 759l-148 142h144l104 -142h-100zM-159 564q-157 0 -157 133h95q0 -27 18 -41t44 -14q27 0 44.5 14.5t17.5 40.5h96q0 -133 -158 -133z" />
    <glyph glyph-name="uni03060309" 
d="M-193 725l-15 55q20 3 29 5t19 9t10 20q0 14 -12 20.5t-24 7.5t-37 1h-15v79h15q75 0 119 -26.5t44 -75.5q0 -26 -12 -44.5t-35 -28.5t-40.5 -14t-45.5 -8zM-174 564q-158 0 -158 133h96q0 -27 17.5 -41t44.5 -14t44.5 14.5t17.5 40.5h95q0 -133 -157 -133z" />
    <glyph glyph-name="uni03060303" 
d="M-141 756q-26 0 -47.5 10t-33 22.5t-24 22.5t-22.5 10q-26 0 -26 -64h-78q0 70 29.5 108.5t80.5 38.5q29 0 53 -16t41 -32.5t28 -16.5q25 0 25 62h81q0 -70 -28.5 -107.5t-78.5 -37.5zM-202 564q-158 0 -158 133h96q0 -27 17.5 -41t44.5 -14t44.5 14.5t17.5 40.5h95
q0 -133 -157 -133z" />
    <glyph glyph-name="uni03020301" 
d="M-251 742l112 143h145l-159 -143h-98zM-360 539l158 179l158 -179h-103l-55 64l-54 -64h-104z" />
    <glyph glyph-name="uni03020300" 
d="M-195 742l-148 143h145l104 -143h-101zM-302 539l158 179l159 -179h-105l-54 64l-55 -64h-103z" />
    <glyph glyph-name="uni03020309" 
d="M-151 713l153 -174h-103l-55 64l-54 -64h-104l152 172q-2 -1 -6 -1t-6 -1l-16 55q44 6 53 17q5 6 5 16q0 11 -5.5 17.5t-18 9t-21.5 3t-27 0.5h-16v79h16q74 0 118.5 -26.5t44.5 -75.5q0 -72 -110 -91z" />
    <glyph glyph-name="uni03020303" 
d="M-124 740q-33 0 -57.5 16t-40.5 32t-28 16q-27 0 -27 -63h-77q0 69 29.5 107.5t80.5 38.5q29 0 53 -16.5t41 -32.5t28 -16q25 0 25 63h81q0 -70 -29 -107.5t-79 -37.5zM-343 539l158 179l158 -179h-103l-55 64l-54 -64h-104z" />
    </font>
</defs>
</svg>
